Suranna.ufo
<glyph name="exclam" format="1">
  <advance width="241"/>
  <unicode hex="0021"/>
  <outline>
    <contour>
      <point x="177" y="18" type="curve" smooth="yes" name="hr00"/>
      <point x="177" y="54"/>
      <point x="149" y="79"/>
      <point x="118" y="79" type="curve" smooth="yes"/>
      <point x="82" y="79"/>
      <point x="58" y="54"/>
      <point x="58" y="18" type="curve" smooth="yes"/>
      <point x="58" y="-17"/>
      <point x="85" y="-45"/>
      <point x="118" y="-45" type="curve" smooth="yes"/>
      <point x="151" y="-45"/>
      <point x="177" y="-17"/>
    </contour>
    <contour>
      <point x="175" y="613" type="line" smooth="yes"/>
      <point x="175" y="661"/>
      <point x="159" y="700"/>
      <point x="114" y="700" type="curve" smooth="yes"/>
      <point x="74" y="700"/>
      <point x="58" y="660"/>
      <point x="58" y="615" type="curve" smooth="yes"/>
      <point x="58" y="596"/>
      <point x="61" y="567"/>
      <point x="67" y="528" type="curve" smooth="yes"/>
      <point x="80" y="441" type="line" smooth="yes"/>
      <point x="91" y="366"/>
      <point x="98" y="289"/>
      <point x="96" y="210" type="curve" smooth="yes"/>
      <point x="95" y="162" type="line"/>
      <point x="137" y="162" type="line"/>
      <point x="139" y="215" type="line"/>
      <point x="139" y="263" type="line" smooth="yes"/>
      <point x="139" y="282"/>
      <point x="137" y="314"/>
      <point x="141" y="345" type="curve"/>
      <point x="142" y="366"/>
      <point x="145" y="393"/>
      <point x="150" y="424" type="curve" smooth="yes"/>
      <point x="164" y="513" type="line"/>
      <point x="172" y="554" type="line"/>
      <point x="172" y="560"/>
      <point x="173" y="567"/>
      <point x="175" y="574" type="curve"/>
      <point x="175" y="590" type="line"/>
    </contour>
  </outline>
</glyph>
<glyph name="percent" format="1">
  <advance width="728"/>
  <unicode hex="0025"/>
  <outline>
    <contour>
      <point x="652" y="259" type="curve" smooth="yes" name="hr00"/>
      <point x="652" y="217"/>
      <point x="640" y="174"/>
      <point x="617" y="129" type="curve" smooth="yes"/>
      <point x="594" y="85"/>
      <point x="565" y="57"/>
      <point x="532" y="46" type="curve" smooth="yes"/>
      <point x="521" y="43"/>
      <point x="512" y="41"/>
      <point x="506" y="41" type="curve" smooth="yes"/>
      <point x="475" y="41"/>
      <point x="451" y="64"/>
      <point x="451" y="104" type="curve" smooth="yes"/>
      <point x="451" y="117"/>
      <point x="454" y="135"/>
      <point x="461" y="156" type="curve"/>
      <point x="498" y="238" type="line"/>
      <point x="515" y="268"/>
      <point x="527" y="288"/>
      <point x="535" y="299" type="curve" smooth="yes"/>
      <point x="554" y="324"/>
      <point x="573" y="337"/>
      <point x="591" y="337" type="curve" smooth="yes"/>
      <point x="604" y="337"/>
      <point x="614" y="333"/>
      <point x="620" y="326" type="curve"/>
      <point x="641" y="311"/>
      <point x="652" y="289"/>
    </contour>
    <contour>
      <point x="314" y="541" type="curve" smooth="yes"/>
      <point x="314" y="499"/>
      <point x="302" y="456"/>
      <point x="278" y="411" type="curve" smooth="yes"/>
      <point x="255" y="367"/>
      <point x="227" y="339"/>
      <point x="194" y="327" type="curve" smooth="yes"/>
      <point x="184" y="324"/>
      <point x="176" y="322"/>
      <point x="170" y="322" type="curve" smooth="yes"/>
      <point x="139" y="322"/>
      <point x="112" y="345"/>
      <point x="112" y="386" type="curve" smooth="yes"/>
      <point x="112" y="402"/>
      <point x="119" y="425"/>
      <point x="132" y="455" type="curve" smooth="yes"/>
      <point x="139" y="472"/>
      <point x="147" y="493"/>
      <point x="160" y="518" type="curve" smooth="yes"/>
      <point x="174" y="545"/>
      <point x="187" y="567"/>
      <point x="198" y="581" type="curve" smooth="yes"/>
      <point x="216" y="606"/>
      <point x="235" y="617"/>
      <point x="252" y="617" type="curve" smooth="yes"/>
      <point x="264" y="617"/>
      <point x="275" y="613"/>
      <point x="284" y="606" type="curve" smooth="yes"/>
      <point x="304" y="588"/>
      <point x="314" y="566"/>
    </contour>
    <contour>
      <point x="674" y="278" type="curve"/>
      <point x="667" y="331"/>
      <point x="627" y="365"/>
      <point x="578" y="365" type="curve" smooth="yes"/>
      <point x="529" y="365"/>
      <point x="485" y="338"/>
      <point x="445" y="285" type="curve" smooth="yes"/>
      <point x="405" y="232"/>
      <point x="385" y="179"/>
      <point x="385" y="126" type="curve" smooth="yes"/>
      <point x="385" y="55"/>
      <point x="427" y="13"/>
      <point x="496" y="13" type="curve" smooth="yes"/>
      <point x="538" y="13"/>
      <point x="575" y="31"/>
      <point x="606" y="68" type="curve" smooth="yes"/>
      <point x="633" y="99"/>
      <point x="654" y="140"/>
      <point x="669" y="191" type="curve" smooth="yes"/>
      <point x="674" y="207"/>
      <point x="676" y="225"/>
      <point x="676" y="245" type="curve" smooth="yes"/>
      <point x="676" y="257"/>
      <point x="677" y="266"/>
    </contour>
    <contour>
      <point x="518" y="662" type="line"/>
      <point x="513" y="656"/>
      <point x="479" y="592"/>
      <point x="416" y="471" type="curve" smooth="yes"/>
      <point x="336" y="318"/>
      <point x="280" y="213"/>
      <point x="251" y="157" type="curve" smooth="yes"/>
      <point x="168" y="-3" type="line"/>
      <point x="207" y="-3" type="line"/>
      <point x="556" y="662" type="line"/>
    </contour>
    <contour>
      <point x="339" y="559" type="curve" smooth="yes"/>
      <point x="329" y="618"/>
      <point x="296" y="647"/>
      <point x="241" y="647" type="curve" smooth="yes"/>
      <point x="191" y="647"/>
      <point x="146" y="621"/>
      <point x="106" y="568" type="curve" smooth="yes"/>
      <point x="67" y="516"/>
      <point x="47" y="463"/>
      <point x="47" y="409" type="curve" smooth="yes"/>
      <point x="47" y="337"/>
      <point x="90" y="295"/>
      <point x="159" y="295" type="curve" smooth="yes"/>
      <point x="202" y="295"/>
      <point x="239" y="314"/>
      <point x="269" y="351" type="curve" smooth="yes"/>
      <point x="294" y="380"/>
      <point x="314" y="421"/>
      <point x="330" y="472" type="curve"/>
      <point x="337" y="488"/>
      <point x="341" y="508"/>
      <point x="341" y="532" type="curve" smooth="yes"/>
      <point x="341" y="543"/>
      <point x="340" y="552"/>
    </contour>
  </outline>
</glyph>
<glyph name="parenleft" format="1">
  <advance width="396"/>
  <unicode hex="0028"/>
  <outline>
    <contour>
      <point x="65" y="242" type="curve" smooth="yes" name="hr00"/>
      <point x="65" y="135"/>
      <point x="85" y="34"/>
      <point x="126" y="-59" type="curve" smooth="yes"/>
      <point x="167" y="-153"/>
      <point x="225" y="-232"/>
      <point x="300" y="-295" type="curve"/>
      <point x="319" y="-283" type="line"/>
      <point x="258" y="-210"/>
      <point x="210" y="-127"/>
      <point x="175" y="-36" type="curve" smooth="yes"/>
      <point x="141" y="55"/>
      <point x="124" y="148"/>
      <point x="124" y="242" type="curve" smooth="yes"/>
      <point x="124" y="434"/>
      <point x="196" y="624"/>
      <point x="319" y="769" type="curve"/>
      <point x="300" y="779" type="line"/>
      <point x="225" y="718"/>
      <point x="167" y="640"/>
      <point x="126" y="546" type="curve" smooth="yes"/>
      <point x="85" y="452"/>
      <point x="65" y="351"/>
    </contour>
  </outline>
</glyph>
<glyph name="parenright" format="1">
  <advance width="396"/>
  <unicode hex="0029"/>
  <outline>
    <contour>
      <point x="319" y="242" type="curve" smooth="yes" name="hr00"/>
      <point x="319" y="351"/>
      <point x="298" y="452"/>
      <point x="257" y="546" type="curve" smooth="yes"/>
      <point x="216" y="640"/>
      <point x="159" y="718"/>
      <point x="84" y="779" type="curve"/>
      <point x="65" y="769" type="line"/>
      <point x="188" y="624"/>
      <point x="260" y="434"/>
      <point x="260" y="242" type="curve" smooth="yes"/>
      <point x="260" y="148"/>
      <point x="243" y="55"/>
      <point x="208" y="-36" type="curve" smooth="yes"/>
      <point x="174" y="-127"/>
      <point x="126" y="-210"/>
      <point x="65" y="-283" type="curve"/>
      <point x="84" y="-295" type="line"/>
      <point x="159" y="-232"/>
      <point x="216" y="-153"/>
      <point x="257" y="-59" type="curve" smooth="yes"/>
      <point x="298" y="34"/>
      <point x="319" y="135"/>
    </contour>
  </outline>
</glyph>
<glyph name="plus" format="1">
  <advance width="576"/>
  <unicode hex="002B"/>
  <outline>
    <contour>
      <point x="65" y="190" type="line" name="hr00"/>
      <point x="255" y="190" type="line"/>
      <point x="255" y="0" type="line"/>
      <point x="310" y="0" type="line"/>
      <point x="310" y="190" type="line"/>
      <point x="502" y="190" type="line"/>
      <point x="502" y="242" type="line"/>
      <point x="310" y="242" type="line"/>
      <point x="310" y="433" type="line"/>
      <point x="255" y="433" type="line"/>
      <point x="255" y="242" type="line"/>
      <point x="65" y="242" type="line"/>
    </contour>
  </outline>
</glyph>
<glyph name="comma" format="1">
  <advance width="237"/>
  <unicode hex="002C"/>
  <outline>
    <contour>
      <point x="165" y="8" type="curve" name="hr00"/>
      <point x="166" y="12"/>
      <point x="166" y="18"/>
      <point x="166" y="26" type="curve" smooth="yes"/>
      <point x="166" y="66"/>
      <point x="148" y="95"/>
      <point x="107" y="95" type="curve" smooth="yes"/>
      <point x="86" y="95"/>
      <point x="60" y="67"/>
      <point x="60" y="46" type="curve" smooth="yes"/>
      <point x="60" y="28"/>
      <point x="66" y="15"/>
      <point x="78" y="8" type="curve" smooth="yes"/>
      <point x="83" y="6"/>
      <point x="89" y="4"/>
      <point x="96" y="3" type="curve"/>
      <point x="114" y="3" type="line"/>
      <point x="123" y="4" type="line"/>
      <point x="129" y="1" type="line"/>
      <point x="132" y="-2"/>
      <point x="133" y="-7"/>
      <point x="133" y="-13" type="curve" smooth="yes"/>
      <point x="133" y="-25"/>
      <point x="126" y="-39"/>
      <point x="118" y="-58" type="curve"/>
      <point x="95" y="-85" type="line"/>
      <point x="74" y="-105" type="line"/>
      <point x="84" y="-119" type="line"/>
      <point x="105" y="-103"/>
      <point x="120" y="-90"/>
      <point x="131" y="-81" type="curve"/>
      <point x="154" y="-57"/>
      <point x="165" y="-27"/>
    </contour>
  </outline>
</glyph>
<glyph name="hyphen" format="1">
  <advance width="528"/>
  <unicode hex="002D"/>
  <outline>
    <contour>
      <point x="65" y="188" type="line" name="hr00"/>
      <point x="455" y="188" type="line"/>
      <point x="455" y="238" type="line"/>
      <point x="65" y="238" type="line"/>
    </contour>
  </outline>
</glyph>
<glyph name="period" format="1">
  <advance width="237"/>
  <unicode hex="002E"/>
  <outline>
    <contour>
      <point x="156" y="49" type="curve" smooth="yes" name="hr00"/>
      <point x="156" y="73"/>
      <point x="135" y="96"/>
      <point x="111" y="96" type="curve" smooth="yes"/>
      <point x="84" y="96"/>
      <point x="64" y="73"/>
      <point x="64" y="49" type="curve" smooth="yes"/>
      <point x="64" y="25"/>
      <point x="84" y="1"/>
      <point x="111" y="1" type="curve" smooth="yes"/>
      <point x="135" y="1"/>
      <point x="156" y="25"/>
    </contour>
  </outline>
</glyph>
<glyph name="slash" format="1">
  <advance width="607"/>
  <unicode hex="002F"/>
  <outline>
    <contour>
      <point x="110" y="-136" type="line" name="hr00"/>
      <point x="528" y="700" type="line"/>
      <point x="483" y="700" type="line"/>
      <point x="65" y="-136" type="line"/>
    </contour>
  </outline>
</glyph>
<glyph name="zero" format="1">
  <advance width="529"/>
  <unicode hex="0030"/>
  <outline>
    <contour>
      <point x="261" y="13" type="curve" smooth="yes" name="hr00"/>
      <point x="218" y="13"/>
      <point x="183" y="42"/>
      <point x="157" y="99" type="curve" smooth="yes"/>
      <point x="131" y="157"/>
      <point x="118" y="233"/>
      <point x="118" y="326" type="curve" smooth="yes"/>
      <point x="118" y="417"/>
      <point x="131" y="491"/>
      <point x="157" y="547" type="curve" smooth="yes"/>
      <point x="183" y="603"/>
      <point x="218" y="631"/>
      <point x="261" y="631" type="curve" smooth="yes"/>
      <point x="304" y="631"/>
      <point x="338" y="603"/>
      <point x="364" y="547" type="curve" smooth="yes"/>
      <point x="391" y="491"/>
      <point x="404" y="417"/>
      <point x="404" y="326" type="curve" smooth="yes"/>
      <point x="404" y="233"/>
      <point x="391" y="157"/>
      <point x="364" y="99" type="curve" smooth="yes"/>
      <point x="338" y="42"/>
      <point x="304" y="13"/>
    </contour>
    <contour>
      <point x="261" y="-12" type="curve" smooth="yes"/>
      <point x="330" y="-12"/>
      <point x="385" y="19"/>
      <point x="426" y="80" type="curve" smooth="yes"/>
      <point x="467" y="141"/>
      <point x="488" y="223"/>
      <point x="488" y="326" type="curve" smooth="yes"/>
      <point x="488" y="427"/>
      <point x="467" y="509"/>
      <point x="426" y="570" type="curve" smooth="yes"/>
      <point x="385" y="631"/>
      <point x="330" y="662"/>
      <point x="261" y="662" type="curve" smooth="yes"/>
      <point x="193" y="662"/>
      <point x="138" y="631"/>
      <point x="96" y="570" type="curve" smooth="yes"/>
      <point x="54" y="509"/>
      <point x="33" y="427"/>
      <point x="33" y="326" type="curve" smooth="yes"/>
      <point x="33" y="223"/>
      <point x="54" y="141"/>
      <point x="96" y="80" type="curve" smooth="yes"/>
      <point x="138" y="19"/>
      <point x="193" y="-12"/>
    </contour>
  </outline>
</glyph>
<glyph name="one" format="1">
  <advance width="529"/>
  <unicode hex="0031"/>
  <outline>
    <contour>
      <point x="396" y="-4" type="line" name="hr00"/>
      <point x="396" y="19" type="line"/>
      <point x="362" y="19" type="line" smooth="yes"/>
      <point x="331" y="19"/>
      <point x="303" y="42"/>
      <point x="303" y="71" type="curve" smooth="yes"/>
      <point x="303" y="660" type="line"/>
      <point x="128" y="572" type="line"/>
      <point x="137" y="550" type="line"/>
      <point x="156" y="562"/>
      <point x="181" y="571"/>
      <point x="196" y="571" type="curve" smooth="yes"/>
      <point x="215" y="571"/>
      <point x="228" y="562"/>
      <point x="228" y="547" type="curve" smooth="yes"/>
      <point x="228" y="67" type="line" smooth="yes"/>
      <point x="228" y="39"/>
      <point x="197" y="19"/>
      <point x="158" y="19" type="curve" smooth="yes"/>
      <point x="125" y="19" type="line"/>
      <point x="125" y="-4" type="line"/>
    </contour>
  </outline>
</glyph>
<glyph name="two" format="1">
  <advance width="526"/>
  <unicode hex="0032"/>
  <outline>
    <contour>
      <point x="425" y="-4" type="line" name="hr00"/>
      <point x="473" y="108" type="line"/>
      <point x="451" y="112" type="line"/>
      <point x="440" y="84"/>
      <point x="416" y="62"/>
      <point x="391" y="62" type="curve" smooth="yes"/>
      <point x="135" y="62" type="line"/>
      <point x="241" y="188"/>
      <point x="316" y="283"/>
      <point x="359" y="346" type="curve" smooth="yes"/>
      <point x="402" y="410"/>
      <point x="424" y="462"/>
      <point x="424" y="501" type="curve" smooth="yes"/>
      <point x="424" y="545"/>
      <point x="407" y="583"/>
      <point x="374" y="614" type="curve" smooth="yes"/>
      <point x="341" y="646"/>
      <point x="300" y="662"/>
      <point x="252" y="662" type="curve" smooth="yes"/>
      <point x="200" y="662"/>
      <point x="154" y="644"/>
      <point x="113" y="608" type="curve" smooth="yes"/>
      <point x="72" y="573"/>
      <point x="47" y="529"/>
      <point x="38" y="478" type="curve"/>
      <point x="64" y="473" type="line"/>
      <point x="69" y="507"/>
      <point x="86" y="536"/>
      <point x="115" y="561" type="curve" smooth="yes"/>
      <point x="144" y="586"/>
      <point x="178" y="599"/>
      <point x="215" y="599" type="curve" smooth="yes"/>
      <point x="252" y="599"/>
      <point x="284" y="584"/>
      <point x="309" y="554" type="curve" smooth="yes"/>
      <point x="335" y="524"/>
      <point x="348" y="488"/>
      <point x="348" y="446" type="curve" smooth="yes"/>
      <point x="348" y="391"/>
      <point x="301" y="307"/>
      <point x="207" y="196" type="curve" smooth="yes"/>
      <point x="39" y="-4" type="line"/>
    </contour>
  </outline>
</glyph>
<glyph name="three" format="1">
  <advance width="528"/>
  <unicode hex="0033"/>
  <outline>
    <contour>
      <point x="186" y="-26" type="curve" smooth="yes" name="hr00"/>
      <point x="259" y="-26"/>
      <point x="322" y="-3"/>
      <point x="373" y="43" type="curve" smooth="yes"/>
      <point x="424" y="90"/>
      <point x="450" y="145"/>
      <point x="450" y="210" type="curve" smooth="yes"/>
      <point x="450" y="275"/>
      <point x="405" y="336"/>
      <point x="316" y="371" type="curve"/>
      <point x="387" y="404"/>
      <point x="418" y="465"/>
      <point x="418" y="533" type="curve" smooth="yes"/>
      <point x="418" y="565"/>
      <point x="402" y="592"/>
      <point x="371" y="615" type="curve" smooth="yes"/>
      <point x="340" y="638"/>
      <point x="303" y="649"/>
      <point x="260" y="649" type="curve" smooth="yes"/>
      <point x="217" y="649"/>
      <point x="178" y="636"/>
      <point x="143" y="611" type="curve" smooth="yes"/>
      <point x="108" y="586"/>
      <point x="84" y="555"/>
      <point x="70" y="517" type="curve"/>
      <point x="95" y="497" type="line"/>
      <point x="123" y="560"/>
      <point x="179" y="604"/>
      <point x="232" y="604" type="curve" smooth="yes"/>
      <point x="263" y="604"/>
      <point x="290" y="594"/>
      <point x="313" y="573" type="curve" smooth="yes"/>
      <point x="336" y="552"/>
      <point x="347" y="527"/>
      <point x="347" y="497" type="curve" smooth="yes"/>
      <point x="347" y="457"/>
      <point x="332" y="422"/>
      <point x="301" y="391" type="curve" smooth="yes"/>
      <point x="270" y="360"/>
      <point x="233" y="342"/>
      <point x="190" y="335" type="curve"/>
      <point x="190" y="318" type="line"/>
      <point x="232" y="318" type="line" smooth="yes"/>
      <point x="271" y="318"/>
      <point x="304" y="303"/>
      <point x="332" y="272" type="curve" smooth="yes"/>
      <point x="359" y="242"/>
      <point x="374" y="206"/>
      <point x="374" y="164" type="curve" smooth="yes"/>
      <point x="374" y="123"/>
      <point x="361" y="88"/>
      <point x="336" y="58" type="curve" smooth="yes"/>
      <point x="311" y="29"/>
      <point x="280" y="14"/>
      <point x="245" y="14" type="curve" smooth="yes"/>
      <point x="228" y="14"/>
      <point x="204" y="19"/>
      <point x="173" y="32" type="curve" smooth="yes"/>
      <point x="143" y="44"/>
      <point x="119" y="51"/>
      <point x="102" y="51" type="curve" smooth="yes"/>
      <point x="83" y="51"/>
      <point x="69" y="39"/>
      <point x="69" y="26" type="curve" smooth="yes"/>
      <point x="69" y="-2"/>
      <point x="119" y="-26"/>
    </contour>
  </outline>
</glyph>
<glyph name="four" format="1">
  <advance width="529"/>
  <unicode hex="0034"/>
  <outline>
    <contour>
      <point x="320" y="563" type="line" name="hr00"/>
      <point x="320" y="219" type="line"/>
      <point x="69" y="219" type="line"/>
    </contour>
    <contour>
      <point x="387" y="-4" type="line"/>
      <point x="387" y="164" type="line"/>
      <point x="488" y="164" type="line"/>
      <point x="488" y="219" type="line"/>
      <point x="387" y="219" type="line"/>
      <point x="387" y="654" type="line"/>
      <point x="346" y="654" type="line"/>
      <point x="33" y="222" type="line"/>
      <point x="33" y="164" type="line"/>
      <point x="320" y="164" type="line"/>
      <point x="320" y="-4" type="line"/>
    </contour>
  </outline>
</glyph>
<glyph name="five" format="1">
  <advance width="528"/>
  <unicode hex="0035"/>
  <outline>
    <contour>
      <point x="177" y="-12" type="curve" smooth="yes" name="hr00"/>
      <point x="350" y="-12"/>
      <point x="451" y="78"/>
      <point x="451" y="233" type="curve" smooth="yes"/>
      <point x="451" y="286"/>
      <point x="424" y="335"/>
      <point x="371" y="382" type="curve" smooth="yes"/>
      <point x="318" y="429"/>
      <point x="246" y="465"/>
      <point x="156" y="488" type="curve"/>
      <point x="207" y="590" type="line"/>
      <point x="425" y="590" type="line"/>
      <point x="457" y="672" type="line"/>
      <point x="446" y="672" type="line"/>
      <point x="437" y="660"/>
      <point x="421" y="654"/>
      <point x="409" y="654" type="curve" smooth="yes"/>
      <point x="197" y="654" type="line"/>
      <point x="91" y="423" type="line"/>
      <point x="176" y="407"/>
      <point x="247" y="378"/>
      <point x="305" y="335" type="curve" smooth="yes"/>
      <point x="364" y="292"/>
      <point x="393" y="246"/>
      <point x="393" y="196" type="curve" smooth="yes"/>
      <point x="393" y="147"/>
      <point x="379" y="106"/>
      <point x="351" y="72" type="curve" smooth="yes"/>
      <point x="323" y="39"/>
      <point x="290" y="22"/>
      <point x="251" y="22" type="curve" smooth="yes"/>
      <point x="222" y="22"/>
      <point x="199" y="24"/>
      <point x="184" y="33" type="curve" smooth="yes"/>
      <point x="139" y="59"/>
      <point x="116" y="71"/>
      <point x="104" y="71" type="curve" smooth="yes"/>
      <point x="80" y="71"/>
      <point x="60" y="55"/>
      <point x="60" y="38" type="curve" smooth="yes"/>
      <point x="60" y="13"/>
      <point x="110" y="-12"/>
    </contour>
  </outline>
</glyph>
<glyph name="six" format="1">
  <advance width="528"/>
  <unicode hex="0036"/>
  <outline>
    <contour>
      <point x="280" y="12" type="curve" smooth="yes" name="hr00"/>
      <point x="239" y="12"/>
      <point x="204" y="34"/>
      <point x="173" y="79" type="curve" smooth="yes"/>
      <point x="143" y="124"/>
      <point x="128" y="178"/>
      <point x="128" y="241" type="curve" smooth="yes"/>
      <point x="128" y="276"/>
      <point x="133" y="306"/>
      <point x="142" y="337" type="curve"/>
      <point x="167" y="370"/>
      <point x="206" y="386"/>
      <point x="243" y="386" type="curve" smooth="yes"/>
      <point x="285" y="386"/>
      <point x="321" y="366"/>
      <point x="351" y="327" type="curve" smooth="yes"/>
      <point x="381" y="288"/>
      <point x="396" y="241"/>
      <point x="396" y="186" type="curve" smooth="yes"/>
      <point x="396" y="138"/>
      <point x="385" y="97"/>
      <point x="362" y="63" type="curve" smooth="yes"/>
      <point x="339" y="29"/>
      <point x="312" y="12"/>
    </contour>
    <contour>
      <point x="271" y="-12" type="curve" smooth="yes"/>
      <point x="328" y="-12"/>
      <point x="376" y="12"/>
      <point x="415" y="60" type="curve" smooth="yes"/>
      <point x="454" y="108"/>
      <point x="474" y="166"/>
      <point x="474" y="233" type="curve" smooth="yes"/>
      <point x="474" y="282"/>
      <point x="456" y="324"/>
      <point x="420" y="359" type="curve" smooth="yes"/>
      <point x="384" y="395"/>
      <point x="340" y="413"/>
      <point x="289" y="413" type="curve" smooth="yes"/>
      <point x="228" y="413"/>
      <point x="183" y="404"/>
      <point x="152" y="365" type="curve"/>
      <point x="174" y="451"/>
      <point x="212" y="518"/>
      <point x="265" y="567" type="curve" smooth="yes"/>
      <point x="319" y="616"/>
      <point x="378" y="644"/>
      <point x="443" y="650" type="curve"/>
      <point x="443" y="672" type="line"/>
      <point x="334" y="672"/>
      <point x="240" y="631"/>
      <point x="161" y="550" type="curve" smooth="yes"/>
      <point x="82" y="469"/>
      <point x="43" y="373"/>
      <point x="43" y="260" type="curve" smooth="yes"/>
      <point x="43" y="185"/>
      <point x="65" y="120"/>
      <point x="109" y="67" type="curve" smooth="yes"/>
      <point x="154" y="14"/>
      <point x="208" y="-12"/>
    </contour>
  </outline>
</glyph>
<glyph name="seven" format="1">
  <advance width="526"/>
  <unicode hex="0037"/>
  <outline>
    <contour>
      <point x="253" y="-4" type="line" name="hr00"/>
      <point x="469" y="654" type="line"/>
      <point x="93" y="654" type="line"/>
      <point x="48" y="526" type="line"/>
      <point x="56" y="518" type="line"/>
      <point x="75" y="557"/>
      <point x="112" y="590"/>
      <point x="145" y="590" type="curve" smooth="yes"/>
      <point x="401" y="590" type="line"/>
      <point x="202" y="-4" type="line"/>
    </contour>
  </outline>
</glyph>
<glyph name="eight" format="1">
  <advance width="528"/>
  <unicode hex="0038"/>
  <outline>
    <contour>
      <point x="273" y="371" type="curve" name="hr00"/>
      <point x="193" y="427"/>
      <point x="145" y="491"/>
      <point x="145" y="547" type="curve" smooth="yes"/>
      <point x="145" y="599"/>
      <point x="192" y="638"/>
      <point x="251" y="638" type="curve" smooth="yes"/>
      <point x="319" y="638"/>
      <point x="374" y="595"/>
      <point x="374" y="538" type="curve" smooth="yes"/>
      <point x="374" y="477"/>
      <point x="338" y="415"/>
    </contour>
    <contour>
      <point x="269" y="12" type="curve" smooth="yes"/>
      <point x="234" y="12"/>
      <point x="203" y="24"/>
      <point x="178" y="49" type="curve" smooth="yes"/>
      <point x="153" y="74"/>
      <point x="140" y="104"/>
      <point x="140" y="141" type="curve" smooth="yes"/>
      <point x="140" y="204"/>
      <point x="168" y="267"/>
      <point x="223" y="312" type="curve"/>
      <point x="327" y="252"/>
      <point x="393" y="184"/>
      <point x="393" y="131" type="curve" smooth="yes"/>
      <point x="393" y="98"/>
      <point x="381" y="69"/>
      <point x="356" y="46" type="curve" smooth="yes"/>
      <point x="332" y="23"/>
      <point x="303" y="12"/>
    </contour>
    <contour>
      <point x="269" y="-12" type="curve" smooth="yes"/>
      <point x="320" y="-12"/>
      <point x="362" y="4"/>
      <point x="397" y="35" type="curve" smooth="yes"/>
      <point x="432" y="67"/>
      <point x="450" y="105"/>
      <point x="450" y="149" type="curve" smooth="yes"/>
      <point x="450" y="225"/>
      <point x="399" y="303"/>
      <point x="296" y="362" type="curve"/>
      <point x="387" y="414"/>
      <point x="432" y="477"/>
      <point x="432" y="529" type="curve" smooth="yes"/>
      <point x="432" y="566"/>
      <point x="415" y="597"/>
      <point x="380" y="623" type="curve" smooth="yes"/>
      <point x="346" y="648"/>
      <point x="303" y="662"/>
      <point x="251" y="662" type="curve" smooth="yes"/>
      <point x="204" y="662"/>
      <point x="164" y="646"/>
      <point x="131" y="614" type="curve" smooth="yes"/>
      <point x="98" y="583"/>
      <point x="82" y="545"/>
      <point x="82" y="501" type="curve" smooth="yes"/>
      <point x="82" y="450"/>
      <point x="123" y="386"/>
      <point x="214" y="326" type="curve"/>
      <point x="117" y="269"/>
      <point x="69" y="207"/>
      <point x="69" y="154" type="curve" smooth="yes"/>
      <point x="69" y="109"/>
      <point x="88" y="70"/>
      <point x="127" y="37" type="curve" smooth="yes"/>
      <point x="166" y="4"/>
      <point x="214" y="-12"/>
    </contour>
  </outline>
</glyph>
<glyph name="nine" format="1">
  <advance width="526"/>
  <unicode hex="0039"/>
  <outline>
    <contour>
      <point x="265" y="277" type="curve" smooth="yes" name="hr00"/>
      <point x="228" y="277"/>
      <point x="196" y="294"/>
      <point x="170" y="329" type="curve" smooth="yes"/>
      <point x="144" y="364"/>
      <point x="131" y="405"/>
      <point x="131" y="454" type="curve" smooth="yes"/>
      <point x="131" y="507"/>
      <point x="141" y="552"/>
      <point x="162" y="589" type="curve" smooth="yes"/>
      <point x="183" y="626"/>
      <point x="208" y="645"/>
      <point x="237" y="645" type="curve" smooth="yes"/>
      <point x="336" y="645"/>
      <point x="388" y="532"/>
      <point x="388" y="313" type="curve"/>
      <point x="361" y="290"/>
      <point x="318" y="277"/>
    </contour>
    <contour>
      <point x="91" y="-31" type="line"/>
      <point x="201" y="-12"/>
      <point x="292" y="34"/>
      <point x="365" y="107" type="curve" smooth="yes"/>
      <point x="438" y="180"/>
      <point x="474" y="263"/>
      <point x="474" y="354" type="curve" smooth="yes"/>
      <point x="474" y="439"/>
      <point x="452" y="512"/>
      <point x="407" y="572" type="curve" smooth="yes"/>
      <point x="362" y="632"/>
      <point x="309" y="662"/>
      <point x="246" y="662" type="curve" smooth="yes"/>
      <point x="191" y="662"/>
      <point x="143" y="639"/>
      <point x="104" y="593" type="curve" smooth="yes"/>
      <point x="65" y="547"/>
      <point x="46" y="492"/>
      <point x="46" y="427" type="curve" smooth="yes"/>
      <point x="46" y="373"/>
      <point x="64" y="327"/>
      <point x="99" y="289" type="curve" smooth="yes"/>
      <point x="134" y="251"/>
      <point x="177" y="232"/>
      <point x="228" y="232" type="curve" smooth="yes"/>
      <point x="281" y="232"/>
      <point x="333" y="252"/>
      <point x="386" y="292" type="curve"/>
      <point x="372" y="218"/>
      <point x="338" y="155"/>
      <point x="283" y="102" type="curve" smooth="yes"/>
      <point x="228" y="49"/>
      <point x="162" y="13"/>
      <point x="84" y="-6" type="curve"/>
    </contour>
  </outline>
</glyph>
<glyph name="colon" format="1">
  <advance width="237"/>
  <unicode hex="003A"/>
  <outline>
    <contour>
      <point x="159" y="41" type="curve" smooth="yes" name="hr00"/>
      <point x="159" y="69"/>
      <point x="137" y="88"/>
      <point x="112" y="88" type="curve" smooth="yes"/>
      <point x="88" y="88"/>
      <point x="67" y="66"/>
      <point x="67" y="41" type="curve" smooth="yes"/>
      <point x="67" y="14"/>
      <point x="87" y="-5"/>
      <point x="112" y="-5" type="curve" smooth="yes"/>
      <point x="139" y="-5"/>
      <point x="159" y="16"/>
    </contour>
    <contour>
      <point x="159" y="349" type="curve" smooth="yes"/>
      <point x="159" y="374"/>
      <point x="137" y="396"/>
      <point x="112" y="396" type="curve" smooth="yes"/>
      <point x="87" y="396"/>
      <point x="67" y="376"/>
      <point x="67" y="349" type="curve" smooth="yes"/>
      <point x="67" y="322"/>
      <point x="88" y="301"/>
      <point x="112" y="301" type="curve" smooth="yes"/>
      <point x="137" y="301"/>
      <point x="159" y="325"/>
    </contour>
  </outline>
</glyph>
<glyph name="semicolon" format="1">
  <advance width="303"/>
  <unicode hex="003B"/>
  <outline>
    <contour>
      <point x="202" y="1" type="curve" smooth="yes" name="hr00"/>
      <point x="202" y="50"/>
      <point x="182" y="82"/>
      <point x="138" y="82" type="curve" smooth="yes"/>
      <point x="114" y="82"/>
      <point x="96" y="61"/>
      <point x="96" y="40" type="curve" smooth="yes"/>
      <point x="96" y="23"/>
      <point x="102" y="10"/>
      <point x="114" y="3" type="curve"/>
      <point x="126" y="-2"/>
      <point x="134" y="-4"/>
      <point x="138" y="-4" type="curve" smooth="yes"/>
      <point x="145" y="-4"/>
      <point x="150" y="-4"/>
      <point x="155" y="-3" type="curve" smooth="yes"/>
      <point x="163" y="-1" type="line"/>
      <point x="168" y="-7"/>
      <point x="170" y="-14"/>
      <point x="170" y="-21" type="curve" smooth="yes"/>
      <point x="170" y="-37"/>
      <point x="156" y="-70"/>
      <point x="147" y="-77" type="curve"/>
      <point x="140" y="-90"/>
      <point x="131" y="-102"/>
      <point x="121" y="-113" type="curve" smooth="yes"/>
      <point x="116" y="-118"/>
      <point x="107" y="-127"/>
      <point x="92" y="-140" type="curve"/>
      <point x="102" y="-153" type="line"/>
      <point x="132" y="-130"/>
      <point x="155" y="-108"/>
      <point x="170" y="-87" type="curve" smooth="yes"/>
      <point x="191" y="-57"/>
      <point x="202" y="-28"/>
    </contour>
    <contour>
      <point x="187" y="329" type="curve" smooth="yes"/>
      <point x="187" y="360"/>
      <point x="171" y="376"/>
      <point x="139" y="376" type="curve" smooth="yes"/>
      <point x="114" y="376"/>
      <point x="96" y="356"/>
      <point x="96" y="329" type="curve" smooth="yes"/>
      <point x="96" y="302"/>
      <point x="114" y="282"/>
      <point x="142" y="282" type="curve" smooth="yes"/>
      <point x="167" y="282"/>
      <point x="187" y="304"/>
    </contour>
  </outline>
</glyph>
<glyph name="equal" format="1">
  <advance width="528"/>
  <unicode hex="003D"/>
  <outline>
    <contour>
      <point x="65" y="90" type="line" name="hr00"/>
      <point x="455" y="90" type="line"/>
      <point x="455" y="140" type="line"/>
      <point x="65" y="140" type="line"/>
    </contour>
    <contour>
      <point x="65" y="274" type="line"/>
      <point x="455" y="274" type="line"/>
      <point x="455" y="324" type="line"/>
      <point x="65" y="324" type="line"/>
    </contour>
  </outline>
</glyph>
<glyph name="question" format="1">
  <advance width="446"/>
  <unicode hex="003F"/>
  <outline>
    <contour>
      <point x="247" y="31" type="curve" smooth="yes" name="hr00"/>
      <point x="247" y="60"/>
      <point x="222" y="83"/>
      <point x="194" y="83" type="curve" smooth="yes"/>
      <point x="166" y="83"/>
      <point x="143" y="58"/>
      <point x="143" y="31" type="curve" smooth="yes"/>
      <point x="143" y="6"/>
      <point x="166" y="-21"/>
      <point x="194" y="-21" type="curve" smooth="yes"/>
      <point x="223" y="-21"/>
      <point x="247" y="6"/>
    </contour>
    <contour>
      <point x="387" y="509" type="curve" smooth="yes"/>
      <point x="387" y="556"/>
      <point x="370" y="594"/>
      <point x="337" y="623" type="curve" smooth="yes"/>
      <point x="304" y="652"/>
      <point x="265" y="667"/>
      <point x="220" y="667" type="curve" smooth="yes"/>
      <point x="209" y="667"/>
      <point x="193" y="668"/>
      <point x="178" y="664" type="curve" smooth="yes"/>
      <point x="151" y="657"/>
      <point x="132" y="651"/>
      <point x="121" y="645" type="curve" smooth="yes"/>
      <point x="110" y="640"/>
      <point x="99" y="632"/>
      <point x="87" y="622" type="curve" smooth="yes"/>
      <point x="63" y="603"/>
      <point x="47" y="566"/>
      <point x="47" y="535" type="curve" smooth="yes"/>
      <point x="47" y="500"/>
      <point x="70" y="468"/>
      <point x="101" y="468" type="curve" smooth="yes"/>
      <point x="126" y="468"/>
      <point x="148" y="489"/>
      <point x="148" y="512" type="curve" smooth="yes"/>
      <point x="148" y="533"/>
      <point x="138" y="547"/>
      <point x="119" y="560" type="curve"/>
      <point x="111" y="567" type="line"/>
      <point x="108" y="574"/>
      <point x="106" y="580"/>
      <point x="106" y="586" type="curve" smooth="yes"/>
      <point x="106" y="604"/>
      <point x="116" y="617"/>
      <point x="136" y="625" type="curve" smooth="yes"/>
      <point x="156" y="633"/>
      <point x="175" y="637"/>
      <point x="192" y="637" type="curve" smooth="yes"/>
      <point x="269" y="637"/>
      <point x="303" y="594"/>
      <point x="303" y="510" type="curve" smooth="yes"/>
      <point x="303" y="473"/>
      <point x="286" y="436"/>
      <point x="261" y="400" type="curve" smooth="yes"/>
      <point x="232" y="358" type="line" smooth="yes"/>
      <point x="209" y="324"/>
      <point x="193" y="297"/>
      <point x="188" y="275" type="curve" smooth="yes"/>
      <point x="183" y="253"/>
      <point x="180" y="220"/>
      <point x="180" y="176" type="curve"/>
      <point x="210" y="176" type="line"/>
      <point x="212" y="217" type="line" smooth="yes"/>
      <point x="213" y="244"/>
      <point x="219" y="268"/>
      <point x="232" y="287" type="curve" smooth="yes"/>
      <point x="240" y="300"/>
      <point x="256" y="315"/>
      <point x="279" y="336" type="curve" smooth="yes"/>
      <point x="322" y="376"/>
      <point x="351" y="408"/>
      <point x="365" y="433" type="curve" smooth="yes"/>
      <point x="380" y="458"/>
      <point x="387" y="484"/>
    </contour>
  </outline>
</glyph>
<glyph name="uni0950" format="1">
  <advance width="800"/>
  <unicode hex="0950"/>
  <outline>
    <contour>
      <point x="367" y="696" type="line" name="hr00"/>
      <point x="415" y="646" type="line"/>
      <point x="462" y="692" type="line"/>
      <point x="415" y="741" type="line"/>
    </contour>
    <contour>
      <point x="276" y="647" type="line"/>
      <point x="321" y="579"/>
      <point x="376" y="545"/>
      <point x="442" y="545" type="curve" smooth="yes"/>
      <point x="485" y="545"/>
      <point x="528" y="567"/>
      <point x="569" y="612" type="curve"/>
      <point x="506" y="663" type="line"/>
      <point x="478" y="624"/>
      <point x="444" y="605"/>
      <point x="405" y="605" type="curve" smooth="yes"/>
      <point x="364" y="605"/>
      <point x="328" y="624"/>
      <point x="298" y="663" type="curve"/>
    </contour>
    <contour>
      <point x="526" y="404" type="curve"/>
      <point x="545" y="443"/>
      <point x="575" y="463"/>
      <point x="615" y="463" type="curve" smooth="yes"/>
      <point x="674" y="463"/>
      <point x="715" y="404"/>
      <point x="715" y="321" type="curve" smooth="yes"/>
      <point x="715" y="276"/>
      <point x="705" y="240"/>
      <point x="684" y="211" type="curve" smooth="yes"/>
      <point x="663" y="182"/>
      <point x="638" y="168"/>
      <point x="609" y="168" type="curve" smooth="yes"/>
      <point x="572" y="168"/>
      <point x="553" y="198"/>
      <point x="553" y="258" type="curve" smooth="yes"/>
      <point x="553" y="287" type="line"/>
      <point x="553" y="344" type="line" smooth="yes"/>
      <point x="553" y="375"/>
      <point x="544" y="395"/>
    </contour>
    <contour>
      <point x="38" y="344" type="line"/>
      <point x="47" y="247"/>
      <point x="78" y="166"/>
      <point x="131" y="100" type="curve" smooth="yes"/>
      <point x="185" y="34"/>
      <point x="248" y="1"/>
      <point x="321" y="1" type="curve" smooth="yes"/>
      <point x="412" y="1"/>
      <point x="470" y="57"/>
      <point x="470" y="140" type="curve" smooth="yes"/>
      <point x="470" y="190"/>
      <point x="449" y="244"/>
      <point x="407" y="301" type="curve"/>
      <point x="439" y="322"/>
      <point x="465" y="333"/>
      <point x="484" y="333" type="curve" smooth="yes"/>
      <point x="508" y="333"/>
      <point x="520" y="310"/>
      <point x="520" y="265" type="curve" smooth="yes"/>
      <point x="520" y="229" type="line" smooth="yes"/>
      <point x="520" y="137"/>
      <point x="544" y="103"/>
      <point x="605" y="103" type="curve" smooth="yes"/>
      <point x="693" y="103"/>
      <point x="748" y="189"/>
      <point x="748" y="326" type="curve" smooth="yes"/>
      <point x="748" y="461"/>
      <point x="708" y="528"/>
      <point x="624" y="528" type="curve" smooth="yes"/>
      <point x="561" y="528"/>
      <point x="522" y="489"/>
      <point x="507" y="412" type="curve"/>
      <point x="500" y="413"/>
      <point x="494" y="413"/>
      <point x="491" y="413" type="curve" smooth="yes"/>
      <point x="452" y="413"/>
      <point x="412" y="392"/>
      <point x="369" y="351" type="curve"/>
      <point x="352" y="367" type="line"/>
      <point x="361" y="384"/>
      <point x="365" y="402"/>
      <point x="365" y="421" type="curve" smooth="yes"/>
      <point x="365" y="509"/>
      <point x="305" y="571"/>
      <point x="220" y="571" type="curve" smooth="yes"/>
      <point x="187" y="571"/>
      <point x="155" y="564"/>
      <point x="126" y="549" type="curve"/>
      <point x="157" y="474" type="line"/>
      <point x="194" y="494"/>
      <point x="229" y="504"/>
      <point x="262" y="504" type="curve" smooth="yes"/>
      <point x="309" y="504"/>
      <point x="332" y="484"/>
      <point x="332" y="445" type="curve" smooth="yes"/>
      <point x="332" y="394"/>
      <point x="295" y="358"/>
      <point x="221" y="337" type="curve"/>
      <point x="252" y="262" type="line"/>
      <point x="285" y="277"/>
      <point x="314" y="302"/>
      <point x="338" y="335" type="curve"/>
      <point x="385" y="287"/>
      <point x="409" y="234"/>
      <point x="409" y="176" type="curve" smooth="yes"/>
      <point x="409" y="144"/>
      <point x="398" y="117"/>
      <point x="376" y="95" type="curve" smooth="yes"/>
      <point x="355" y="73"/>
      <point x="329" y="62"/>
      <point x="300" y="62" type="curve" smooth="yes"/>
      <point x="243" y="62"/>
      <point x="193" y="89"/>
      <point x="149" y="142" type="curve" smooth="yes"/>
      <point x="105" y="196"/>
      <point x="76" y="266"/>
      <point x="62" y="351" type="curve"/>
    </contour>
  </outline>
</glyph>
<glyph name="uni0951" format="1">
  <advance width="0"/>
  <unicode hex="0951"/>
  <outline>
    <contour>
      <point x="-214" y="1412" type="line" name="hr00"/>
      <point x="-274" y="1412" type="line"/>
      <point x="-274" y="972" type="line"/>
      <point x="-214" y="972" type="line"/>
    </contour>
  </outline>
</glyph>
<glyph name="uni0952" format="1">
  <advance width="0"/>
  <unicode hex="0952"/>
  <outline>
    <contour>
      <point x="-61" y="-379" type="line" name="hr00"/>
      <point x="-676" y="-379" type="line"/>
      <point x="-676" y="-432" type="line"/>
      <point x="-61" y="-432" type="line"/>
    </contour>
  </outline>
</glyph>
<glyph name="uni0964" format="1">
  <advance width="150"/>
  <unicode hex="0964"/>
  <outline>
    <contour>
      <point x="19" y="397" type="line" name="hr00"/>
      <point x="19" y="-17" type="line"/>
      <point x="31" y="-26" type="line"/>
      <point x="87" y="-26" type="line" smooth="yes"/>
      <point x="96" y="-26"/>
      <point x="100" y="-23"/>
      <point x="100" y="-17" type="curve" smooth="yes"/>
      <point x="100" y="397" type="line"/>
      <point x="87" y="410" type="line"/>
      <point x="31" y="410" type="line"/>
    </contour>
  </outline>
</glyph>
<glyph name="uni0965" format="1">
  <advance width="320"/>
  <unicode hex="0965"/>
  <outline>
    <contour>
      <point x="190" y="397" type="line" name="hr00"/>
      <point x="190" y="-17" type="line"/>
      <point x="202" y="-26" type="line"/>
      <point x="257" y="-26" type="line" smooth="yes"/>
      <point x="266" y="-26"/>
      <point x="270" y="-23"/>
      <point x="270" y="-17" type="curve" smooth="yes"/>
      <point x="270" y="397" type="line"/>
      <point x="257" y="410" type="line"/>
      <point x="202" y="410" type="line"/>
    </contour>
    <contour>
      <point x="19" y="397" type="line"/>
      <point x="19" y="-17" type="line"/>
      <point x="31" y="-26" type="line"/>
      <point x="87" y="-26" type="line" smooth="yes"/>
      <point x="96" y="-26"/>
      <point x="100" y="-23"/>
      <point x="100" y="-17" type="curve" smooth="yes"/>
      <point x="100" y="397" type="line"/>
      <point x="87" y="410" type="line"/>
      <point x="31" y="410" type="line"/>
    </contour>
  </outline>
</glyph>
<glyph name="uni0C01" format="1">
  <advance width="403"/>
  <unicode hex="0C01"/>
  <outline>
    <contour>
      <point x="354" y="18" type="line" name="hr00"/>
      <point x="325" y="12" type="line" smooth="yes"/>
      <point x="318" y="11"/>
      <point x="311" y="9"/>
      <point x="306" y="9" type="curve" smooth="yes"/>
      <point x="286" y="9" type="line" smooth="yes"/>
      <point x="227" y="9"/>
      <point x="182" y="29"/>
      <point x="151" y="68" type="curve" smooth="yes"/>
      <point x="123" y="102"/>
      <point x="109" y="147"/>
      <point x="109" y="203" type="curve" smooth="yes"/>
      <point x="109" y="258"/>
      <point x="130" y="304"/>
      <point x="173" y="341" type="curve" smooth="yes"/>
      <point x="216" y="378"/>
      <point x="263" y="401"/>
      <point x="316" y="397" type="curve" smooth="yes"/>
      <point x="354" y="394" type="line"/>
      <point x="354" y="421" type="line"/>
      <point x="315" y="429"/>
      <point x="282" y="433"/>
      <point x="256" y="433" type="curve" smooth="yes"/>
      <point x="183" y="433"/>
      <point x="123" y="411"/>
      <point x="79" y="363" type="curve" smooth="yes"/>
      <point x="38" y="320"/>
      <point x="19" y="266"/>
      <point x="19" y="203" type="curve" smooth="yes"/>
      <point x="19" y="137"/>
      <point x="42" y="83"/>
      <point x="89" y="40" type="curve" smooth="yes"/>
      <point x="136" y="-3"/>
      <point x="193" y="-27"/>
      <point x="260" y="-24" type="curve" smooth="yes"/>
      <point x="307" y="-22" type="line"/>
      <point x="354" y="-12" type="line"/>
    </contour>
  </outline>
</glyph>
<glyph name="uni0C02" format="1">
  <advance width="506"/>
  <unicode hex="0C02"/>
  <outline>
    <contour>
      <point x="416" y="192" type="curve" smooth="yes" name="hr00"/>
      <point x="416" y="166"/>
      <point x="407" y="142"/>
      <point x="391" y="121" type="curve" smooth="yes"/>
      <point x="375" y="100"/>
      <point x="354" y="86"/>
      <point x="324" y="78" type="curve"/>
      <point x="297" y="68"/>
      <point x="269" y="61"/>
      <point x="240" y="63" type="curve" smooth="yes"/>
      <point x="193" y="67" type="line"/>
      <point x="152" y="78" type="line" smooth="yes"/>
      <point x="91" y="94"/>
      <point x="60" y="135"/>
      <point x="60" y="192" type="curve" smooth="yes"/>
      <point x="60" y="233"/>
      <point x="77" y="264"/>
      <point x="110" y="283" type="curve"/>
      <point x="144" y="307"/>
      <point x="187" y="319"/>
      <point x="240" y="319" type="curve" smooth="yes"/>
      <point x="265" y="319"/>
      <point x="292" y="314"/>
      <point x="323" y="305" type="curve" smooth="yes"/>
      <point x="354" y="296"/>
      <point x="378" y="280"/>
      <point x="393" y="257" type="curve" smooth="yes"/>
      <point x="408" y="235"/>
      <point x="416" y="213"/>
    </contour>
    <contour>
      <point x="456" y="192" type="curve" smooth="yes"/>
      <point x="456" y="237"/>
      <point x="446" y="276"/>
      <point x="427" y="308" type="curve" smooth="yes"/>
      <point x="406" y="342"/>
      <point x="379" y="367"/>
      <point x="345" y="383" type="curve" smooth="yes"/>
      <point x="312" y="398"/>
      <point x="277" y="406"/>
      <point x="240" y="406" type="curve" smooth="yes"/>
      <point x="177" y="406"/>
      <point x="124" y="387"/>
      <point x="82" y="348" type="curve" smooth="yes"/>
      <point x="40" y="309"/>
      <point x="19" y="257"/>
      <point x="19" y="192" type="curve" smooth="yes"/>
      <point x="19" y="125"/>
      <point x="41" y="71"/>
      <point x="85" y="32" type="curve" smooth="yes"/>
      <point x="129" y="-7"/>
      <point x="181" y="-26"/>
      <point x="240" y="-26" type="curve" smooth="yes"/>
      <point x="277" y="-26"/>
      <point x="313" y="-18"/>
      <point x="347" y="-3" type="curve"/>
      <point x="384" y="18"/>
      <point x="410" y="44"/>
      <point x="427" y="73" type="curve" smooth="yes"/>
      <point x="446" y="107"/>
      <point x="456" y="147"/>
    </contour>
  </outline>
</glyph>
<glyph name="uni0C03" format="1">
  <advance width="260"/>
  <unicode hex="0C03"/>
  <outline>
    <contour>
      <point x="173" y="63" type="curve" name="hr00"/>
      <point x="164" y="27"/>
      <point x="138" y="9"/>
      <point x="118" y="9" type="curve"/>
      <point x="98" y="12"/>
      <point x="84" y="17"/>
      <point x="75" y="24" type="curve"/>
      <point x="65" y="35"/>
      <point x="60" y="48"/>
      <point x="60" y="64" type="curve" smooth="yes"/>
      <point x="60" y="101"/>
      <point x="87" y="123"/>
      <point x="119" y="123" type="curve"/>
      <point x="134" y="120"/>
      <point x="145" y="115"/>
      <point x="154" y="106" type="curve" smooth="yes"/>
      <point x="167" y="94"/>
      <point x="173" y="80"/>
    </contour>
    <contour>
      <point x="173" y="318" type="curve" smooth="yes"/>
      <point x="173" y="282"/>
      <point x="142" y="259"/>
      <point x="118" y="259" type="curve"/>
      <point x="100" y="262"/>
      <point x="87" y="267"/>
      <point x="78" y="276" type="curve" smooth="yes"/>
      <point x="66" y="289"/>
      <point x="60" y="303"/>
      <point x="60" y="318" type="curve" smooth="yes"/>
      <point x="60" y="333"/>
      <point x="66" y="347"/>
      <point x="78" y="358" type="curve" smooth="yes"/>
      <point x="90" y="368"/>
      <point x="104" y="373"/>
      <point x="119" y="373" type="curve" smooth="yes"/>
      <point x="150" y="373"/>
      <point x="173" y="353"/>
    </contour>
    <contour>
      <point x="211" y="64" type="curve" smooth="yes"/>
      <point x="211" y="94"/>
      <point x="203" y="117"/>
      <point x="186" y="132" type="curve" smooth="yes"/>
      <point x="168" y="149"/>
      <point x="145" y="158"/>
      <point x="118" y="158" type="curve" smooth="yes"/>
      <point x="58" y="158"/>
      <point x="19" y="116"/>
      <point x="19" y="64" type="curve" smooth="yes"/>
      <point x="19" y="36"/>
      <point x="29" y="14"/>
      <point x="48" y="-1" type="curve"/>
      <point x="65" y="-18"/>
      <point x="89" y="-26"/>
      <point x="119" y="-26" type="curve" smooth="yes"/>
      <point x="148" y="-26"/>
      <point x="165" y="-18"/>
      <point x="186" y="-3" type="curve"/>
      <point x="203" y="14"/>
      <point x="211" y="37"/>
    </contour>
    <contour>
      <point x="211" y="318" type="curve" smooth="yes"/>
      <point x="211" y="374"/>
      <point x="173" y="408"/>
      <point x="118" y="408" type="curve" smooth="yes"/>
      <point x="59" y="408"/>
      <point x="19" y="366"/>
      <point x="19" y="318" type="curve" smooth="yes"/>
      <point x="19" y="259"/>
      <point x="66" y="223"/>
      <point x="118" y="223" type="curve" smooth="yes"/>
      <point x="142" y="223"/>
      <point x="164" y="231"/>
      <point x="183" y="247" type="curve"/>
      <point x="202" y="267"/>
      <point x="211" y="291"/>
    </contour>
  </outline>
</glyph>
<glyph name="uni0C05" format="1">
  <advance width="623"/>
  <unicode hex="0C05"/>
  <outline>
    <contour>
      <point x="227" y="305" type="curve" smooth="yes" name="hr00"/>
      <point x="227" y="270"/>
      <point x="208" y="240"/>
      <point x="165" y="240" type="curve" smooth="yes"/>
      <point x="129" y="240"/>
      <point x="105" y="273"/>
      <point x="105" y="305" type="curve" smooth="yes"/>
      <point x="105" y="340"/>
      <point x="129" y="371"/>
      <point x="165" y="371" type="curve" smooth="yes"/>
      <point x="186" y="371"/>
      <point x="202" y="364"/>
      <point x="211" y="351" type="curve"/>
      <point x="222" y="341"/>
      <point x="227" y="326"/>
    </contour>
    <contour>
      <point x="573" y="226" type="curve" smooth="yes"/>
      <point x="571" y="305"/>
      <point x="542" y="366"/>
      <point x="505" y="390" type="curve" smooth="yes"/>
      <point x="444" y="430"/>
      <point x="367" y="382"/>
      <point x="370" y="322" type="curve" smooth="yes"/>
      <point x="371" y="288"/>
      <point x="387" y="255"/>
      <point x="422" y="223" type="curve"/>
      <point x="277" y="223" type="line"/>
      <point x="263" y="191" type="line"/>
      <point x="474" y="191" type="line"/>
      <point x="474" y="226" type="line"/>
      <point x="428" y="257"/>
      <point x="404" y="286"/>
      <point x="405" y="314" type="curve" smooth="yes"/>
      <point x="406" y="394"/>
      <point x="500" y="388"/>
      <point x="522" y="313" type="curve" smooth="yes"/>
      <point x="528" y="292"/>
      <point x="533" y="268"/>
      <point x="533" y="241" type="curve" smooth="yes"/>
      <point x="533" y="192"/>
      <point x="510" y="150"/>
      <point x="465" y="115" type="curve" smooth="yes"/>
      <point x="420" y="80"/>
      <point x="362" y="61"/>
      <point x="293" y="62" type="curve" smooth="yes"/>
      <point x="256" y="62"/>
      <point x="221" y="70"/>
      <point x="186" y="82" type="curve" smooth="yes"/>
      <point x="145" y="96"/>
      <point x="113" y="114"/>
      <point x="92" y="138" type="curve" smooth="yes"/>
      <point x="67" y="166"/>
      <point x="56" y="201"/>
      <point x="56" y="238" type="curve" smooth="yes"/>
      <point x="56" y="256"/>
      <point x="61" y="277"/>
      <point x="70" y="301" type="curve"/>
      <point x="70" y="276"/>
      <point x="79" y="255"/>
      <point x="98" y="237" type="curve"/>
      <point x="123" y="219"/>
      <point x="147" y="210"/>
      <point x="168" y="210" type="curve" smooth="yes"/>
      <point x="192" y="210"/>
      <point x="214" y="219"/>
      <point x="233" y="237" type="curve" smooth="yes"/>
      <point x="253" y="255"/>
      <point x="263" y="278"/>
      <point x="263" y="305" type="curve" smooth="yes"/>
      <point x="263" y="336"/>
      <point x="253" y="360"/>
      <point x="232" y="379" type="curve" smooth="yes"/>
      <point x="211" y="398"/>
      <point x="189" y="408"/>
      <point x="164" y="408" type="curve" smooth="yes"/>
      <point x="121" y="408"/>
      <point x="73" y="382"/>
      <point x="42" y="321" type="curve" smooth="yes"/>
      <point x="27" y="291"/>
      <point x="19" y="259"/>
      <point x="19" y="226" type="curve" smooth="yes"/>
      <point x="19" y="147"/>
      <point x="50" y="81"/>
      <point x="100" y="42" type="curve" smooth="yes"/>
      <point x="159" y="-4"/>
      <point x="226" y="-26"/>
      <point x="297" y="-26" type="curve" smooth="yes"/>
      <point x="441" y="-25"/>
      <point x="576" y="71"/>
    </contour>
  </outline>
</glyph>
<glyph name="uni0C06" format="1">
  <advance width="706"/>
  <unicode hex="0C06"/>
  <outline>
    <contour>
      <point x="227" y="305" type="curve" smooth="yes" name="hr00"/>
      <point x="227" y="270"/>
      <point x="208" y="240"/>
      <point x="168" y="240" type="curve" smooth="yes"/>
      <point x="131" y="240"/>
      <point x="107" y="273"/>
      <point x="107" y="305" type="curve" smooth="yes"/>
      <point x="107" y="340"/>
      <point x="131" y="371"/>
      <point x="168" y="371" type="curve" smooth="yes"/>
      <point x="187" y="371"/>
      <point x="202" y="364"/>
      <point x="211" y="351" type="curve"/>
      <point x="222" y="341"/>
      <point x="227" y="326"/>
    </contour>
    <contour>
      <point x="619" y="304" type="curve" smooth="yes"/>
      <point x="619" y="269"/>
      <point x="583" y="238"/>
      <point x="550" y="238" type="curve"/>
      <point x="510" y="257"/>
      <point x="490" y="284"/>
      <point x="490" y="317" type="curve" smooth="yes"/>
      <point x="490" y="349"/>
      <point x="517" y="380"/>
      <point x="558" y="373" type="curve" smooth="yes"/>
      <point x="601" y="366"/>
      <point x="619" y="329"/>
    </contour>
    <contour>
      <point x="656" y="303" type="curve" smooth="yes"/>
      <point x="656" y="329"/>
      <point x="645" y="353"/>
      <point x="623" y="375" type="curve" smooth="yes"/>
      <point x="601" y="397"/>
      <point x="575" y="408"/>
      <point x="545" y="408" type="curve" smooth="yes"/>
      <point x="528" y="408"/>
      <point x="512" y="403"/>
      <point x="495" y="394" type="curve"/>
      <point x="460" y="365"/>
      <point x="454" y="345"/>
      <point x="454" y="318" type="curve" smooth="yes"/>
      <point x="454" y="301"/>
      <point x="457" y="286"/>
      <point x="463" y="274" type="curve"/>
      <point x="490" y="238" type="line"/>
      <point x="307" y="238" type="line"/>
      <point x="291" y="205" type="line"/>
      <point x="541" y="205" type="line"/>
      <point x="570" y="186"/>
      <point x="577" y="179"/>
      <point x="577" y="158" type="curve" smooth="yes"/>
      <point x="577" y="128"/>
      <point x="550" y="105"/>
      <point x="495" y="88" type="curve" smooth="yes"/>
      <point x="441" y="72"/>
      <point x="386" y="64"/>
      <point x="329" y="64" type="curve" smooth="yes"/>
      <point x="277" y="64"/>
      <point x="218" y="77"/>
      <point x="198" y="85" type="curve"/>
      <point x="157" y="97"/>
      <point x="122" y="113"/>
      <point x="96" y="137" type="curve" smooth="yes"/>
      <point x="68" y="163"/>
      <point x="55" y="196"/>
      <point x="55" y="232" type="curve" smooth="yes"/>
      <point x="55" y="253"/>
      <point x="59" y="271"/>
      <point x="65" y="287" type="curve" smooth="yes"/>
      <point x="72" y="305" type="line"/>
      <point x="72" y="278"/>
      <point x="80" y="257"/>
      <point x="97" y="240" type="curve"/>
      <point x="118" y="223"/>
      <point x="141" y="215"/>
      <point x="168" y="215" type="curve" smooth="yes"/>
      <point x="204" y="215"/>
      <point x="213" y="224"/>
      <point x="224" y="231" type="curve" smooth="yes"/>
      <point x="230" y="235"/>
      <point x="239" y="244"/>
      <point x="250" y="258" type="curve" smooth="yes"/>
      <point x="259" y="271"/>
      <point x="263" y="289"/>
      <point x="263" y="312" type="curve" smooth="yes"/>
      <point x="263" y="371"/>
      <point x="215" y="408"/>
      <point x="163" y="408" type="curve" smooth="yes"/>
      <point x="125" y="408"/>
      <point x="91" y="392"/>
      <point x="62" y="360" type="curve" smooth="yes"/>
      <point x="33" y="329"/>
      <point x="19" y="284"/>
      <point x="19" y="226" type="curve" smooth="yes"/>
      <point x="19" y="146"/>
      <point x="49" y="84"/>
      <point x="108" y="40" type="curve" smooth="yes"/>
      <point x="168" y="-4"/>
      <point x="242" y="-26"/>
      <point x="329" y="-26" type="curve" smooth="yes"/>
      <point x="428" y="-26"/>
      <point x="504" y="-10"/>
      <point x="555" y="21" type="curve" smooth="yes"/>
      <point x="606" y="52"/>
      <point x="632" y="91"/>
      <point x="632" y="136" type="curve" smooth="yes"/>
      <point x="632" y="165"/>
      <point x="619" y="188"/>
      <point x="593" y="206" type="curve"/>
      <point x="628" y="221"/>
      <point x="656" y="255"/>
    </contour>
  </outline>
</glyph>
<glyph name="uni0C07" format="1">
  <advance width="521"/>
  <unicode hex="0C07"/>
  <outline>
    <contour>
      <point x="346" y="79" type="curve" name="hr00"/>
      <point x="313" y="62"/>
      <point x="269" y="53"/>
      <point x="213" y="53" type="curve" smooth="yes"/>
      <point x="182" y="53"/>
      <point x="169" y="57"/>
      <point x="148" y="68" type="curve" smooth="yes"/>
      <point x="129" y="79"/>
      <point x="119" y="91"/>
      <point x="119" y="104" type="curve" smooth="yes"/>
      <point x="120" y="136"/>
      <point x="161" y="155"/>
      <point x="213" y="155" type="curve" smooth="yes"/>
      <point x="268" y="155"/>
      <point x="313" y="130"/>
    </contour>
    <contour>
      <point x="410" y="53" type="curve"/>
      <point x="449" y="92"/>
      <point x="469" y="141"/>
      <point x="470" y="198" type="curve" smooth="yes"/>
      <point x="472" y="256"/>
      <point x="467" y="300"/>
      <point x="454" y="331" type="curve" smooth="yes"/>
      <point x="442" y="362"/>
      <point x="426" y="383"/>
      <point x="406" y="394" type="curve"/>
      <point x="387" y="408"/>
      <point x="367" y="415"/>
      <point x="345" y="415" type="curve" smooth="yes"/>
      <point x="304" y="415"/>
      <point x="269" y="395"/>
      <point x="240" y="356" type="curve"/>
      <point x="213" y="392"/>
      <point x="183" y="414"/>
      <point x="140" y="414" type="curve" smooth="yes"/>
      <point x="75" y="414"/>
      <point x="19" y="351"/>
      <point x="19" y="254" type="curve"/>
      <point x="47" y="254" type="line"/>
      <point x="47" y="297"/>
      <point x="89" y="328"/>
      <point x="133" y="328" type="curve" smooth="yes"/>
      <point x="149" y="328"/>
      <point x="164" y="325"/>
      <point x="179" y="319" type="curve"/>
      <point x="200" y="308" type="line"/>
      <point x="217" y="293"/>
      <point x="225" y="273"/>
      <point x="225" y="247" type="curve"/>
      <point x="255" y="247" type="line"/>
      <point x="255" y="299"/>
      <point x="293" y="328"/>
      <point x="338" y="328" type="curve" smooth="yes"/>
      <point x="398" y="328"/>
      <point x="429" y="301"/>
      <point x="429" y="212" type="curve"/>
      <point x="422" y="153"/>
      <point x="405" y="116"/>
      <point x="378" y="101" type="curve"/>
      <point x="338" y="150"/>
      <point x="284" y="182"/>
      <point x="213" y="182" type="curve" smooth="yes"/>
      <point x="166" y="182"/>
      <point x="127" y="173"/>
      <point x="97" y="154" type="curve"/>
      <point x="72" y="133"/>
      <point x="60" y="108"/>
      <point x="60" y="79" type="curve" smooth="yes"/>
      <point x="60" y="50"/>
      <point x="72" y="26"/>
      <point x="97" y="5" type="curve"/>
      <point x="130" y="-16"/>
      <point x="167" y="-26"/>
      <point x="210" y="-26" type="curve" smooth="yes"/>
      <point x="285" y="-26"/>
      <point x="342" y="-9"/>
      <point x="383" y="24" type="curve"/>
      <point x="378" y="-19" type="line"/>
      <point x="366" y="-79" type="line"/>
      <point x="348" y="-158" type="line"/>
      <point x="350" y="-173"/>
      <point x="356" y="-183"/>
      <point x="365" y="-187" type="curve"/>
      <point x="374" y="-195"/>
      <point x="386" y="-199"/>
      <point x="402" y="-199" type="curve" smooth="yes"/>
      <point x="438" y="-199"/>
      <point x="453" y="-179"/>
      <point x="452" y="-154" type="curve" smooth="yes"/>
      <point x="450" y="-95" type="line"/>
      <point x="442" y="-40" type="line" smooth="yes"/>
      <point x="437" y="-5"/>
      <point x="425" y="26"/>
    </contour>
  </outline>
</glyph>
<glyph name="uni0C08" format="1">
  <advance width="948"/>
  <unicode hex="0C08"/>
  <outline>
    <contour>
      <point x="509" y="186" type="line" name="hr00"/>
      <point x="500" y="145"/>
      <point x="483" y="114"/>
      <point x="456" y="94" type="curve"/>
      <point x="428" y="68"/>
      <point x="389" y="55"/>
      <point x="338" y="55" type="curve" smooth="yes"/>
      <point x="292" y="55"/>
      <point x="251" y="69"/>
      <point x="216" y="96" type="curve" smooth="yes"/>
      <point x="181" y="124"/>
      <point x="164" y="154"/>
      <point x="164" y="186" type="curve"/>
    </contour>
    <contour>
      <point x="166" y="217" type="line"/>
      <point x="166" y="260"/>
      <point x="181" y="297"/>
      <point x="212" y="327" type="curve" smooth="yes"/>
      <point x="243" y="358"/>
      <point x="285" y="373"/>
      <point x="338" y="373" type="curve" smooth="yes"/>
      <point x="392" y="373"/>
      <point x="434" y="357"/>
      <point x="464" y="326" type="curve" smooth="yes"/>
      <point x="495" y="295"/>
      <point x="510" y="258"/>
      <point x="510" y="217" type="curve"/>
    </contour>
    <contour>
      <point x="863" y="133" type="curve" smooth="yes"/>
      <point x="863" y="96"/>
      <point x="840" y="78"/>
      <point x="807" y="78" type="curve" smooth="yes"/>
      <point x="790" y="78"/>
      <point x="776" y="83"/>
      <point x="763" y="92" type="curve"/>
      <point x="752" y="107"/>
      <point x="746" y="120"/>
      <point x="746" y="133" type="curve" smooth="yes"/>
      <point x="746" y="151"/>
      <point x="751" y="164"/>
      <point x="761" y="173" type="curve" smooth="yes"/>
      <point x="772" y="182"/>
      <point x="787" y="186"/>
      <point x="805" y="186" type="curve" smooth="yes"/>
      <point x="844" y="186"/>
      <point x="863" y="168"/>
    </contour>
    <contour>
      <point x="900" y="106" type="curve" smooth="yes"/>
      <point x="900" y="124"/>
      <point x="895" y="145"/>
      <point x="886" y="168" type="curve"/>
      <point x="872" y="191"/>
      <point x="859" y="205"/>
      <point x="846" y="208" type="curve"/>
      <point x="880" y="236"/>
      <point x="897" y="263"/>
      <point x="897" y="290" type="curve" smooth="yes"/>
      <point x="897" y="338"/>
      <point x="851" y="371"/>
      <point x="795" y="371" type="curve" smooth="yes"/>
      <point x="723" y="371"/>
      <point x="684" y="336"/>
      <point x="684" y="259" type="curve"/>
      <point x="716" y="259" type="line"/>
      <point x="728" y="307"/>
      <point x="747" y="314"/>
      <point x="774" y="314" type="curve" smooth="yes"/>
      <point x="821" y="314"/>
      <point x="838" y="297"/>
      <point x="838" y="269" type="curve"/>
      <point x="833" y="238"/>
      <point x="815" y="219"/>
      <point x="792" y="219" type="curve" smooth="yes"/>
      <point x="557" y="219" type="line"/>
      <point x="550" y="275"/>
      <point x="529" y="319"/>
      <point x="492" y="350" type="curve" smooth="yes"/>
      <point x="455" y="381"/>
      <point x="414" y="400"/>
      <point x="368" y="406" type="curve"/>
      <point x="402" y="424" type="line"/>
      <point x="551" y="545" type="line"/>
      <point x="506" y="582" type="line"/>
      <point x="378" y="454" type="line" smooth="yes"/>
      <point x="362" y="438"/>
      <point x="348" y="431"/>
      <point x="340" y="431" type="curve" smooth="yes"/>
      <point x="329" y="431"/>
      <point x="317" y="446"/>
      <point x="302" y="474" type="curve" smooth="yes"/>
      <point x="284" y="508" type="line"/>
      <point x="275" y="527" type="line"/>
      <point x="262" y="536"/>
      <point x="248" y="541"/>
      <point x="232" y="541" type="curve" smooth="yes"/>
      <point x="187" y="541"/>
      <point x="164" y="521"/>
      <point x="164" y="481" type="curve"/>
      <point x="167" y="452"/>
      <point x="210" y="413"/>
      <point x="278" y="400" type="curve"/>
      <point x="233" y="385"/>
      <point x="197" y="364"/>
      <point x="170" y="336" type="curve" smooth="yes"/>
      <point x="139" y="302"/>
      <point x="124" y="263"/>
      <point x="124" y="219" type="curve"/>
      <point x="19" y="219" type="line"/>
      <point x="19" y="186" type="line"/>
      <point x="123" y="186" type="line"/>
      <point x="123" y="140"/>
      <point x="134" y="103"/>
      <point x="154" y="72" type="curve" smooth="yes"/>
      <point x="200" y="0"/>
      <point x="263" y="-26"/>
      <point x="340" y="-26" type="curve" smooth="yes"/>
      <point x="379" y="-26"/>
      <point x="415" y="-19"/>
      <point x="446" y="-3" type="curve" smooth="yes"/>
      <point x="483" y="16"/>
      <point x="511" y="42"/>
      <point x="529" y="73" type="curve" smooth="yes"/>
      <point x="553" y="114"/>
      <point x="559" y="142"/>
      <point x="559" y="186" type="curve"/>
      <point x="737" y="186" type="line"/>
      <point x="713" y="166"/>
      <point x="701" y="139"/>
      <point x="701" y="106" type="curve" smooth="yes"/>
      <point x="701" y="80"/>
      <point x="710" y="54"/>
      <point x="729" y="29" type="curve"/>
      <point x="750" y="6"/>
      <point x="777" y="-6"/>
      <point x="809" y="-6" type="curve" smooth="yes"/>
      <point x="866" y="-6"/>
      <point x="900" y="43"/>
    </contour>
  </outline>
</glyph>
<glyph name="uni0C09" format="1">
  <advance width="611"/>
  <unicode hex="0C09"/>
  <outline>
    <contour>
      <point x="523" y="88" type="curve" name="hr00"/>
      <point x="518" y="56"/>
      <point x="498" y="49"/>
      <point x="469" y="49" type="curve" smooth="yes"/>
      <point x="438" y="50"/>
      <point x="415" y="63"/>
      <point x="415" y="87" type="curve" smooth="yes"/>
      <point x="415" y="113"/>
      <point x="433" y="126"/>
      <point x="469" y="126" type="curve" smooth="yes"/>
      <point x="505" y="126"/>
      <point x="523" y="113"/>
    </contour>
    <contour>
      <point x="561" y="85" type="curve" smooth="yes"/>
      <point x="561" y="137"/>
      <point x="531" y="163"/>
      <point x="470" y="163" type="curve" smooth="yes"/>
      <point x="409" y="163"/>
      <point x="379" y="139"/>
      <point x="379" y="91" type="curve"/>
      <point x="382" y="74"/>
      <point x="388" y="60"/>
      <point x="397" y="49" type="curve"/>
      <point x="353" y="62"/>
      <point x="324" y="85"/>
      <point x="311" y="119" type="curve"/>
      <point x="273" y="119" type="line"/>
      <point x="250" y="63"/>
      <point x="223" y="49"/>
      <point x="174" y="49" type="curve" smooth="yes"/>
      <point x="140" y="49"/>
      <point x="114" y="64"/>
      <point x="96" y="95" type="curve" smooth="yes"/>
      <point x="78" y="126"/>
      <point x="69" y="163"/>
      <point x="69" y="205" type="curve"/>
      <point x="561" y="205" type="line"/>
      <point x="561" y="238" type="line"/>
      <point x="69" y="238" type="line"/>
      <point x="69" y="269"/>
      <point x="91" y="299"/>
      <point x="134" y="328" type="curve" smooth="yes"/>
      <point x="178" y="357"/>
      <point x="228" y="371"/>
      <point x="284" y="371" type="curve" smooth="yes"/>
      <point x="331" y="371"/>
      <point x="370" y="366"/>
      <point x="402" y="354" type="curve" smooth="yes"/>
      <point x="430" y="343"/>
      <point x="455" y="326"/>
      <point x="481" y="305" type="curve"/>
      <point x="516" y="342" type="line"/>
      <point x="481" y="365"/>
      <point x="450" y="381"/>
      <point x="421" y="389" type="curve" smooth="yes"/>
      <point x="392" y="397"/>
      <point x="356" y="401"/>
      <point x="313" y="401" type="curve"/>
      <point x="313" y="416"/>
      <point x="320" y="444"/>
      <point x="336" y="486" type="curve" smooth="yes"/>
      <point x="342" y="503"/>
      <point x="346" y="517"/>
      <point x="346" y="528" type="curve" smooth="yes"/>
      <point x="346" y="571"/>
      <point x="330" y="593"/>
      <point x="297" y="592" type="curve" smooth="yes"/>
      <point x="264" y="591"/>
      <point x="246" y="559"/>
      <point x="246" y="528" type="curve" smooth="yes"/>
      <point x="246" y="515"/>
      <point x="252" y="494"/>
      <point x="263" y="467" type="curve" smooth="yes"/>
      <point x="275" y="440"/>
      <point x="281" y="418"/>
      <point x="281" y="401" type="curve"/>
      <point x="204" y="401"/>
      <point x="141" y="380"/>
      <point x="92" y="337" type="curve" smooth="yes"/>
      <point x="43" y="294"/>
      <point x="19" y="247"/>
      <point x="19" y="195" type="curve" smooth="yes"/>
      <point x="19" y="134"/>
      <point x="32" y="81"/>
      <point x="58" y="38" type="curve" smooth="yes"/>
      <point x="84" y="-5"/>
      <point x="119" y="-26"/>
      <point x="163" y="-26" type="curve" smooth="yes"/>
      <point x="180" y="-26"/>
      <point x="194" y="-25"/>
      <point x="205" y="-23" type="curve"/>
      <point x="237" y="-10" type="line"/>
      <point x="258" y="5"/>
      <point x="276" y="23"/>
      <point x="293" y="44" type="curve"/>
      <point x="329" y="-3"/>
      <point x="375" y="-26"/>
      <point x="432" y="-26" type="curve" smooth="yes"/>
      <point x="474" y="-26"/>
      <point x="507" y="-17"/>
      <point x="528" y="3" type="curve" smooth="yes"/>
      <point x="551" y="24"/>
      <point x="561" y="52"/>
    </contour>
  </outline>
</glyph>
<glyph name="uni0C0A" format="1">
  <advance width="855"/>
  <unicode hex="0C0A"/>
  <outline>
    <contour>
      <point x="519" y="87" type="curve" smooth="yes" name="hr00"/>
      <point x="519" y="62"/>
      <point x="502" y="49"/>
      <point x="468" y="49" type="curve" smooth="yes"/>
      <point x="431" y="49"/>
      <point x="413" y="62"/>
      <point x="413" y="87" type="curve" smooth="yes"/>
      <point x="413" y="114"/>
      <point x="431" y="127"/>
      <point x="466" y="127" type="curve" smooth="yes"/>
      <point x="501" y="127"/>
      <point x="519" y="114"/>
    </contour>
    <contour>
      <point x="770" y="155" type="curve"/>
      <point x="762" y="116"/>
      <point x="746" y="100"/>
      <point x="709" y="100" type="curve" smooth="yes"/>
      <point x="674" y="100"/>
      <point x="651" y="124"/>
      <point x="651" y="155" type="curve" smooth="yes"/>
      <point x="651" y="190"/>
      <point x="674" y="209"/>
      <point x="709" y="209" type="curve" smooth="yes"/>
      <point x="750" y="209"/>
      <point x="770" y="191"/>
    </contour>
    <contour>
      <point x="806" y="136" type="curve" smooth="yes"/>
      <point x="806" y="160"/>
      <point x="802" y="180"/>
      <point x="793" y="195" type="curve"/>
      <point x="786" y="210"/>
      <point x="772" y="222"/>
      <point x="751" y="231" type="curve"/>
      <point x="786" y="258"/>
      <point x="804" y="285"/>
      <point x="804" y="312" type="curve" smooth="yes"/>
      <point x="804" y="331"/>
      <point x="790" y="349"/>
      <point x="762" y="366" type="curve" smooth="yes"/>
      <point x="734" y="383"/>
      <point x="707" y="390"/>
      <point x="682" y="388" type="curve" smooth="yes"/>
      <point x="633" y="385"/>
      <point x="588" y="357"/>
      <point x="588" y="282" type="curve"/>
      <point x="622" y="282" type="line"/>
      <point x="622" y="317"/>
      <point x="641" y="335"/>
      <point x="678" y="335" type="curve" smooth="yes"/>
      <point x="725" y="335"/>
      <point x="745" y="315"/>
      <point x="745" y="292" type="curve"/>
      <point x="740" y="260"/>
      <point x="720" y="238"/>
      <point x="695" y="238" type="curve" smooth="yes"/>
      <point x="84" y="238" type="line"/>
      <point x="84" y="267"/>
      <point x="105" y="295"/>
      <point x="147" y="322" type="curve" smooth="yes"/>
      <point x="190" y="349"/>
      <point x="235" y="365"/>
      <point x="283" y="362" type="curve" smooth="yes"/>
      <point x="342" y="358" type="line"/>
      <point x="395" y="346" type="line" smooth="yes"/>
      <point x="435" y="337"/>
      <point x="463" y="321"/>
      <point x="481" y="305" type="curve"/>
      <point x="516" y="342" type="line"/>
      <point x="467" y="369"/>
      <point x="421" y="387"/>
      <point x="378" y="396" type="curve"/>
      <point x="378" y="417"/>
      <point x="383" y="433"/>
      <point x="390" y="460" type="curve" smooth="yes"/>
      <point x="402" y="508" type="line"/>
      <point x="405" y="527" type="line"/>
      <point x="405" y="570"/>
      <point x="390" y="592"/>
      <point x="359" y="592" type="curve" smooth="yes"/>
      <point x="334" y="592"/>
      <point x="315" y="564"/>
      <point x="315" y="528" type="curve" smooth="yes"/>
      <point x="315" y="518"/>
      <point x="318" y="503"/>
      <point x="324" y="482" type="curve" smooth="yes"/>
      <point x="337" y="440"/>
      <point x="343" y="412"/>
      <point x="343" y="399" type="curve"/>
      <point x="292" y="404" type="line"/>
      <point x="257" y="401" type="line"/>
      <point x="219" y="394" type="line"/>
      <point x="219" y="413"/>
      <point x="224" y="435"/>
      <point x="231" y="460" type="curve" smooth="yes"/>
      <point x="245" y="508" type="line"/>
      <point x="250" y="527" type="line"/>
      <point x="250" y="563"/>
      <point x="226" y="592"/>
      <point x="201" y="592" type="curve"/>
      <point x="172" y="587"/>
      <point x="159" y="563"/>
      <point x="159" y="527" type="curve"/>
      <point x="166" y="486" type="line"/>
      <point x="181" y="446"/>
      <point x="188" y="412"/>
      <point x="188" y="383" type="curve"/>
      <point x="135" y="365"/>
      <point x="93" y="333"/>
      <point x="60" y="288" type="curve" smooth="yes"/>
      <point x="33" y="250"/>
      <point x="19" y="209"/>
      <point x="19" y="164" type="curve" smooth="yes"/>
      <point x="19" y="109"/>
      <point x="30" y="64"/>
      <point x="56" y="28" type="curve" smooth="yes"/>
      <point x="82" y="-8"/>
      <point x="118" y="-26"/>
      <point x="163" y="-26" type="curve" smooth="yes"/>
      <point x="202" y="-26"/>
      <point x="229" y="-13"/>
      <point x="241" y="-8" type="curve"/>
      <point x="262" y="7"/>
      <point x="279" y="25"/>
      <point x="293" y="44" type="curve"/>
      <point x="329" y="-3"/>
      <point x="375" y="-26"/>
      <point x="432" y="-26" type="curve" smooth="yes"/>
      <point x="474" y="-26"/>
      <point x="507" y="-17"/>
      <point x="528" y="3" type="curve" smooth="yes"/>
      <point x="551" y="24"/>
      <point x="561" y="52"/>
      <point x="561" y="85" type="curve" smooth="yes"/>
      <point x="561" y="111"/>
      <point x="553" y="131"/>
      <point x="536" y="144" type="curve" smooth="yes"/>
      <point x="518" y="157"/>
      <point x="495" y="164"/>
      <point x="468" y="164" type="curve" smooth="yes"/>
      <point x="445" y="164"/>
      <point x="425" y="156"/>
      <point x="409" y="139" type="curve" smooth="yes"/>
      <point x="394" y="122"/>
      <point x="386" y="106"/>
      <point x="386" y="91" type="curve" smooth="yes"/>
      <point x="387" y="72"/>
      <point x="390" y="58"/>
      <point x="393" y="49" type="curve"/>
      <point x="352" y="58"/>
      <point x="324" y="82"/>
      <point x="311" y="119" type="curve"/>
      <point x="273" y="119" type="line"/>
      <point x="250" y="63"/>
      <point x="223" y="49"/>
      <point x="174" y="49" type="curve" smooth="yes"/>
      <point x="141" y="49"/>
      <point x="115" y="60"/>
      <point x="96" y="81" type="curve"/>
      <point x="78" y="106"/>
      <point x="69" y="137"/>
      <point x="69" y="172" type="curve"/>
      <point x="73" y="209" type="line"/>
      <point x="640" y="209" type="line"/>
      <point x="616" y="188"/>
      <point x="604" y="161"/>
      <point x="604" y="127" type="curve" smooth="yes"/>
      <point x="604" y="67"/>
      <point x="647" y="17"/>
      <point x="702" y="17" type="curve" smooth="yes"/>
      <point x="778" y="17"/>
      <point x="806" y="57"/>
    </contour>
  </outline>
</glyph>
<glyph name="uni0C0B" format="1">
  <advance width="1244"/>
  <unicode hex="0C0B"/>
  <outline>
    <contour>
      <point x="543" y="72" type="line" name="hr00"/>
      <point x="566" y="42"/>
      <point x="585" y="21"/>
      <point x="600" y="10" type="curve" smooth="yes"/>
      <point x="637" y="-15"/>
      <point x="675" y="-28"/>
      <point x="713" y="-28" type="curve" smooth="yes"/>
      <point x="756" y="-28"/>
      <point x="793" y="-11"/>
      <point x="823" y="24" type="curve" smooth="yes"/>
      <point x="839" y="44"/>
      <point x="850" y="68"/>
      <point x="855" y="95" type="curve"/>
      <point x="873" y="72" type="line" smooth="yes"/>
      <point x="896" y="43"/>
      <point x="912" y="21"/>
      <point x="928" y="10" type="curve" smooth="yes"/>
      <point x="967" y="-15"/>
      <point x="1003" y="-28"/>
      <point x="1038" y="-28" type="curve" smooth="yes"/>
      <point x="1126" y="-28"/>
      <point x="1195" y="44"/>
      <point x="1195" y="181" type="curve" smooth="yes"/>
      <point x="1195" y="212"/>
      <point x="1185" y="247"/>
      <point x="1165" y="288" type="curve"/>
      <point x="1134" y="338" type="line" smooth="yes"/>
      <point x="1127" y="349"/>
      <point x="1115" y="362"/>
      <point x="1098" y="376" type="curve" smooth="yes"/>
      <point x="1070" y="397"/>
      <point x="1045" y="408"/>
      <point x="1023" y="408" type="curve" smooth="yes"/>
      <point x="1002" y="408"/>
      <point x="987" y="403"/>
      <point x="977" y="394" type="curve"/>
      <point x="966" y="386"/>
      <point x="960" y="375"/>
      <point x="960" y="360" type="curve"/>
      <point x="967" y="327"/>
      <point x="986" y="305"/>
      <point x="1023" y="305" type="curve" smooth="yes"/>
      <point x="1111" y="305"/>
      <point x="1155" y="265"/>
      <point x="1155" y="186" type="curve" smooth="yes"/>
      <point x="1155" y="113"/>
      <point x="1113" y="67"/>
      <point x="1025" y="67" type="curve"/>
      <point x="977" y="72" type="line"/>
      <point x="931" y="87" type="line"/>
      <point x="882" y="112" type="line"/>
      <point x="864" y="127" type="line"/>
      <point x="866" y="181" type="line" smooth="yes"/>
      <point x="867" y="212"/>
      <point x="857" y="247"/>
      <point x="838" y="288" type="curve"/>
      <point x="807" y="338" type="line" smooth="yes"/>
      <point x="800" y="350"/>
      <point x="787" y="362"/>
      <point x="772" y="376" type="curve"/>
      <point x="742" y="397"/>
      <point x="716" y="408"/>
      <point x="695" y="408" type="curve" smooth="yes"/>
      <point x="674" y="408"/>
      <point x="659" y="403"/>
      <point x="648" y="394" type="curve" smooth="yes"/>
      <point x="637" y="386"/>
      <point x="632" y="375"/>
      <point x="632" y="360" type="curve"/>
      <point x="640" y="327"/>
      <point x="656" y="305"/>
      <point x="695" y="305" type="curve" smooth="yes"/>
      <point x="784" y="305"/>
      <point x="828" y="265"/>
      <point x="828" y="186" type="curve" smooth="yes"/>
      <point x="828" y="113"/>
      <point x="784" y="67"/>
      <point x="700" y="67" type="curve"/>
      <point x="650" y="72" type="line"/>
      <point x="602" y="87" type="line"/>
      <point x="556" y="112" type="line"/>
      <point x="534" y="127" type="line"/>
      <point x="536" y="174" type="line"/>
      <point x="533" y="218" type="line"/>
      <point x="527" y="267" type="line"/>
      <point x="506" y="323" type="line"/>
      <point x="481" y="367" type="line"/>
      <point x="458" y="396"/>
      <point x="431" y="410"/>
      <point x="401" y="410" type="curve"/>
      <point x="366" y="403"/>
      <point x="351" y="391"/>
      <point x="351" y="371" type="curve" smooth="yes"/>
      <point x="351" y="346"/>
      <point x="366" y="328"/>
      <point x="396" y="318" type="curve"/>
      <point x="437" y="299"/>
      <point x="460" y="277"/>
      <point x="485" y="238" type="curve" smooth="yes"/>
      <point x="498" y="219"/>
      <point x="505" y="200"/>
      <point x="505" y="183" type="curve" smooth="yes"/>
      <point x="505" y="95"/>
      <point x="474" y="62"/>
      <point x="401" y="62" type="curve" smooth="yes"/>
      <point x="341" y="62"/>
      <point x="306" y="89"/>
      <point x="297" y="142" type="curve"/>
      <point x="261" y="142" type="line"/>
      <point x="254" y="108"/>
      <point x="243" y="88"/>
      <point x="227" y="81" type="curve"/>
      <point x="210" y="68"/>
      <point x="186" y="62"/>
      <point x="154" y="62" type="curve" smooth="yes"/>
      <point x="139" y="62"/>
      <point x="123" y="65"/>
      <point x="106" y="72" type="curve"/>
      <point x="93" y="81"/>
      <point x="87" y="91"/>
      <point x="87" y="100" type="curve"/>
      <point x="90" y="112"/>
      <point x="96" y="122"/>
      <point x="104" y="131" type="curve"/>
      <point x="166" y="182" type="line" smooth="yes"/>
      <point x="231" y="236"/>
      <point x="265" y="260"/>
      <point x="265" y="303" type="curve" smooth="yes"/>
      <point x="265" y="326"/>
      <point x="259" y="345"/>
      <point x="248" y="360" type="curve"/>
      <point x="211" y="401"/>
      <point x="184" y="408"/>
      <point x="163" y="410" type="curve" smooth="yes"/>
      <point x="138" y="412" type="line" smooth="yes"/>
      <point x="107" y="414"/>
      <point x="79" y="403"/>
      <point x="55" y="384" type="curve" smooth="yes"/>
      <point x="31" y="365"/>
      <point x="19" y="339"/>
      <point x="19" y="305" type="curve"/>
      <point x="22" y="289"/>
      <point x="26" y="278"/>
      <point x="31" y="272" type="curve"/>
      <point x="42" y="263"/>
      <point x="53" y="258"/>
      <point x="63" y="258" type="curve"/>
      <point x="90" y="265"/>
      <point x="105" y="276"/>
      <point x="105" y="303" type="curve"/>
      <point x="100" y="313" type="line"/>
      <point x="98" y="332" type="line"/>
      <point x="102" y="346"/>
      <point x="109" y="355"/>
      <point x="119" y="360" type="curve"/>
      <point x="129" y="367"/>
      <point x="141" y="371"/>
      <point x="154" y="371" type="curve" smooth="yes"/>
      <point x="197" y="371"/>
      <point x="225" y="350"/>
      <point x="225" y="314" type="curve" smooth="yes"/>
      <point x="225" y="290"/>
      <point x="217" y="270"/>
      <point x="201" y="254" type="curve" smooth="yes"/>
      <point x="170" y="224" type="line"/>
      <point x="127" y="194" type="line"/>
      <point x="84" y="160" type="line" smooth="yes"/>
      <point x="72" y="151"/>
      <point x="63" y="142"/>
      <point x="56" y="133" type="curve"/>
      <point x="39" y="116"/>
      <point x="31" y="98"/>
      <point x="31" y="78" type="curve" smooth="yes"/>
      <point x="31" y="45"/>
      <point x="42" y="18"/>
      <point x="65" y="0" type="curve" smooth="yes"/>
      <point x="88" y="-18"/>
      <point x="118" y="-26"/>
      <point x="154" y="-26" type="curve" smooth="yes"/>
      <point x="186" y="-26"/>
      <point x="211" y="-20"/>
      <point x="228" y="-8" type="curve" smooth="yes"/>
      <point x="247" y="7"/>
      <point x="264" y="27"/>
      <point x="278" y="54" type="curve"/>
      <point x="297" y="26"/>
      <point x="314" y="6"/>
      <point x="329" y="-7" type="curve" smooth="yes"/>
      <point x="344" y="-20"/>
      <point x="368" y="-26"/>
      <point x="401" y="-26" type="curve" smooth="yes"/>
      <point x="440" y="-26"/>
      <point x="472" y="-12"/>
      <point x="498" y="17" type="curve" smooth="yes"/>
      <point x="514" y="36"/>
      <point x="525" y="62"/>
      <point x="531" y="95" type="curve"/>
    </contour>
  </outline>
</glyph>
<glyph name="uni0C0C" format="1">
  <advance width="708"/>
  <unicode hex="0C0C"/>
  <outline>
    <contour>
      <point x="637" y="228" type="curve" smooth="yes" name="hr00"/>
      <point x="637" y="327"/>
      <point x="630" y="388"/>
      <point x="615" y="411" type="curve"/>
      <point x="601" y="428" type="line"/>
      <point x="595" y="433"/>
      <point x="588" y="435"/>
      <point x="580" y="435" type="curve" smooth="yes"/>
      <point x="559" y="435"/>
      <point x="549" y="426"/>
      <point x="549" y="409" type="curve"/>
      <point x="583" y="307" type="line" smooth="yes"/>
      <point x="593" y="278"/>
      <point x="600" y="257"/>
      <point x="600" y="242" type="curve" smooth="yes"/>
      <point x="600" y="101"/>
      <point x="541" y="22"/>
      <point x="453" y="22" type="curve" smooth="yes"/>
      <point x="372" y="22"/>
      <point x="320" y="63"/>
      <point x="320" y="127" type="curve" smooth="yes"/>
      <point x="320" y="147"/>
      <point x="359" y="206"/>
      <point x="438" y="303" type="curve" smooth="yes"/>
      <point x="477" y="352"/>
      <point x="497" y="394"/>
      <point x="497" y="428" type="curve" smooth="yes"/>
      <point x="497" y="528"/>
      <point x="448" y="589"/>
      <point x="377" y="589" type="curve" smooth="yes"/>
      <point x="343" y="589"/>
      <point x="317" y="577"/>
      <point x="299" y="553" type="curve"/>
      <point x="277" y="516" type="line" smooth="yes"/>
      <point x="261" y="488"/>
      <point x="258" y="478"/>
      <point x="254" y="462" type="curve"/>
      <point x="237" y="508"/>
      <point x="220" y="537"/>
      <point x="208" y="553" type="curve" smooth="yes"/>
      <point x="189" y="576"/>
      <point x="165" y="589"/>
      <point x="133" y="589" type="curve" smooth="yes"/>
      <point x="62" y="589"/>
      <point x="19" y="523"/>
      <point x="19" y="412" type="curve" smooth="yes"/>
      <point x="19" y="371"/>
      <point x="34" y="328"/>
      <point x="63" y="285" type="curve"/>
      <point x="92" y="285" type="line"/>
      <point x="75" y="322"/>
      <point x="67" y="359"/>
      <point x="67" y="395" type="curve" smooth="yes"/>
      <point x="67" y="463"/>
      <point x="97" y="504"/>
      <point x="136" y="504" type="curve" smooth="yes"/>
      <point x="196" y="504"/>
      <point x="240" y="437"/>
      <point x="240" y="326" type="curve"/>
      <point x="274" y="326" type="line"/>
      <point x="274" y="381"/>
      <point x="283" y="423"/>
      <point x="301" y="452" type="curve" smooth="yes"/>
      <point x="320" y="481"/>
      <point x="342" y="495"/>
      <point x="366" y="495" type="curve" smooth="yes"/>
      <point x="423" y="495"/>
      <point x="452" y="462"/>
      <point x="452" y="395" type="curve" smooth="yes"/>
      <point x="452" y="372"/>
      <point x="424" y="331"/>
      <point x="368" y="272" type="curve" smooth="yes"/>
      <point x="313" y="213"/>
      <point x="285" y="164"/>
      <point x="285" y="127" type="curve" smooth="yes"/>
      <point x="285" y="66"/>
      <point x="302" y="22"/>
      <point x="336" y="-6" type="curve" smooth="yes"/>
      <point x="365" y="-30"/>
      <point x="404" y="-42"/>
      <point x="452" y="-42" type="curve" smooth="yes"/>
      <point x="565" y="-42"/>
      <point x="637" y="59"/>
    </contour>
  </outline>
</glyph>
<glyph name="uni0C0E" format="1">
  <advance width="544"/>
  <unicode hex="0C0E"/>
  <outline>
    <contour>
      <point x="202" y="126" type="curve" smooth="yes" name="hr00"/>
      <point x="202" y="91"/>
      <point x="175" y="64"/>
      <point x="132" y="64" type="curve" smooth="yes"/>
      <point x="84" y="64"/>
      <point x="60" y="98"/>
      <point x="60" y="123" type="curve" smooth="yes"/>
      <point x="60" y="140"/>
      <point x="66" y="155"/>
      <point x="79" y="168" type="curve"/>
      <point x="94" y="180"/>
      <point x="111" y="186"/>
      <point x="132" y="186" type="curve" smooth="yes"/>
      <point x="175" y="186"/>
      <point x="202" y="154"/>
    </contour>
    <contour>
      <point x="495" y="233" type="curve" smooth="yes"/>
      <point x="498" y="449"/>
      <point x="371" y="612"/>
      <point x="269" y="608" type="curve" smooth="yes"/>
      <point x="233" y="606"/>
      <point x="214" y="588"/>
      <point x="214" y="565" type="curve" smooth="yes"/>
      <point x="214" y="545"/>
      <point x="224" y="532"/>
      <point x="251" y="523" type="curve" smooth="yes"/>
      <point x="392" y="475"/>
      <point x="460" y="371"/>
      <point x="460" y="247" type="curve" smooth="yes"/>
      <point x="460" y="131"/>
      <point x="429" y="64"/>
      <point x="354" y="64" type="curve" smooth="yes"/>
      <point x="334" y="64"/>
      <point x="318" y="70"/>
      <point x="307" y="81" type="curve"/>
      <point x="290" y="94"/>
      <point x="279" y="104"/>
      <point x="274" y="109" type="curve" smooth="yes"/>
      <point x="269" y="115"/>
      <point x="261" y="125"/>
      <point x="252" y="138" type="curve"/>
      <point x="218" y="174" type="line"/>
      <point x="211" y="185"/>
      <point x="202" y="194"/>
      <point x="192" y="201" type="curve" smooth="yes"/>
      <point x="171" y="216"/>
      <point x="149" y="223"/>
      <point x="127" y="223" type="curve" smooth="yes"/>
      <point x="91" y="223"/>
      <point x="64" y="210"/>
      <point x="46" y="184" type="curve" smooth="yes"/>
      <point x="28" y="158"/>
      <point x="19" y="129"/>
      <point x="19" y="97" type="curve" smooth="yes"/>
      <point x="19" y="68"/>
      <point x="28" y="39"/>
      <point x="46" y="12" type="curve"/>
      <point x="69" y="-13"/>
      <point x="96" y="-26"/>
      <point x="127" y="-26" type="curve" smooth="yes"/>
      <point x="152" y="-26"/>
      <point x="172" y="-16"/>
      <point x="188" y="3" type="curve" smooth="yes"/>
      <point x="205" y="25"/>
      <point x="218" y="48"/>
      <point x="227" y="72" type="curve"/>
      <point x="251" y="31"/>
      <point x="264" y="15"/>
      <point x="283" y="-4" type="curve"/>
      <point x="301" y="-19"/>
      <point x="322" y="-26"/>
      <point x="346" y="-26" type="curve" smooth="yes"/>
      <point x="445" y="-26"/>
      <point x="492" y="60"/>
    </contour>
  </outline>
</glyph>
<glyph name="uni0C0F" format="1">
  <advance width="544"/>
  <unicode hex="0C0F"/>
  <outline>
    <contour>
      <point x="202" y="126" type="curve" smooth="yes" name="hr00"/>
      <point x="202" y="91"/>
      <point x="175" y="64"/>
      <point x="132" y="64" type="curve" smooth="yes"/>
      <point x="84" y="64"/>
      <point x="60" y="98"/>
      <point x="60" y="123" type="curve" smooth="yes"/>
      <point x="60" y="140"/>
      <point x="66" y="155"/>
      <point x="79" y="168" type="curve"/>
      <point x="94" y="180"/>
      <point x="111" y="186"/>
      <point x="132" y="186" type="curve" smooth="yes"/>
      <point x="175" y="186"/>
      <point x="202" y="154"/>
    </contour>
    <contour>
      <point x="495" y="233" type="curve" smooth="yes"/>
      <point x="498" y="449"/>
      <point x="371" y="612"/>
      <point x="269" y="608" type="curve" smooth="yes"/>
      <point x="233" y="606"/>
      <point x="214" y="588"/>
      <point x="214" y="565" type="curve" smooth="yes"/>
      <point x="214" y="545"/>
      <point x="224" y="532"/>
      <point x="251" y="523" type="curve" smooth="yes"/>
      <point x="392" y="477"/>
      <point x="456" y="374"/>
      <point x="456" y="247" type="curve" smooth="yes"/>
      <point x="456" y="125"/>
      <point x="422" y="64"/>
      <point x="354" y="64" type="curve" smooth="yes"/>
      <point x="336" y="64"/>
      <point x="320" y="70"/>
      <point x="306" y="81" type="curve"/>
      <point x="282" y="104" type="line"/>
      <point x="252" y="140" type="line"/>
      <point x="229" y="165" type="line"/>
      <point x="193" y="201" type="line"/>
      <point x="170" y="216"/>
      <point x="148" y="223"/>
      <point x="127" y="223" type="curve" smooth="yes"/>
      <point x="55" y="223"/>
      <point x="19" y="181"/>
      <point x="19" y="97" type="curve" smooth="yes"/>
      <point x="19" y="68"/>
      <point x="28" y="39"/>
      <point x="46" y="12" type="curve"/>
      <point x="69" y="-13"/>
      <point x="96" y="-26"/>
      <point x="127" y="-26" type="curve" smooth="yes"/>
      <point x="152" y="-26"/>
      <point x="172" y="-16"/>
      <point x="188" y="3" type="curve" smooth="yes"/>
      <point x="205" y="25"/>
      <point x="218" y="48"/>
      <point x="227" y="72" type="curve"/>
      <point x="251" y="31"/>
      <point x="264" y="15"/>
      <point x="283" y="-4" type="curve"/>
      <point x="301" y="-19"/>
      <point x="322" y="-26"/>
      <point x="346" y="-26" type="curve" smooth="yes"/>
      <point x="445" y="-26"/>
      <point x="492" y="60"/>
    </contour>
    <contour>
      <point x="148" y="703" type="line"/>
      <point x="153" y="735"/>
      <point x="143" y="749"/>
      <point x="120" y="751" type="curve" smooth="yes"/>
      <point x="81" y="755"/>
      <point x="33" y="711"/>
      <point x="28" y="629" type="curve" smooth="yes"/>
      <point x="23" y="553" type="line" smooth="yes"/>
      <point x="21" y="530"/>
      <point x="25" y="509"/>
      <point x="32" y="488" type="curve" smooth="yes"/>
      <point x="47" y="440" type="line"/>
      <point x="69" y="386" type="line"/>
      <point x="97" y="400" type="line"/>
      <point x="86" y="435" type="line"/>
      <point x="79" y="472" type="line"/>
      <point x="73" y="490"/>
      <point x="72" y="508"/>
      <point x="77" y="527" type="curve"/>
      <point x="80" y="558"/>
      <point x="93" y="587"/>
      <point x="110" y="618" type="curve" smooth="yes"/>
      <point x="140" y="672" type="line"/>
    </contour>
  </outline>
</glyph>
<glyph name="uni0C10" format="1">
  <advance width="589"/>
  <unicode hex="0C10"/>
  <outline>
    <contour>
      <point x="206" y="126" type="curve" smooth="yes" name="hr00"/>
      <point x="206" y="91"/>
      <point x="174" y="64"/>
      <point x="134" y="64" type="curve" smooth="yes"/>
      <point x="79" y="64"/>
      <point x="59" y="96"/>
      <point x="59" y="123" type="curve" smooth="yes"/>
      <point x="59" y="159"/>
      <point x="90" y="186"/>
      <point x="134" y="186" type="curve" smooth="yes"/>
      <point x="179" y="186"/>
      <point x="206" y="157"/>
    </contour>
    <contour>
      <point x="541" y="197" type="curve" smooth="yes"/>
      <point x="541" y="244"/>
      <point x="536" y="284"/>
      <point x="522" y="314" type="curve" smooth="yes"/>
      <point x="490" y="383"/>
      <point x="452" y="405"/>
      <point x="404" y="405" type="curve" smooth="yes"/>
      <point x="351" y="405"/>
      <point x="292" y="366"/>
      <point x="272" y="321" type="curve"/>
      <point x="261" y="346"/>
      <point x="244" y="366"/>
      <point x="223" y="381" type="curve"/>
      <point x="197" y="396"/>
      <point x="173" y="404"/>
      <point x="151" y="404" type="curve" smooth="yes"/>
      <point x="118" y="404"/>
      <point x="88" y="391"/>
      <point x="61" y="365" type="curve" smooth="yes"/>
      <point x="34" y="339"/>
      <point x="20" y="307"/>
      <point x="20" y="269" type="curve"/>
      <point x="54" y="269" type="line"/>
      <point x="76" y="311"/>
      <point x="109" y="332"/>
      <point x="152" y="332" type="curve" smooth="yes"/>
      <point x="199" y="332"/>
      <point x="233" y="311"/>
      <point x="256" y="269" type="curve"/>
      <point x="292" y="269" type="line"/>
      <point x="319" y="311"/>
      <point x="353" y="332"/>
      <point x="396" y="332" type="curve" smooth="yes"/>
      <point x="469" y="332"/>
      <point x="507" y="289"/>
      <point x="507" y="201" type="curve" smooth="yes"/>
      <point x="507" y="110"/>
      <point x="461" y="64"/>
      <point x="370" y="64" type="curve"/>
      <point x="352" y="66"/>
      <point x="339" y="69"/>
      <point x="332" y="72" type="curve"/>
      <point x="311" y="85" type="line"/>
      <point x="295" y="97"/>
      <point x="278" y="117"/>
      <point x="256" y="142" type="curve" smooth="yes"/>
      <point x="231" y="171" type="line"/>
      <point x="196" y="203" type="line"/>
      <point x="179" y="216"/>
      <point x="157" y="223"/>
      <point x="132" y="223" type="curve" smooth="yes"/>
      <point x="96" y="223"/>
      <point x="68" y="210"/>
      <point x="48" y="184" type="curve" smooth="yes"/>
      <point x="29" y="158"/>
      <point x="19" y="128"/>
      <point x="19" y="95" type="curve" smooth="yes"/>
      <point x="19" y="64"/>
      <point x="28" y="36"/>
      <point x="46" y="11" type="curve" smooth="yes"/>
      <point x="65" y="-14"/>
      <point x="91" y="-26"/>
      <point x="124" y="-26" type="curve" smooth="yes"/>
      <point x="146" y="-26"/>
      <point x="168" y="-17"/>
      <point x="191" y="1" type="curve"/>
      <point x="210" y="22"/>
      <point x="224" y="46"/>
      <point x="233" y="72" type="curve"/>
      <point x="257" y="31"/>
      <point x="273" y="15"/>
      <point x="290" y="-4" type="curve"/>
      <point x="309" y="-19"/>
      <point x="332" y="-26"/>
      <point x="360" y="-26" type="curve" smooth="yes"/>
      <point x="399" y="-26"/>
      <point x="434" y="-15"/>
      <point x="464" y="6" type="curve"/>
      <point x="517" y="57"/>
      <point x="541" y="128"/>
    </contour>
  </outline>
</glyph>
<glyph name="uni0C12" format="1">
  <advance width="574"/>
  <unicode hex="0C12"/>
  <outline>
    <contour>
      <point x="137" y="414" type="curve" smooth="yes" name="hr00"/>
      <point x="91" y="417"/>
      <point x="19" y="382"/>
      <point x="19" y="305" type="curve" smooth="yes"/>
      <point x="19" y="290"/>
      <point x="24" y="277"/>
      <point x="33" y="267" type="curve"/>
      <point x="47" y="258"/>
      <point x="59" y="254"/>
      <point x="69" y="254" type="curve" smooth="yes"/>
      <point x="88" y="254"/>
      <point x="98" y="257"/>
      <point x="101" y="263" type="curve"/>
      <point x="106" y="268"/>
      <point x="109" y="280"/>
      <point x="109" y="299" type="curve"/>
      <point x="100" y="312"/>
      <point x="95" y="326"/>
      <point x="95" y="340" type="curve"/>
      <point x="99" y="357"/>
      <point x="122" y="371"/>
      <point x="145" y="371" type="curve" smooth="yes"/>
      <point x="194" y="371"/>
      <point x="219" y="352"/>
      <point x="219" y="313" type="curve" smooth="yes"/>
      <point x="219" y="293"/>
      <point x="196" y="265"/>
      <point x="147" y="231" type="curve" smooth="yes"/>
      <point x="95" y="195" type="line"/>
      <point x="43" y="155" type="line" smooth="yes"/>
      <point x="27" y="142"/>
      <point x="19" y="118"/>
      <point x="19" y="85" type="curve" smooth="yes"/>
      <point x="19" y="16"/>
      <point x="79" y="-26"/>
      <point x="154" y="-26" type="curve" smooth="yes"/>
      <point x="185" y="-26"/>
      <point x="210" y="-18"/>
      <point x="229" y="-3" type="curve"/>
      <point x="257" y="26" type="line"/>
      <point x="282" y="59" type="line"/>
      <point x="313" y="2"/>
      <point x="356" y="-26"/>
      <point x="409" y="-26" type="curve" smooth="yes"/>
      <point x="476" y="-26"/>
      <point x="524" y="22"/>
      <point x="524" y="82" type="curve"/>
      <point x="520" y="109" type="line"/>
      <point x="514" y="136" type="line"/>
      <point x="507" y="155"/>
      <point x="497" y="168"/>
      <point x="483" y="174" type="curve"/>
      <point x="454" y="174" type="line"/>
      <point x="466" y="158"/>
      <point x="472" y="142"/>
      <point x="472" y="126" type="curve" smooth="yes"/>
      <point x="472" y="91"/>
      <point x="437" y="64"/>
      <point x="401" y="64" type="curve" smooth="yes"/>
      <point x="370" y="64"/>
      <point x="347" y="71"/>
      <point x="331" y="86" type="curve" smooth="yes"/>
      <point x="314" y="101"/>
      <point x="303" y="119"/>
      <point x="296" y="142" type="curve"/>
      <point x="266" y="142" type="line"/>
      <point x="266" y="105"/>
      <point x="230" y="64"/>
      <point x="165" y="64" type="curve" smooth="yes"/>
      <point x="113" y="64"/>
      <point x="87" y="78"/>
      <point x="87" y="105" type="curve" smooth="yes"/>
      <point x="87" y="123"/>
      <point x="94" y="138"/>
      <point x="109" y="151" type="curve" smooth="yes"/>
      <point x="134" y="174" type="line"/>
      <point x="170" y="203" type="line"/>
      <point x="203" y="224"/>
      <point x="225" y="242"/>
      <point x="238" y="256" type="curve" smooth="yes"/>
      <point x="251" y="270"/>
      <point x="257" y="289"/>
      <point x="257" y="313" type="curve" smooth="yes"/>
      <point x="257" y="382"/>
      <point x="193" y="411"/>
    </contour>
  </outline>
</glyph>
<glyph name="uni0C13" format="1">
  <advance width="574"/>
  <unicode hex="0C13"/>
  <outline>
    <contour>
      <point x="520" y="109" type="line" name="hr00"/>
      <point x="514" y="136" type="line"/>
      <point x="507" y="155"/>
      <point x="497" y="168"/>
      <point x="483" y="174" type="curve"/>
      <point x="454" y="174" type="line"/>
      <point x="466" y="158"/>
      <point x="472" y="142"/>
      <point x="472" y="126" type="curve" smooth="yes"/>
      <point x="472" y="91"/>
      <point x="437" y="64"/>
      <point x="401" y="64" type="curve" smooth="yes"/>
      <point x="370" y="64"/>
      <point x="347" y="71"/>
      <point x="331" y="86" type="curve" smooth="yes"/>
      <point x="314" y="101"/>
      <point x="303" y="119"/>
      <point x="296" y="142" type="curve"/>
      <point x="266" y="142" type="line"/>
      <point x="266" y="105"/>
      <point x="230" y="64"/>
      <point x="165" y="64" type="curve" smooth="yes"/>
      <point x="113" y="64"/>
      <point x="87" y="78"/>
      <point x="87" y="105" type="curve" smooth="yes"/>
      <point x="87" y="123"/>
      <point x="94" y="138"/>
      <point x="109" y="151" type="curve" smooth="yes"/>
      <point x="134" y="174" type="line"/>
      <point x="170" y="203" type="line"/>
      <point x="203" y="224"/>
      <point x="225" y="242"/>
      <point x="238" y="256" type="curve" smooth="yes"/>
      <point x="251" y="270"/>
      <point x="257" y="289"/>
      <point x="257" y="313" type="curve" smooth="yes"/>
      <point x="257" y="381"/>
      <point x="193" y="412"/>
      <point x="137" y="412" type="curve"/>
      <point x="105" y="435"/>
      <point x="96" y="460"/>
      <point x="96" y="487" type="curve" smooth="yes"/>
      <point x="96" y="517"/>
      <point x="118" y="532"/>
      <point x="161" y="532" type="curve" smooth="yes"/>
      <point x="184" y="532"/>
      <point x="203" y="525"/>
      <point x="218" y="512" type="curve"/>
      <point x="233" y="495"/>
      <point x="240" y="477"/>
      <point x="240" y="459" type="curve"/>
      <point x="272" y="459" type="line"/>
      <point x="272" y="530"/>
      <point x="253" y="565"/>
      <point x="225" y="579" type="curve" smooth="yes"/>
      <point x="208" y="587"/>
      <point x="188" y="592"/>
      <point x="163" y="592" type="curve" smooth="yes"/>
      <point x="136" y="592"/>
      <point x="111" y="583"/>
      <point x="88" y="566" type="curve" smooth="yes"/>
      <point x="65" y="549"/>
      <point x="54" y="524"/>
      <point x="54" y="492" type="curve" smooth="yes"/>
      <point x="54" y="479"/>
      <point x="57" y="462"/>
      <point x="63" y="441" type="curve"/>
      <point x="70" y="428"/>
      <point x="81" y="417"/>
      <point x="96" y="409" type="curve"/>
      <point x="48" y="386"/>
      <point x="19" y="357"/>
      <point x="19" y="305" type="curve" smooth="yes"/>
      <point x="19" y="290"/>
      <point x="24" y="277"/>
      <point x="33" y="267" type="curve"/>
      <point x="47" y="258"/>
      <point x="59" y="254"/>
      <point x="69" y="254" type="curve" smooth="yes"/>
      <point x="88" y="254"/>
      <point x="98" y="257"/>
      <point x="101" y="263" type="curve"/>
      <point x="106" y="268"/>
      <point x="109" y="280"/>
      <point x="109" y="299" type="curve"/>
      <point x="100" y="312"/>
      <point x="95" y="326"/>
      <point x="95" y="340" type="curve"/>
      <point x="99" y="357"/>
      <point x="122" y="371"/>
      <point x="145" y="371" type="curve" smooth="yes"/>
      <point x="194" y="371"/>
      <point x="219" y="352"/>
      <point x="219" y="313" type="curve" smooth="yes"/>
      <point x="219" y="293"/>
      <point x="196" y="265"/>
      <point x="147" y="231" type="curve" smooth="yes"/>
      <point x="95" y="195" type="line"/>
      <point x="43" y="155" type="line" smooth="yes"/>
      <point x="27" y="142"/>
      <point x="19" y="118"/>
      <point x="19" y="85" type="curve" smooth="yes"/>
      <point x="19" y="16"/>
      <point x="79" y="-26"/>
      <point x="154" y="-26" type="curve" smooth="yes"/>
      <point x="185" y="-26"/>
      <point x="210" y="-18"/>
      <point x="229" y="-3" type="curve"/>
      <point x="257" y="26" type="line"/>
      <point x="282" y="59" type="line"/>
      <point x="313" y="2"/>
      <point x="356" y="-26"/>
      <point x="409" y="-26" type="curve" smooth="yes"/>
      <point x="476" y="-26"/>
      <point x="524" y="22"/>
      <point x="524" y="82" type="curve"/>
    </contour>
  </outline>
</glyph>
<glyph name="uni0C14" format="1">
  <advance width="719"/>
  <unicode hex="0C14"/>
  <outline>
    <contour>
      <point x="639" y="468" type="curve" smooth="yes" name="hr00"/>
      <point x="639" y="427"/>
      <point x="622" y="396"/>
      <point x="571" y="396" type="curve" smooth="yes"/>
      <point x="547" y="396"/>
      <point x="528" y="403"/>
      <point x="514" y="416" type="curve"/>
      <point x="503" y="436"/>
      <point x="497" y="454"/>
      <point x="497" y="469" type="curve" smooth="yes"/>
      <point x="497" y="512"/>
      <point x="535" y="551"/>
      <point x="590" y="536" type="curve" smooth="yes"/>
      <point x="629" y="526"/>
      <point x="639" y="496"/>
    </contour>
    <contour>
      <point x="663" y="456" type="curve" smooth="yes"/>
      <point x="663" y="510"/>
      <point x="649" y="548"/>
      <point x="620" y="571" type="curve" smooth="yes"/>
      <point x="591" y="594"/>
      <point x="557" y="605"/>
      <point x="517" y="605" type="curve" smooth="yes"/>
      <point x="20" y="605" type="line"/>
      <point x="20" y="537" type="line"/>
      <point x="226" y="537" type="line"/>
      <point x="259" y="525"/>
      <point x="271" y="504"/>
      <point x="271" y="481" type="curve" smooth="yes"/>
      <point x="271" y="454"/>
      <point x="255" y="432"/>
      <point x="218" y="432" type="curve" smooth="yes"/>
      <point x="20" y="432" type="line"/>
      <point x="20" y="399" type="line"/>
      <point x="84" y="399" type="line"/>
      <point x="41" y="379"/>
      <point x="20" y="347"/>
      <point x="20" y="303" type="curve" smooth="yes"/>
      <point x="20" y="286"/>
      <point x="25" y="273"/>
      <point x="35" y="263" type="curve"/>
      <point x="48" y="255"/>
      <point x="59" y="251"/>
      <point x="68" y="251" type="curve" smooth="yes"/>
      <point x="100" y="251"/>
      <point x="115" y="263"/>
      <point x="115" y="298" type="curve"/>
      <point x="100" y="318"/>
      <point x="92" y="331"/>
      <point x="92" y="337" type="curve" smooth="yes"/>
      <point x="92" y="357"/>
      <point x="109" y="367"/>
      <point x="143" y="367" type="curve" smooth="yes"/>
      <point x="199" y="367"/>
      <point x="219" y="351"/>
      <point x="219" y="316" type="curve" smooth="yes"/>
      <point x="219" y="298"/>
      <point x="212" y="284"/>
      <point x="198" y="274" type="curve" smooth="yes"/>
      <point x="125" y="219" type="line"/>
      <point x="77" y="178" type="line"/>
      <point x="44" y="151" type="line"/>
      <point x="28" y="130"/>
      <point x="20" y="107"/>
      <point x="20" y="83" type="curve" smooth="yes"/>
      <point x="20" y="48"/>
      <point x="33" y="21"/>
      <point x="59" y="2" type="curve" smooth="yes"/>
      <point x="86" y="-17"/>
      <point x="117" y="-27"/>
      <point x="152" y="-27" type="curve" smooth="yes"/>
      <point x="182" y="-27"/>
      <point x="206" y="-21"/>
      <point x="223" y="-8" type="curve"/>
      <point x="255" y="23" type="line" smooth="yes"/>
      <point x="265" y="33"/>
      <point x="274" y="44"/>
      <point x="279" y="59" type="curve"/>
      <point x="312" y="2"/>
      <point x="355" y="-27"/>
      <point x="406" y="-27" type="curve" smooth="yes"/>
      <point x="470" y="-27"/>
      <point x="519" y="21"/>
      <point x="519" y="81" type="curve"/>
      <point x="515" y="108" type="line"/>
      <point x="509" y="136" type="line"/>
      <point x="502" y="156"/>
      <point x="492" y="168"/>
      <point x="479" y="173" type="curve"/>
      <point x="450" y="173" type="line"/>
      <point x="463" y="156"/>
      <point x="470" y="139"/>
      <point x="470" y="124" type="curve" smooth="yes"/>
      <point x="470" y="91"/>
      <point x="437" y="64"/>
      <point x="398" y="64" type="curve" smooth="yes"/>
      <point x="331" y="64"/>
      <point x="307" y="102"/>
      <point x="292" y="142" type="curve"/>
      <point x="266" y="142" type="line"/>
      <point x="266" y="103"/>
      <point x="221" y="64"/>
      <point x="160" y="64" type="curve" smooth="yes"/>
      <point x="109" y="64"/>
      <point x="92" y="78"/>
      <point x="87" y="83" type="curve" smooth="yes"/>
      <point x="85" y="86"/>
      <point x="84" y="93"/>
      <point x="84" y="104" type="curve" smooth="yes"/>
      <point x="84" y="127"/>
      <point x="99" y="149"/>
      <point x="128" y="171" type="curve" smooth="yes"/>
      <point x="212" y="237" type="line" smooth="yes"/>
      <point x="240" y="259"/>
      <point x="254" y="285"/>
      <point x="254" y="310" type="curve" smooth="yes"/>
      <point x="255" y="347"/>
      <point x="246" y="372"/>
      <point x="214" y="392" type="curve"/>
      <point x="225" y="391"/>
      <point x="242" y="396"/>
      <point x="265" y="405" type="curve" smooth="yes"/>
      <point x="288" y="415"/>
      <point x="302" y="439"/>
      <point x="306" y="476" type="curve"/>
      <point x="306" y="499"/>
      <point x="299" y="519"/>
      <point x="285" y="537" type="curve"/>
      <point x="495" y="537" type="line"/>
      <point x="455" y="472"/>
      <point x="460" y="396"/>
      <point x="500" y="345" type="curve" smooth="yes"/>
      <point x="519" y="322"/>
      <point x="541" y="311"/>
      <point x="565" y="311" type="curve" smooth="yes"/>
      <point x="621" y="311"/>
      <point x="663" y="365"/>
    </contour>
  </outline>
</glyph>
<glyph name="uni0C15" format="1">
  <advance width="479"/>
  <unicode hex="0C15"/>
  <outline>
    <contour>
      <point x="246" y="403" type="line" name="hr00"/>
      <point x="259" y="409"/>
      <point x="270" y="415"/>
      <point x="279" y="422" type="curve" smooth="yes"/>
      <point x="427" y="540" type="line"/>
      <point x="383" y="579" type="line"/>
      <point x="255" y="451" type="line" smooth="yes"/>
      <point x="239" y="435"/>
      <point x="227" y="428"/>
      <point x="218" y="428" type="curve" smooth="yes"/>
      <point x="205" y="428"/>
      <point x="192" y="441"/>
      <point x="179" y="468" type="curve" smooth="yes"/>
      <point x="166" y="495"/>
      <point x="156" y="513"/>
      <point x="147" y="522" type="curve" smooth="yes"/>
      <point x="138" y="532"/>
      <point x="125" y="537"/>
      <point x="106" y="537" type="curve" smooth="yes"/>
      <point x="63" y="537"/>
      <point x="41" y="517"/>
      <point x="41" y="478" type="curve" smooth="yes"/>
      <point x="41" y="459"/>
      <point x="56" y="441"/>
      <point x="86" y="421" type="curve" smooth="yes"/>
      <point x="106" y="408"/>
      <point x="126" y="398"/>
      <point x="147" y="395" type="curve"/>
      <point x="129" y="389"/>
      <point x="113" y="382"/>
      <point x="98" y="372" type="curve" smooth="yes"/>
      <point x="64" y="350"/>
      <point x="47" y="325"/>
      <point x="47" y="299" type="curve" smooth="yes"/>
      <point x="47" y="270"/>
      <point x="60" y="247"/>
      <point x="87" y="229" type="curve"/>
      <point x="141" y="205" type="line"/>
      <point x="211" y="182" type="line"/>
      <point x="290" y="156" type="line"/>
      <point x="343" y="140" type="line"/>
      <point x="366" y="125"/>
      <point x="378" y="109"/>
      <point x="378" y="92" type="curve"/>
      <point x="375" y="83"/>
      <point x="364" y="74"/>
      <point x="345" y="67" type="curve" smooth="yes"/>
      <point x="328" y="60"/>
      <point x="315" y="59"/>
      <point x="305" y="58" type="curve" smooth="yes"/>
      <point x="247" y="55" type="line"/>
      <point x="188" y="60" type="line"/>
      <point x="133" y="73" type="line"/>
      <point x="81" y="92" type="line"/>
      <point x="45" y="113" type="line"/>
      <point x="19" y="64" type="line"/>
      <point x="33" y="43"/>
      <point x="61" y="24"/>
      <point x="101" y="3" type="curve" smooth="yes"/>
      <point x="150" y="-23"/>
      <point x="180" y="-28"/>
      <point x="224" y="-26" type="curve" smooth="yes"/>
      <point x="288" y="-23" type="line"/>
      <point x="342" y="-12" type="line"/>
      <point x="397" y="8"/>
      <point x="423" y="38"/>
      <point x="423" y="90" type="curve" smooth="yes"/>
      <point x="423" y="119"/>
      <point x="409" y="141"/>
      <point x="382" y="156" type="curve"/>
      <point x="374" y="163"/>
      <point x="363" y="168"/>
      <point x="350" y="171" type="curve"/>
      <point x="323" y="181" type="line"/>
      <point x="241" y="205" type="line" smooth="yes"/>
      <point x="181" y="223"/>
      <point x="141" y="237"/>
      <point x="122" y="247" type="curve" smooth="yes"/>
      <point x="97" y="260"/>
      <point x="84" y="277"/>
      <point x="84" y="296" type="curve" smooth="yes"/>
      <point x="84" y="331"/>
      <point x="109" y="349"/>
      <point x="159" y="349" type="curve" smooth="yes"/>
      <point x="176" y="349"/>
      <point x="193" y="346"/>
      <point x="210" y="341" type="curve" smooth="yes"/>
      <point x="242" y="331" type="line"/>
      <point x="270" y="317" type="line"/>
      <point x="310" y="290" type="line" smooth="yes"/>
      <point x="333" y="274"/>
      <point x="353" y="267"/>
      <point x="368" y="267" type="curve"/>
      <point x="399" y="272"/>
      <point x="407" y="281"/>
      <point x="407" y="304" type="curve" smooth="yes"/>
      <point x="407" y="322"/>
      <point x="397" y="339"/>
      <point x="377" y="355" type="curve" smooth="yes"/>
      <point x="358" y="371"/>
      <point x="336" y="383"/>
      <point x="313" y="390" type="curve" smooth="yes"/>
      <point x="286" y="399"/>
      <point x="270" y="403"/>
      <point x="263" y="403" type="curve" smooth="yes"/>
    </contour>
  </outline>
</glyph>
<glyph name="uni0C17" format="1">
  <advance width="487"/>
  <unicode hex="0C17"/>
  <outline>
    <contour>
      <point x="260" y="408" type="curve" name="hr00"/>
      <point x="269" y="409"/>
      <point x="279" y="413"/>
      <point x="290" y="422" type="curve" smooth="yes"/>
      <point x="437" y="540" type="line"/>
      <point x="391" y="579" type="line"/>
      <point x="264" y="451" type="line" smooth="yes"/>
      <point x="249" y="436"/>
      <point x="236" y="428"/>
      <point x="227" y="428" type="curve" smooth="yes"/>
      <point x="213" y="428"/>
      <point x="200" y="441"/>
      <point x="187" y="468" type="curve" smooth="yes"/>
      <point x="175" y="495"/>
      <point x="165" y="513"/>
      <point x="156" y="522" type="curve" smooth="yes"/>
      <point x="147" y="532"/>
      <point x="135" y="537"/>
      <point x="118" y="537" type="curve" smooth="yes"/>
      <point x="73" y="537"/>
      <point x="50" y="517"/>
      <point x="50" y="478" type="curve" smooth="yes"/>
      <point x="50" y="459"/>
      <point x="65" y="440"/>
      <point x="95" y="421" type="curve" smooth="yes"/>
      <point x="120" y="406"/>
      <point x="143" y="398"/>
      <point x="166" y="395" type="curve"/>
      <point x="137" y="372"/>
      <point x="109" y="331"/>
      <point x="81" y="273" type="curve" smooth="yes"/>
      <point x="40" y="188"/>
      <point x="19" y="105"/>
      <point x="19" y="24" type="curve"/>
      <point x="24" y="-12"/>
      <point x="41" y="-26"/>
      <point x="68" y="-26" type="curve" smooth="yes"/>
      <point x="102" y="-26"/>
      <point x="119" y="-9"/>
      <point x="119" y="24" type="curve"/>
      <point x="110" y="90" type="line"/>
      <point x="109" y="121" type="line" smooth="yes"/>
      <point x="107" y="173"/>
      <point x="121" y="237"/>
      <point x="143" y="294" type="curve" smooth="yes"/>
      <point x="166" y="353"/>
      <point x="194" y="382"/>
      <point x="224" y="382" type="curve" smooth="yes"/>
      <point x="257" y="382"/>
      <point x="285" y="350"/>
      <point x="307" y="286" type="curve" smooth="yes"/>
      <point x="324" y="238"/>
      <point x="333" y="183"/>
      <point x="333" y="122" type="curve" smooth="yes"/>
      <point x="333" y="105" type="line"/>
      <point x="328" y="81" type="line"/>
      <point x="324" y="50" type="line"/>
      <point x="323" y="24" type="line" smooth="yes"/>
      <point x="322" y="-9"/>
      <point x="340" y="-26"/>
      <point x="374" y="-26" type="curve" smooth="yes"/>
      <point x="407" y="-26"/>
      <point x="424" y="-9"/>
      <point x="424" y="24" type="curve" smooth="yes"/>
      <point x="424" y="105"/>
      <point x="403" y="188"/>
      <point x="361" y="274" type="curve" smooth="yes"/>
      <point x="327" y="345"/>
      <point x="293" y="390"/>
    </contour>
  </outline>
</glyph>
<glyph name="uni0C18" format="1">
  <advance width="879"/>
  <unicode hex="0C18"/>
  <outline>
    <contour>
      <point x="334" y="595" type="line" name="hr00"/>
      <point x="232" y="463" type="line"/>
      <point x="207" y="438" type="line"/>
      <point x="195" y="431" type="line"/>
      <point x="187" y="429" type="line"/>
      <point x="182" y="429"/>
      <point x="173" y="435"/>
      <point x="161" y="446" type="curve"/>
      <point x="141" y="486" type="line" smooth="yes"/>
      <point x="123" y="521"/>
      <point x="101" y="537"/>
      <point x="82" y="537" type="curve" smooth="yes"/>
      <point x="65" y="537"/>
      <point x="50" y="532"/>
      <point x="36" y="523" type="curve"/>
      <point x="25" y="510"/>
      <point x="19" y="495"/>
      <point x="19" y="478" type="curve" smooth="yes"/>
      <point x="19" y="449"/>
      <point x="32" y="425"/>
      <point x="58" y="404" type="curve" smooth="yes"/>
      <point x="85" y="383"/>
      <point x="115" y="373"/>
      <point x="150" y="373" type="curve"/>
      <point x="198" y="385" type="line"/>
      <point x="209" y="392"/>
      <point x="229" y="405"/>
      <point x="254" y="428" type="curve" smooth="yes"/>
      <point x="379" y="547" type="line"/>
    </contour>
    <contour>
      <point x="295" y="-91" type="line"/>
      <point x="282" y="-46" type="line"/>
      <point x="257" y="23" type="line"/>
      <point x="232" y="-46" type="line"/>
      <point x="216" y="-95" type="line"/>
      <point x="211" y="-129" type="line"/>
      <point x="211" y="-158"/>
      <point x="226" y="-172"/>
      <point x="257" y="-172" type="curve" smooth="yes"/>
      <point x="281" y="-172"/>
      <point x="302" y="-152"/>
      <point x="302" y="-129" type="curve"/>
    </contour>
    <contour>
      <point x="514" y="183" type="line" smooth="yes"/>
      <point x="518" y="234"/>
      <point x="494" y="283"/>
      <point x="457" y="331" type="curve" smooth="yes"/>
      <point x="419" y="380"/>
      <point x="383" y="404"/>
      <point x="348" y="404" type="curve" smooth="yes"/>
      <point x="313" y="404"/>
      <point x="298" y="386"/>
      <point x="298" y="355" type="curve" smooth="yes"/>
      <point x="298" y="340"/>
      <point x="303" y="329"/>
      <point x="313" y="321" type="curve" smooth="yes"/>
      <point x="327" y="310"/>
      <point x="339" y="305"/>
      <point x="348" y="305" type="curve" smooth="yes"/>
      <point x="383" y="305"/>
      <point x="413" y="293"/>
      <point x="437" y="267" type="curve" smooth="yes"/>
      <point x="462" y="241"/>
      <point x="473" y="212"/>
      <point x="473" y="183" type="curve" smooth="yes"/>
      <point x="473" y="114"/>
      <point x="437" y="67"/>
      <point x="388" y="67" type="curve" smooth="yes"/>
      <point x="345" y="67"/>
      <point x="306" y="93"/>
      <point x="270" y="146" type="curve" smooth="yes"/>
      <point x="233" y="199"/>
      <point x="199" y="226"/>
      <point x="150" y="226" type="curve" smooth="yes"/>
      <point x="83" y="226"/>
      <point x="50" y="184"/>
      <point x="50" y="100" type="curve" smooth="yes"/>
      <point x="50" y="58"/>
      <point x="59" y="27"/>
      <point x="78" y="6" type="curve" smooth="yes"/>
      <point x="97" y="-15"/>
      <point x="120" y="-26"/>
      <point x="145" y="-26" type="curve" smooth="yes"/>
      <point x="167" y="-26"/>
      <point x="190" y="-18"/>
      <point x="211" y="0" type="curve" smooth="yes"/>
      <point x="235" y="20"/>
      <point x="250" y="45"/>
      <point x="259" y="72" type="curve"/>
      <point x="272" y="43"/>
      <point x="288" y="18"/>
      <point x="311" y="0" type="curve" smooth="yes"/>
      <point x="333" y="-18"/>
      <point x="359" y="-26"/>
      <point x="386" y="-26" type="curve" smooth="yes"/>
      <point x="424" y="-26"/>
      <point x="454" y="-8"/>
      <point x="477" y="27" type="curve" smooth="yes"/>
      <point x="488" y="45"/>
      <point x="497" y="63"/>
      <point x="504" y="81" type="curve"/>
      <point x="507" y="72" type="line"/>
      <point x="528" y="42"/>
      <point x="546" y="21"/>
      <point x="563" y="10" type="curve" smooth="yes"/>
      <point x="602" y="-15"/>
      <point x="640" y="-28"/>
      <point x="675" y="-28" type="curve" smooth="yes"/>
      <point x="763" y="-28"/>
      <point x="831" y="44"/>
      <point x="831" y="181" type="curve" smooth="yes"/>
      <point x="831" y="212"/>
      <point x="821" y="247"/>
      <point x="801" y="288" type="curve"/>
      <point x="769" y="338" type="line" smooth="yes"/>
      <point x="762" y="349"/>
      <point x="750" y="363"/>
      <point x="733" y="376" type="curve" smooth="yes"/>
      <point x="706" y="398"/>
      <point x="680" y="408"/>
      <point x="657" y="408" type="curve" smooth="yes"/>
      <point x="637" y="408"/>
      <point x="622" y="403"/>
      <point x="613" y="394" type="curve"/>
      <point x="602" y="386"/>
      <point x="596" y="375"/>
      <point x="596" y="360" type="curve"/>
      <point x="601" y="327"/>
      <point x="620" y="305"/>
      <point x="657" y="305" type="curve" smooth="yes"/>
      <point x="746" y="305"/>
      <point x="790" y="265"/>
      <point x="790" y="186" type="curve" smooth="yes"/>
      <point x="790" y="113"/>
      <point x="749" y="67"/>
      <point x="661" y="67" type="curve"/>
      <point x="613" y="72" type="line"/>
      <point x="565" y="87" type="line"/>
      <point x="518" y="112" type="line"/>
      <point x="509" y="118" type="line"/>
    </contour>
    <contour>
      <point x="228" y="131" type="curve" smooth="yes"/>
      <point x="228" y="95"/>
      <point x="202" y="71"/>
      <point x="161" y="71" type="curve" smooth="yes"/>
      <point x="113" y="71"/>
      <point x="91" y="101"/>
      <point x="91" y="129" type="curve" smooth="yes"/>
      <point x="91" y="146"/>
      <point x="97" y="160"/>
      <point x="109" y="173" type="curve"/>
      <point x="124" y="185"/>
      <point x="142" y="191"/>
      <point x="161" y="191" type="curve" smooth="yes"/>
      <point x="202" y="191"/>
      <point x="228" y="162"/>
    </contour>
  </outline>
</glyph>
<glyph name="uni0C1B" format="1">
  <advance width="638"/>
  <unicode hex="0C1B"/>
  <outline>
    <contour>
      <point x="382" y="-128" type="curve" smooth="yes" name="hr00"/>
      <point x="382" y="-117"/>
      <point x="380" y="-103"/>
      <point x="373" y="-86" type="curve" smooth="yes"/>
      <point x="360" y="-53" type="line"/>
      <point x="336" y="23" type="line"/>
      <point x="311" y="-46" type="line"/>
      <point x="295" y="-95" type="line"/>
      <point x="291" y="-129" type="line"/>
      <point x="294" y="-156"/>
      <point x="319" y="-172"/>
      <point x="336" y="-172" type="curve"/>
      <point x="350" y="-169"/>
      <point x="361" y="-165"/>
      <point x="368" y="-160" type="curve"/>
      <point x="377" y="-149"/>
      <point x="382" y="-139"/>
    </contour>
    <contour>
      <point x="587" y="586" type="line"/>
      <point x="551" y="633" type="line"/>
      <point x="384" y="454" type="line"/>
      <point x="372" y="446" type="line"/>
      <point x="360" y="444" type="line"/>
      <point x="352" y="446"/>
      <point x="342" y="452"/>
      <point x="331" y="462" type="curve"/>
      <point x="287" y="514" type="line"/>
      <point x="260" y="538"/>
      <point x="236" y="550"/>
      <point x="215" y="550" type="curve" smooth="yes"/>
      <point x="178" y="550"/>
      <point x="160" y="530"/>
      <point x="160" y="490" type="curve" smooth="yes"/>
      <point x="160" y="465"/>
      <point x="184" y="442"/>
      <point x="231" y="421" type="curve" smooth="yes"/>
      <point x="268" y="404"/>
      <point x="306" y="397"/>
      <point x="337" y="397" type="curve"/>
      <point x="394" y="387"/>
      <point x="442" y="362"/>
      <point x="482" y="322" type="curve" smooth="yes"/>
      <point x="522" y="282"/>
      <point x="542" y="233"/>
      <point x="542" y="174" type="curve" smooth="yes"/>
      <point x="542" y="103"/>
      <point x="504" y="62"/>
      <point x="448" y="62" type="curve" smooth="yes"/>
      <point x="425" y="62"/>
      <point x="405" y="68"/>
      <point x="386" y="81" type="curve" smooth="yes"/>
      <point x="369" y="93"/>
      <point x="355" y="112"/>
      <point x="346" y="137" type="curve"/>
      <point x="323" y="137" type="line"/>
      <point x="308" y="106"/>
      <point x="295" y="86"/>
      <point x="284" y="76" type="curve" smooth="yes"/>
      <point x="273" y="67"/>
      <point x="256" y="62"/>
      <point x="232" y="62" type="curve" smooth="yes"/>
      <point x="185" y="62"/>
      <point x="161" y="82"/>
      <point x="161" y="123" type="curve" smooth="yes"/>
      <point x="161" y="148"/>
      <point x="171" y="179"/>
      <point x="190" y="217" type="curve"/>
      <point x="19" y="217" type="line"/>
      <point x="19" y="183" type="line"/>
      <point x="145" y="183" type="line"/>
      <point x="122" y="148"/>
      <point x="110" y="113"/>
      <point x="110" y="78" type="curve" smooth="yes"/>
      <point x="110" y="47"/>
      <point x="119" y="21"/>
      <point x="140" y="1" type="curve" smooth="yes"/>
      <point x="159" y="-18"/>
      <point x="187" y="-26"/>
      <point x="220" y="-26" type="curve" smooth="yes"/>
      <point x="250" y="-26"/>
      <point x="272" y="-21"/>
      <point x="286" y="-10" type="curve"/>
      <point x="302" y="0"/>
      <point x="319" y="19"/>
      <point x="336" y="46" type="curve"/>
      <point x="365" y="-2"/>
      <point x="404" y="-26"/>
      <point x="455" y="-26" type="curve" smooth="yes"/>
      <point x="542" y="-26"/>
      <point x="581" y="29"/>
      <point x="581" y="174" type="curve" smooth="yes"/>
      <point x="581" y="246"/>
      <point x="555" y="311"/>
      <point x="500" y="358" type="curve" smooth="yes"/>
      <point x="473" y="382"/>
      <point x="445" y="400"/>
      <point x="416" y="412" type="curve" smooth="yes"/>
      <point x="392" y="422" type="line"/>
    </contour>
  </outline>
</glyph>
<glyph name="uni0C1C" format="1">
  <advance width="574"/>
  <unicode hex="0C1C"/>
  <outline>
    <contour>
      <point x="518" y="127" type="line" name="hr00"/>
      <point x="507" y="168" type="line"/>
      <point x="479" y="168" type="line"/>
      <point x="479" y="96"/>
      <point x="444" y="64"/>
      <point x="401" y="64" type="curve" smooth="yes"/>
      <point x="370" y="64"/>
      <point x="347" y="71"/>
      <point x="331" y="86" type="curve" smooth="yes"/>
      <point x="314" y="101"/>
      <point x="303" y="119"/>
      <point x="296" y="142" type="curve"/>
      <point x="266" y="142" type="line"/>
      <point x="266" y="105"/>
      <point x="230" y="64"/>
      <point x="165" y="64" type="curve" smooth="yes"/>
      <point x="113" y="64"/>
      <point x="87" y="78"/>
      <point x="87" y="105" type="curve" smooth="yes"/>
      <point x="87" y="117"/>
      <point x="94" y="132"/>
      <point x="109" y="149" type="curve"/>
      <point x="200" y="223" type="line"/>
      <point x="238" y="262"/>
      <point x="258" y="289"/>
      <point x="257" y="305" type="curve" smooth="yes"/>
      <point x="255" y="331" type="line"/>
      <point x="314" y="250"/>
      <point x="371" y="210"/>
      <point x="427" y="210" type="curve" smooth="yes"/>
      <point x="479" y="210"/>
      <point x="524" y="253"/>
      <point x="524" y="314" type="curve" smooth="yes"/>
      <point x="524" y="345"/>
      <point x="509" y="371"/>
      <point x="480" y="393" type="curve" smooth="yes"/>
      <point x="451" y="415"/>
      <point x="414" y="426"/>
      <point x="368" y="426" type="curve"/>
      <point x="368" y="397" type="line"/>
      <point x="399" y="397"/>
      <point x="425" y="389"/>
      <point x="446" y="373" type="curve" smooth="yes"/>
      <point x="468" y="357"/>
      <point x="479" y="341"/>
      <point x="479" y="324" type="curve" smooth="yes"/>
      <point x="479" y="296"/>
      <point x="456" y="282"/>
      <point x="411" y="282" type="curve" smooth="yes"/>
      <point x="355" y="282"/>
      <point x="308" y="303"/>
      <point x="269" y="345" type="curve"/>
      <point x="252" y="369"/>
      <point x="240" y="378"/>
      <point x="228" y="386" type="curve" smooth="yes"/>
      <point x="203" y="402"/>
      <point x="172" y="412"/>
      <point x="136" y="412" type="curve" smooth="yes"/>
      <point x="103" y="412"/>
      <point x="76" y="402"/>
      <point x="54" y="383" type="curve" smooth="yes"/>
      <point x="31" y="364"/>
      <point x="19" y="338"/>
      <point x="19" y="305" type="curve" smooth="yes"/>
      <point x="19" y="271"/>
      <point x="34" y="254"/>
      <point x="65" y="254" type="curve"/>
      <point x="96" y="259"/>
      <point x="109" y="271"/>
      <point x="109" y="299" type="curve"/>
      <point x="100" y="312"/>
      <point x="95" y="326"/>
      <point x="95" y="340" type="curve" smooth="yes"/>
      <point x="95" y="365"/>
      <point x="112" y="377"/>
      <point x="145" y="377" type="curve" smooth="yes"/>
      <point x="188" y="377"/>
      <point x="219" y="350"/>
      <point x="219" y="318" type="curve" smooth="yes"/>
      <point x="219" y="290"/>
      <point x="188" y="254"/>
      <point x="125" y="209" type="curve" smooth="yes"/>
      <point x="82" y="179"/>
      <point x="56" y="159"/>
      <point x="45" y="150" type="curve"/>
      <point x="28" y="127"/>
      <point x="19" y="105"/>
      <point x="19" y="85" type="curve" smooth="yes"/>
      <point x="19" y="16"/>
      <point x="79" y="-32"/>
      <point x="154" y="-26" type="curve" smooth="yes"/>
      <point x="200" y="-22" type="line"/>
      <point x="225" y="-9" type="line"/>
      <point x="248" y="9"/>
      <point x="267" y="31"/>
      <point x="282" y="58" type="curve"/>
      <point x="313" y="2"/>
      <point x="356" y="-26"/>
      <point x="409" y="-26" type="curve" smooth="yes"/>
      <point x="476" y="-26"/>
      <point x="524" y="19"/>
      <point x="524" y="90" type="curve"/>
    </contour>
  </outline>
</glyph>
<glyph name="uni0C21" format="1">
  <advance width="615"/>
  <unicode hex="0C21"/>
  <outline>
    <contour>
      <point x="529" y="113" type="curve" name="hr00"/>
      <point x="522" y="85"/>
      <point x="503" y="67"/>
      <point x="472" y="67" type="curve" smooth="yes"/>
      <point x="440" y="67"/>
      <point x="414" y="89"/>
      <point x="414" y="113" type="curve"/>
      <point x="417" y="129"/>
      <point x="423" y="140"/>
      <point x="432" y="146" type="curve"/>
      <point x="441" y="154"/>
      <point x="455" y="158"/>
      <point x="472" y="158" type="curve" smooth="yes"/>
      <point x="510" y="158"/>
      <point x="529" y="143"/>
    </contour>
    <contour>
      <point x="565" y="105" type="curve" smooth="yes"/>
      <point x="565" y="164"/>
      <point x="518" y="194"/>
      <point x="469" y="194" type="curve" smooth="yes"/>
      <point x="447" y="194"/>
      <point x="425" y="188"/>
      <point x="402" y="172" type="curve" smooth="yes"/>
      <point x="386" y="161"/>
      <point x="378" y="143"/>
      <point x="378" y="122" type="curve" smooth="yes"/>
      <point x="378" y="96" type="line"/>
      <point x="387" y="71" type="line"/>
      <point x="342" y="71"/>
      <point x="312" y="92"/>
      <point x="296" y="133" type="curve"/>
      <point x="259" y="133" type="line"/>
      <point x="238" y="92"/>
      <point x="206" y="71"/>
      <point x="165" y="71" type="curve" smooth="yes"/>
      <point x="104" y="71"/>
      <point x="73" y="117"/>
      <point x="73" y="174" type="curve" smooth="yes"/>
      <point x="73" y="228"/>
      <point x="94" y="274"/>
      <point x="137" y="313" type="curve" smooth="yes"/>
      <point x="180" y="352"/>
      <point x="234" y="372"/>
      <point x="300" y="372" type="curve" smooth="yes"/>
      <point x="349" y="372"/>
      <point x="390" y="366"/>
      <point x="419" y="350" type="curve" smooth="yes"/>
      <point x="492" y="309" type="line"/>
      <point x="522" y="345" type="line"/>
      <point x="487" y="370"/>
      <point x="455" y="386"/>
      <point x="427" y="392" type="curve"/>
      <point x="402" y="400"/>
      <point x="361" y="404"/>
      <point x="302" y="404" type="curve"/>
      <point x="541" y="553" type="line"/>
      <point x="478" y="597" type="line"/>
      <point x="323" y="456" type="line"/>
      <point x="297" y="435" type="line"/>
      <point x="296" y="433"/>
      <point x="291" y="432"/>
      <point x="284" y="432" type="curve" smooth="yes"/>
      <point x="271" y="432"/>
      <point x="258" y="446"/>
      <point x="246" y="473" type="curve" smooth="yes"/>
      <point x="233" y="501"/>
      <point x="222" y="520"/>
      <point x="210" y="529" type="curve" smooth="yes"/>
      <point x="198" y="539"/>
      <point x="185" y="544"/>
      <point x="170" y="544" type="curve" smooth="yes"/>
      <point x="129" y="544"/>
      <point x="109" y="525"/>
      <point x="109" y="486" type="curve" smooth="yes"/>
      <point x="109" y="477"/>
      <point x="112" y="468"/>
      <point x="119" y="460" type="curve"/>
      <point x="150" y="431" type="line"/>
      <point x="177" y="415" type="line"/>
      <point x="195" y="409" type="line"/>
      <point x="227" y="397" type="line"/>
      <point x="84" y="366"/>
      <point x="19" y="272"/>
      <point x="19" y="136" type="curve" smooth="yes"/>
      <point x="19" y="72"/>
      <point x="32" y="26"/>
      <point x="61" y="1" type="curve" smooth="yes"/>
      <point x="83" y="-18"/>
      <point x="115" y="-26"/>
      <point x="154" y="-26" type="curve" smooth="yes"/>
      <point x="187" y="-26"/>
      <point x="219" y="-15"/>
      <point x="242" y="13" type="curve" smooth="yes"/>
      <point x="263" y="38" type="line"/>
      <point x="277" y="56" type="line"/>
      <point x="320" y="1"/>
      <point x="370" y="-26"/>
      <point x="427" y="-26" type="curve" smooth="yes"/>
      <point x="511" y="-26"/>
      <point x="565" y="18"/>
    </contour>
  </outline>
</glyph>
<glyph name="uni0C23" format="1">
  <advance width="701"/>
  <unicode hex="0C23"/>
  <outline>
    <contour>
      <point x="577" y="53" type="curve" smooth="yes" name="hr00"/>
      <point x="577" y="29"/>
      <point x="551" y="0"/>
      <point x="514" y="0" type="curve"/>
      <point x="471" y="13"/>
      <point x="454" y="30"/>
      <point x="455" y="55" type="curve" smooth="yes"/>
      <point x="455" y="70"/>
      <point x="460" y="82"/>
      <point x="469" y="91" type="curve"/>
      <point x="482" y="100"/>
      <point x="497" y="105"/>
      <point x="514" y="105" type="curve" smooth="yes"/>
      <point x="546" y="105"/>
      <point x="577" y="85"/>
    </contour>
    <contour>
      <point x="651" y="174" type="curve" smooth="yes"/>
      <point x="651" y="314"/>
      <point x="591" y="404"/>
      <point x="470" y="404" type="curve" smooth="yes"/>
      <point x="408" y="404"/>
      <point x="357" y="371"/>
      <point x="318" y="305" type="curve"/>
      <point x="278" y="369"/>
      <point x="228" y="404"/>
      <point x="168" y="404" type="curve" smooth="yes"/>
      <point x="123" y="404"/>
      <point x="87" y="392"/>
      <point x="60" y="368" type="curve" smooth="yes"/>
      <point x="33" y="345"/>
      <point x="19" y="321"/>
      <point x="19" y="296" type="curve" smooth="yes"/>
      <point x="19" y="260"/>
      <point x="43" y="223"/>
      <point x="92" y="185" type="curve"/>
      <point x="43" y="160"/>
      <point x="19" y="130"/>
      <point x="19" y="96" type="curve" smooth="yes"/>
      <point x="19" y="16"/>
      <point x="82" y="-26"/>
      <point x="163" y="-26" type="curve" smooth="yes"/>
      <point x="219" y="-26"/>
      <point x="269" y="-11"/>
      <point x="313" y="18" type="curve"/>
      <point x="293" y="38" type="line"/>
      <point x="249" y="19"/>
      <point x="212" y="10"/>
      <point x="181" y="10" type="curve" smooth="yes"/>
      <point x="118" y="10"/>
      <point x="87" y="39"/>
      <point x="87" y="96" type="curve"/>
      <point x="94" y="131"/>
      <point x="113" y="155"/>
      <point x="136" y="160" type="curve"/>
      <point x="165" y="171" type="line"/>
      <point x="192" y="174" type="line"/>
      <point x="192" y="197" type="line"/>
      <point x="123" y="209"/>
      <point x="81" y="238"/>
      <point x="81" y="273" type="curve"/>
      <point x="85" y="301"/>
      <point x="112" y="317"/>
      <point x="125" y="318" type="curve" smooth="yes"/>
      <point x="132" y="319"/>
      <point x="144" y="319"/>
      <point x="160" y="319" type="curve" smooth="yes"/>
      <point x="233" y="319"/>
      <point x="279" y="287"/>
      <point x="300" y="224" type="curve"/>
      <point x="337" y="224" type="line"/>
      <point x="368" y="288"/>
      <point x="401" y="314"/>
      <point x="472" y="314" type="curve" smooth="yes"/>
      <point x="571" y="314"/>
      <point x="623" y="249"/>
      <point x="615" y="150" type="curve" smooth="yes"/>
      <point x="610" y="90" type="line"/>
      <point x="593" y="133"/>
      <point x="563" y="158"/>
      <point x="516" y="158" type="curve" smooth="yes"/>
      <point x="452" y="158"/>
      <point x="411" y="113"/>
      <point x="411" y="65" type="curve" smooth="yes"/>
      <point x="411" y="40"/>
      <point x="421" y="19"/>
      <point x="440" y="0" type="curve"/>
      <point x="463" y="-17"/>
      <point x="491" y="-26"/>
      <point x="524" y="-26" type="curve" smooth="yes"/>
      <point x="572" y="-26"/>
      <point x="607" y="-10"/>
      <point x="625" y="26" type="curve" smooth="yes"/>
      <point x="643" y="63"/>
      <point x="651" y="113"/>
    </contour>
  </outline>
</glyph>
<glyph name="uni0C24" format="1">
  <advance width="617"/>
  <unicode hex="0C24"/>
  <outline>
    <contour>
      <point x="316" y="397" type="line" name="hr00"/>
      <point x="335" y="395"/>
      <point x="364" y="387"/>
      <point x="402" y="374" type="curve" smooth="yes"/>
      <point x="449" y="359"/>
      <point x="474" y="345"/>
      <point x="479" y="333" type="curve"/>
      <point x="403" y="333"/>
      <point x="357" y="294"/>
      <point x="357" y="233" type="curve" smooth="yes"/>
      <point x="357" y="181"/>
      <point x="403" y="142"/>
      <point x="455" y="142" type="curve" smooth="yes"/>
      <point x="488" y="142"/>
      <point x="512" y="152"/>
      <point x="525" y="172" type="curve"/>
      <point x="518" y="112"/>
      <point x="450" y="62"/>
      <point x="307" y="62" type="curve" smooth="yes"/>
      <point x="230" y="62"/>
      <point x="170" y="74"/>
      <point x="125" y="97" type="curve" smooth="yes"/>
      <point x="81" y="120"/>
      <point x="59" y="147"/>
      <point x="59" y="176" type="curve"/>
      <point x="76" y="150"/>
      <point x="101" y="137"/>
      <point x="136" y="137" type="curve" smooth="yes"/>
      <point x="162" y="137"/>
      <point x="185" y="145"/>
      <point x="206" y="163" type="curve" smooth="yes"/>
      <point x="228" y="181"/>
      <point x="237" y="204"/>
      <point x="237" y="229" type="curve" smooth="yes"/>
      <point x="237" y="294"/>
      <point x="193" y="331"/>
      <point x="137" y="331" type="curve" smooth="yes"/>
      <point x="104" y="331"/>
      <point x="77" y="320"/>
      <point x="55" y="297" type="curve"/>
      <point x="31" y="277"/>
      <point x="19" y="248"/>
      <point x="19" y="209" type="curve" smooth="yes"/>
      <point x="19" y="134"/>
      <point x="44" y="76"/>
      <point x="94" y="35" type="curve" smooth="yes"/>
      <point x="145" y="-6"/>
      <point x="212" y="-25"/>
      <point x="297" y="-26" type="curve" smooth="yes"/>
      <point x="469" y="-29"/>
      <point x="570" y="64"/>
      <point x="569" y="223" type="curve" smooth="yes"/>
      <point x="568" y="288"/>
      <point x="546" y="341"/>
      <point x="496" y="377" type="curve" smooth="yes"/>
      <point x="458" y="405"/>
      <point x="414" y="421"/>
      <point x="365" y="426" type="curve"/>
      <point x="555" y="586" type="line"/>
      <point x="518" y="633" type="line"/>
      <point x="350" y="454" type="line"/>
      <point x="337" y="446" type="line"/>
      <point x="329" y="444" type="line"/>
      <point x="320" y="446"/>
      <point x="309" y="452"/>
      <point x="296" y="462" type="curve"/>
      <point x="254" y="514" type="line"/>
      <point x="228" y="538"/>
      <point x="204" y="550"/>
      <point x="183" y="550" type="curve" smooth="yes"/>
      <point x="144" y="550"/>
      <point x="125" y="530"/>
      <point x="125" y="490" type="curve" smooth="yes"/>
      <point x="125" y="465"/>
      <point x="149" y="442"/>
      <point x="198" y="421" type="curve" smooth="yes"/>
      <point x="233" y="405"/>
      <point x="268" y="397"/>
      <point x="302" y="397" type="curve" smooth="yes"/>
    </contour>
    <contour>
      <point x="519" y="241" type="curve" smooth="yes"/>
      <point x="519" y="210"/>
      <point x="490" y="174"/>
      <point x="455" y="174" type="curve" smooth="yes"/>
      <point x="434" y="174"/>
      <point x="419" y="181"/>
      <point x="409" y="195" type="curve"/>
      <point x="396" y="207"/>
      <point x="390" y="222"/>
      <point x="390" y="240" type="curve" smooth="yes"/>
      <point x="390" y="276"/>
      <point x="419" y="303"/>
      <point x="455" y="303" type="curve" smooth="yes"/>
      <point x="495" y="303"/>
      <point x="519" y="273"/>
    </contour>
    <contour>
      <point x="202" y="237" type="curve" smooth="yes"/>
      <point x="202" y="205"/>
      <point x="173" y="174"/>
      <point x="140" y="174" type="curve" smooth="yes"/>
      <point x="119" y="174"/>
      <point x="103" y="181"/>
      <point x="92" y="194" type="curve"/>
      <point x="80" y="211"/>
      <point x="74" y="225"/>
      <point x="74" y="236" type="curve"/>
      <point x="77" y="255"/>
      <point x="83" y="269"/>
      <point x="91" y="278" type="curve"/>
      <point x="104" y="290"/>
      <point x="121" y="296"/>
      <point x="140" y="296" type="curve" smooth="yes"/>
      <point x="175" y="296"/>
      <point x="202" y="273"/>
    </contour>
  </outline>
</glyph>
<glyph name="uni0C25" format="1">
  <advance width="600"/>
  <unicode hex="0C25"/>
  <outline>
    <contour>
      <point x="329" y="-127" type="curve" smooth="yes" name="hr00"/>
      <point x="329" y="-114"/>
      <point x="324" y="-90"/>
      <point x="311" y="-54" type="curve" smooth="yes"/>
      <point x="283" y="24" type="line"/>
      <point x="256" y="-47" type="line"/>
      <point x="245" y="-86"/>
      <point x="240" y="-113"/>
      <point x="240" y="-127" type="curve" smooth="yes"/>
      <point x="240" y="-156"/>
      <point x="254" y="-171"/>
      <point x="283" y="-171" type="curve"/>
      <point x="300" y="-168"/>
      <point x="311" y="-164"/>
      <point x="316" y="-159" type="curve" smooth="yes"/>
      <point x="325" y="-150"/>
      <point x="329" y="-140"/>
    </contour>
    <contour>
      <point x="346" y="241" type="curve" smooth="yes"/>
      <point x="346" y="276"/>
      <point x="326" y="296"/>
      <point x="287" y="296" type="curve"/>
      <point x="269" y="293"/>
      <point x="255" y="287"/>
      <point x="246" y="279" type="curve" smooth="yes"/>
      <point x="236" y="269"/>
      <point x="231" y="256"/>
      <point x="231" y="241" type="curve" smooth="yes"/>
      <point x="231" y="205"/>
      <point x="258" y="186"/>
      <point x="287" y="186" type="curve" smooth="yes"/>
      <point x="326" y="186"/>
      <point x="346" y="204"/>
    </contour>
    <contour>
      <point x="497" y="181" type="curve" smooth="yes"/>
      <point x="497" y="102"/>
      <point x="463" y="55"/>
      <point x="404" y="55" type="curve" smooth="yes"/>
      <point x="345" y="55"/>
      <point x="311" y="82"/>
      <point x="302" y="137" type="curve"/>
      <point x="273" y="137" type="line"/>
      <point x="258" y="82"/>
      <point x="223" y="55"/>
      <point x="168" y="55" type="curve" smooth="yes"/>
      <point x="105" y="55"/>
      <point x="73" y="98"/>
      <point x="73" y="183" type="curve" smooth="yes"/>
      <point x="73" y="232"/>
      <point x="94" y="275"/>
      <point x="135" y="313" type="curve" smooth="yes"/>
      <point x="176" y="352"/>
      <point x="225" y="371"/>
      <point x="282" y="371" type="curve" smooth="yes"/>
      <point x="344" y="371"/>
      <point x="395" y="351"/>
      <point x="436" y="312" type="curve" smooth="yes"/>
      <point x="477" y="273"/>
      <point x="497" y="230"/>
    </contour>
    <contour>
      <point x="550" y="150" type="curve" smooth="yes"/>
      <point x="550" y="223"/>
      <point x="526" y="283"/>
      <point x="477" y="332" type="curve" smooth="yes"/>
      <point x="433" y="375"/>
      <point x="379" y="400"/>
      <point x="315" y="406" type="curve"/>
      <point x="547" y="553" type="line"/>
      <point x="488" y="597" type="line"/>
      <point x="331" y="456" type="line"/>
      <point x="306" y="436" type="line"/>
      <point x="305" y="433"/>
      <point x="300" y="432"/>
      <point x="293" y="432" type="curve" smooth="yes"/>
      <point x="279" y="432"/>
      <point x="266" y="446"/>
      <point x="254" y="473" type="curve" smooth="yes"/>
      <point x="242" y="501"/>
      <point x="230" y="520"/>
      <point x="218" y="529" type="curve" smooth="yes"/>
      <point x="206" y="539"/>
      <point x="193" y="544"/>
      <point x="179" y="544" type="curve" smooth="yes"/>
      <point x="139" y="544"/>
      <point x="119" y="525"/>
      <point x="119" y="486" type="curve" smooth="yes"/>
      <point x="119" y="477"/>
      <point x="122" y="468"/>
      <point x="127" y="460" type="curve"/>
      <point x="154" y="433" type="line"/>
      <point x="186" y="414" type="line" smooth="yes"/>
      <point x="189" y="413"/>
      <point x="194" y="410"/>
      <point x="201" y="406" type="curve"/>
      <point x="220" y="401" type="line"/>
      <point x="96" y="372"/>
      <point x="19" y="282"/>
      <point x="19" y="150" type="curve" smooth="yes"/>
      <point x="19" y="37"/>
      <point x="73" y="-26"/>
      <point x="152" y="-26" type="curve" smooth="yes"/>
      <point x="183" y="-26"/>
      <point x="210" y="-19"/>
      <point x="233" y="-6" type="curve"/>
      <point x="258" y="14"/>
      <point x="275" y="35"/>
      <point x="284" y="58" type="curve"/>
      <point x="311" y="2"/>
      <point x="354" y="-26"/>
      <point x="414" y="-26" type="curve" smooth="yes"/>
      <point x="495" y="-26"/>
      <point x="550" y="37"/>
    </contour>
  </outline>
</glyph>
<glyph name="uni0C28" format="1">
  <advance width="546"/>
  <unicode hex="0C28"/>
  <outline>
    <contour>
      <point x="472" y="585" type="line" name="hr00"/>
      <point x="436" y="632" type="line"/>
      <point x="268" y="451" type="line"/>
      <point x="255" y="445" type="line"/>
      <point x="246" y="442" type="line"/>
      <point x="237" y="445"/>
      <point x="226" y="450"/>
      <point x="214" y="459" type="curve"/>
      <point x="172" y="513" type="line"/>
      <point x="145" y="537"/>
      <point x="121" y="549"/>
      <point x="98" y="549" type="curve" smooth="yes"/>
      <point x="61" y="549"/>
      <point x="43" y="529"/>
      <point x="43" y="488" type="curve" smooth="yes"/>
      <point x="43" y="463"/>
      <point x="67" y="440"/>
      <point x="115" y="419" type="curve" smooth="yes"/>
      <point x="149" y="404"/>
      <point x="184" y="395"/>
      <point x="219" y="396" type="curve" smooth="yes"/>
      <point x="246" y="397" type="line" smooth="yes"/>
      <point x="301" y="399"/>
      <point x="350" y="376"/>
      <point x="393" y="333" type="curve" smooth="yes"/>
      <point x="436" y="290"/>
      <point x="457" y="244"/>
      <point x="457" y="195" type="curve" smooth="yes"/>
      <point x="457" y="110"/>
      <point x="422" y="67"/>
      <point x="352" y="67" type="curve" smooth="yes"/>
      <point x="333" y="67"/>
      <point x="314" y="73"/>
      <point x="297" y="86" type="curve" smooth="yes"/>
      <point x="272" y="105" type="line"/>
      <point x="240" y="137" type="line" smooth="yes"/>
      <point x="193" y="184"/>
      <point x="164" y="212"/>
      <point x="124" y="212" type="curve" smooth="yes"/>
      <point x="52" y="212"/>
      <point x="18" y="159"/>
      <point x="19" y="88" type="curve" smooth="yes"/>
      <point x="20" y="63"/>
      <point x="28" y="37"/>
      <point x="40" y="10" type="curve"/>
      <point x="57" y="-14"/>
      <point x="74" y="-26"/>
      <point x="91" y="-26" type="curve" smooth="yes"/>
      <point x="116" y="-26"/>
      <point x="132" y="-12"/>
      <point x="141" y="17" type="curve"/>
      <point x="142" y="38"/>
      <point x="134" y="56"/>
      <point x="118" y="70" type="curve" smooth="yes"/>
      <point x="103" y="84"/>
      <point x="92" y="98"/>
      <point x="86" y="111" type="curve"/>
      <point x="81" y="125"/>
      <point x="78" y="137"/>
      <point x="78" y="147" type="curve"/>
      <point x="79" y="155"/>
      <point x="83" y="162"/>
      <point x="92" y="168" type="curve"/>
      <point x="98" y="175"/>
      <point x="108" y="179"/>
      <point x="123" y="179" type="curve" smooth="yes"/>
      <point x="142" y="179"/>
      <point x="165" y="163"/>
      <point x="184" y="128" type="curve" smooth="yes"/>
      <point x="211" y="78" type="line"/>
      <point x="227" y="51" type="line"/>
      <point x="243" y="28" type="line" smooth="yes"/>
      <point x="262" y="1"/>
      <point x="302" y="-26"/>
      <point x="345" y="-26" type="curve" smooth="yes"/>
      <point x="446" y="-26"/>
      <point x="496" y="48"/>
      <point x="496" y="197" type="curve" smooth="yes"/>
      <point x="496" y="260"/>
      <point x="470" y="315"/>
      <point x="418" y="362" type="curve" smooth="yes"/>
      <point x="377" y="399"/>
      <point x="332" y="420"/>
      <point x="284" y="426" type="curve"/>
    </contour>
  </outline>
</glyph>
<glyph name="uni0C2A" format="1">
  <advance width="562"/>
  <unicode hex="0C2A"/>
  <outline>
    <contour>
      <point x="334" y="595" type="line" name="hr00"/>
      <point x="232" y="463" type="line"/>
      <point x="207" y="438" type="line"/>
      <point x="195" y="431" type="line"/>
      <point x="187" y="429" type="line"/>
      <point x="182" y="429"/>
      <point x="173" y="435"/>
      <point x="161" y="446" type="curve"/>
      <point x="141" y="486" type="line" smooth="yes"/>
      <point x="123" y="521"/>
      <point x="101" y="537"/>
      <point x="82" y="537" type="curve" smooth="yes"/>
      <point x="65" y="537"/>
      <point x="50" y="532"/>
      <point x="36" y="523" type="curve"/>
      <point x="25" y="510"/>
      <point x="19" y="495"/>
      <point x="19" y="478" type="curve" smooth="yes"/>
      <point x="19" y="449"/>
      <point x="32" y="425"/>
      <point x="58" y="404" type="curve" smooth="yes"/>
      <point x="85" y="383"/>
      <point x="115" y="373"/>
      <point x="150" y="373" type="curve"/>
      <point x="198" y="385" type="line"/>
      <point x="209" y="392"/>
      <point x="229" y="405"/>
      <point x="254" y="428" type="curve" smooth="yes"/>
      <point x="379" y="547" type="line"/>
    </contour>
    <contour>
      <point x="228" y="131" type="curve" smooth="yes"/>
      <point x="228" y="95"/>
      <point x="202" y="71"/>
      <point x="161" y="71" type="curve" smooth="yes"/>
      <point x="113" y="71"/>
      <point x="91" y="101"/>
      <point x="91" y="129" type="curve" smooth="yes"/>
      <point x="91" y="146"/>
      <point x="97" y="160"/>
      <point x="109" y="173" type="curve"/>
      <point x="124" y="185"/>
      <point x="142" y="191"/>
      <point x="161" y="191" type="curve" smooth="yes"/>
      <point x="202" y="191"/>
      <point x="228" y="162"/>
    </contour>
    <contour>
      <point x="514" y="183" type="curve" smooth="yes"/>
      <point x="514" y="234"/>
      <point x="494" y="283"/>
      <point x="457" y="331" type="curve" smooth="yes"/>
      <point x="419" y="380"/>
      <point x="383" y="404"/>
      <point x="348" y="404" type="curve" smooth="yes"/>
      <point x="313" y="404"/>
      <point x="298" y="386"/>
      <point x="298" y="355" type="curve" smooth="yes"/>
      <point x="298" y="340"/>
      <point x="303" y="329"/>
      <point x="313" y="321" type="curve" smooth="yes"/>
      <point x="327" y="310"/>
      <point x="339" y="305"/>
      <point x="348" y="305" type="curve" smooth="yes"/>
      <point x="383" y="305"/>
      <point x="413" y="293"/>
      <point x="437" y="267" type="curve" smooth="yes"/>
      <point x="462" y="241"/>
      <point x="473" y="212"/>
      <point x="473" y="183" type="curve" smooth="yes"/>
      <point x="473" y="114"/>
      <point x="437" y="67"/>
      <point x="388" y="67" type="curve" smooth="yes"/>
      <point x="345" y="67"/>
      <point x="306" y="93"/>
      <point x="270" y="146" type="curve" smooth="yes"/>
      <point x="233" y="199"/>
      <point x="199" y="226"/>
      <point x="150" y="226" type="curve" smooth="yes"/>
      <point x="83" y="226"/>
      <point x="50" y="184"/>
      <point x="50" y="100" type="curve" smooth="yes"/>
      <point x="50" y="58"/>
      <point x="59" y="27"/>
      <point x="78" y="6" type="curve" smooth="yes"/>
      <point x="97" y="-15"/>
      <point x="120" y="-26"/>
      <point x="145" y="-26" type="curve" smooth="yes"/>
      <point x="167" y="-26"/>
      <point x="190" y="-18"/>
      <point x="211" y="0" type="curve" smooth="yes"/>
      <point x="235" y="20"/>
      <point x="250" y="45"/>
      <point x="259" y="72" type="curve"/>
      <point x="272" y="43"/>
      <point x="288" y="18"/>
      <point x="311" y="0" type="curve" smooth="yes"/>
      <point x="333" y="-18"/>
      <point x="359" y="-26"/>
      <point x="386" y="-26" type="curve" smooth="yes"/>
      <point x="462" y="-26"/>
      <point x="514" y="47"/>
    </contour>
  </outline>
</glyph>
<glyph name="uni0C2C" format="1">
  <advance width="585"/>
  <unicode hex="0C2C"/>
  <outline>
    <contour>
      <point x="533" y="218" type="line" name="hr00"/>
      <point x="527" y="268" type="line"/>
      <point x="518" y="307"/>
      <point x="502" y="340"/>
      <point x="479" y="368" type="curve" smooth="yes"/>
      <point x="457" y="396"/>
      <point x="431" y="410"/>
      <point x="401" y="410" type="curve"/>
      <point x="366" y="403"/>
      <point x="351" y="391"/>
      <point x="351" y="371" type="curve" smooth="yes"/>
      <point x="351" y="346"/>
      <point x="366" y="328"/>
      <point x="396" y="318" type="curve"/>
      <point x="437" y="299"/>
      <point x="460" y="277"/>
      <point x="485" y="238" type="curve" smooth="yes"/>
      <point x="498" y="219"/>
      <point x="505" y="200"/>
      <point x="505" y="183" type="curve" smooth="yes"/>
      <point x="505" y="95"/>
      <point x="474" y="62"/>
      <point x="401" y="62" type="curve" smooth="yes"/>
      <point x="341" y="62"/>
      <point x="306" y="89"/>
      <point x="297" y="142" type="curve"/>
      <point x="261" y="142" type="line"/>
      <point x="254" y="108"/>
      <point x="243" y="88"/>
      <point x="227" y="81" type="curve"/>
      <point x="210" y="68"/>
      <point x="186" y="62"/>
      <point x="154" y="62" type="curve" smooth="yes"/>
      <point x="139" y="62"/>
      <point x="123" y="65"/>
      <point x="106" y="72" type="curve"/>
      <point x="93" y="81"/>
      <point x="87" y="91"/>
      <point x="87" y="100" type="curve"/>
      <point x="90" y="112"/>
      <point x="96" y="122"/>
      <point x="104" y="131" type="curve"/>
      <point x="166" y="182" type="line" smooth="yes"/>
      <point x="231" y="236"/>
      <point x="265" y="260"/>
      <point x="265" y="303" type="curve" smooth="yes"/>
      <point x="265" y="326"/>
      <point x="259" y="345"/>
      <point x="248" y="360" type="curve"/>
      <point x="211" y="401"/>
      <point x="184" y="408"/>
      <point x="163" y="410" type="curve" smooth="yes"/>
      <point x="138" y="412" type="line" smooth="yes"/>
      <point x="107" y="414"/>
      <point x="79" y="403"/>
      <point x="55" y="384" type="curve" smooth="yes"/>
      <point x="31" y="365"/>
      <point x="19" y="339"/>
      <point x="19" y="305" type="curve"/>
      <point x="22" y="289"/>
      <point x="26" y="278"/>
      <point x="31" y="272" type="curve"/>
      <point x="65" y="246"/>
      <point x="105" y="266"/>
      <point x="105" y="303" type="curve"/>
      <point x="100" y="313" type="line"/>
      <point x="98" y="332" type="line"/>
      <point x="102" y="346"/>
      <point x="109" y="355"/>
      <point x="119" y="360" type="curve"/>
      <point x="129" y="367"/>
      <point x="141" y="371"/>
      <point x="154" y="371" type="curve" smooth="yes"/>
      <point x="197" y="371"/>
      <point x="225" y="350"/>
      <point x="225" y="314" type="curve" smooth="yes"/>
      <point x="225" y="290"/>
      <point x="217" y="270"/>
      <point x="201" y="254" type="curve" smooth="yes"/>
      <point x="170" y="224" type="line"/>
      <point x="127" y="194" type="line"/>
      <point x="84" y="160" type="line" smooth="yes"/>
      <point x="72" y="151"/>
      <point x="63" y="142"/>
      <point x="56" y="133" type="curve"/>
      <point x="39" y="116"/>
      <point x="31" y="98"/>
      <point x="31" y="78" type="curve" smooth="yes"/>
      <point x="31" y="45"/>
      <point x="42" y="18"/>
      <point x="65" y="0" type="curve" smooth="yes"/>
      <point x="88" y="-18"/>
      <point x="118" y="-26"/>
      <point x="154" y="-26" type="curve" smooth="yes"/>
      <point x="186" y="-26"/>
      <point x="211" y="-20"/>
      <point x="228" y="-8" type="curve" smooth="yes"/>
      <point x="247" y="7"/>
      <point x="264" y="27"/>
      <point x="278" y="54" type="curve"/>
      <point x="297" y="26"/>
      <point x="314" y="6"/>
      <point x="329" y="-7" type="curve" smooth="yes"/>
      <point x="344" y="-20"/>
      <point x="368" y="-26"/>
      <point x="401" y="-26" type="curve" smooth="yes"/>
      <point x="440" y="-26"/>
      <point x="472" y="-12"/>
      <point x="497" y="16" type="curve" smooth="yes"/>
      <point x="523" y="45"/>
      <point x="541" y="97"/>
      <point x="536" y="174" type="curve" smooth="yes"/>
    </contour>
  </outline>
</glyph>
<glyph name="uni0C2D" format="1">
  <advance width="643"/>
  <unicode hex="0C2D"/>
  <outline>
    <contour>
      <point x="320" y="-128" type="curve" smooth="yes" name="hr00"/>
      <point x="320" y="-117"/>
      <point x="318" y="-103"/>
      <point x="311" y="-86" type="curve" smooth="yes"/>
      <point x="298" y="-53" type="line"/>
      <point x="275" y="23" type="line"/>
      <point x="251" y="-46" type="line"/>
      <point x="233" y="-95" type="line"/>
      <point x="228" y="-129" type="line"/>
      <point x="233" y="-156"/>
      <point x="258" y="-172"/>
      <point x="277" y="-172" type="curve"/>
      <point x="290" y="-169"/>
      <point x="300" y="-165"/>
      <point x="307" y="-160" type="curve"/>
      <point x="316" y="-149"/>
      <point x="320" y="-139"/>
    </contour>
    <contour>
      <point x="424" y="409" type="curve"/>
      <point x="433" y="412"/>
      <point x="440" y="417"/>
      <point x="445" y="422" type="curve"/>
      <point x="592" y="540" type="line"/>
      <point x="548" y="579" type="line"/>
      <point x="419" y="451" type="line" smooth="yes"/>
      <point x="404" y="436"/>
      <point x="393" y="428"/>
      <point x="386" y="428" type="curve" smooth="yes"/>
      <point x="372" y="428"/>
      <point x="359" y="441"/>
      <point x="346" y="468" type="curve" smooth="yes"/>
      <point x="334" y="495"/>
      <point x="324" y="513"/>
      <point x="315" y="522" type="curve" smooth="yes"/>
      <point x="306" y="532"/>
      <point x="292" y="537"/>
      <point x="273" y="537" type="curve" smooth="yes"/>
      <point x="229" y="537"/>
      <point x="207" y="517"/>
      <point x="207" y="478" type="curve" smooth="yes"/>
      <point x="207" y="459"/>
      <point x="223" y="440"/>
      <point x="254" y="421" type="curve" smooth="yes"/>
      <point x="283" y="403"/>
      <point x="315" y="394"/>
      <point x="352" y="394" type="curve" smooth="yes"/>
      <point x="363" y="394" type="line"/>
      <point x="396" y="389"/>
      <point x="423" y="372"/>
      <point x="452" y="333" type="curve" smooth="yes"/>
      <point x="481" y="295"/>
      <point x="497" y="249"/>
      <point x="497" y="192" type="curve" smooth="yes"/>
      <point x="497" y="105"/>
      <point x="465" y="62"/>
      <point x="401" y="62" type="curve" smooth="yes"/>
      <point x="370" y="62"/>
      <point x="348" y="67"/>
      <point x="333" y="78" type="curve"/>
      <point x="318" y="92"/>
      <point x="306" y="113"/>
      <point x="296" y="142" type="curve"/>
      <point x="261" y="142" type="line"/>
      <point x="240" y="84"/>
      <point x="202" y="55"/>
      <point x="147" y="55" type="curve" smooth="yes"/>
      <point x="105" y="55"/>
      <point x="84" y="72"/>
      <point x="84" y="106" type="curve" smooth="yes"/>
      <point x="84" y="126"/>
      <point x="91" y="142"/>
      <point x="104" y="155" type="curve"/>
      <point x="196" y="224" type="line" smooth="yes"/>
      <point x="239" y="256"/>
      <point x="257" y="293"/>
      <point x="257" y="326" type="curve" smooth="yes"/>
      <point x="257" y="381"/>
      <point x="222" y="408"/>
      <point x="151" y="408" type="curve" smooth="yes"/>
      <point x="118" y="408"/>
      <point x="87" y="398"/>
      <point x="59" y="379" type="curve" smooth="yes"/>
      <point x="32" y="360"/>
      <point x="19" y="335"/>
      <point x="19" y="303" type="curve" smooth="yes"/>
      <point x="19" y="270"/>
      <point x="34" y="253"/>
      <point x="65" y="254" type="curve" smooth="yes"/>
      <point x="90" y="254"/>
      <point x="109" y="276"/>
      <point x="109" y="303" type="curve" smooth="yes"/>
      <point x="109" y="326" type="line" smooth="yes"/>
      <point x="109" y="347"/>
      <point x="113" y="361"/>
      <point x="120" y="368" type="curve"/>
      <point x="129" y="374"/>
      <point x="140" y="377"/>
      <point x="154" y="377" type="curve" smooth="yes"/>
      <point x="191" y="377"/>
      <point x="219" y="349"/>
      <point x="219" y="318" type="curve" smooth="yes"/>
      <point x="219" y="292"/>
      <point x="187" y="259"/>
      <point x="123" y="218" type="curve" smooth="yes"/>
      <point x="87" y="194"/>
      <point x="62" y="174"/>
      <point x="47" y="159" type="curve"/>
      <point x="31" y="139"/>
      <point x="23" y="116"/>
      <point x="23" y="90" type="curve" smooth="yes"/>
      <point x="23" y="18"/>
      <point x="72" y="-26"/>
      <point x="133" y="-26" type="curve" smooth="yes"/>
      <point x="206" y="-26"/>
      <point x="254" y="0"/>
      <point x="275" y="68" type="curve"/>
      <point x="292" y="31"/>
      <point x="309" y="7"/>
      <point x="327" y="-6" type="curve" smooth="yes"/>
      <point x="346" y="-19"/>
      <point x="373" y="-26"/>
      <point x="409" y="-26" type="curve" smooth="yes"/>
      <point x="449" y="-26"/>
      <point x="480" y="-5"/>
      <point x="502" y="37" type="curve" smooth="yes"/>
      <point x="523" y="75"/>
      <point x="534" y="128"/>
      <point x="534" y="197" type="curve" smooth="yes"/>
      <point x="534" y="259"/>
      <point x="516" y="313"/>
      <point x="481" y="358" type="curve" smooth="yes"/>
      <point x="464" y="381"/>
      <point x="445" y="398"/>
    </contour>
  </outline>
</glyph>
<glyph name="uni0C2E" format="1">
  <advance width="841"/>
  <unicode hex="0C2E"/>
  <outline>
    <contour>
      <point x="474" y="115" type="line" name="hr00"/>
      <point x="479" y="142"/>
      <point x="482" y="169"/>
      <point x="482" y="195" type="curve" smooth="yes"/>
      <point x="482" y="263"/>
      <point x="454" y="319"/>
      <point x="398" y="364" type="curve" smooth="yes"/>
      <point x="361" y="394"/>
      <point x="320" y="415"/>
      <point x="274" y="426" type="curve"/>
      <point x="464" y="586" type="line"/>
      <point x="428" y="633" type="line"/>
      <point x="260" y="454" type="line"/>
      <point x="247" y="446" type="line"/>
      <point x="240" y="444" type="line"/>
      <point x="230" y="446"/>
      <point x="219" y="452"/>
      <point x="206" y="462" type="curve"/>
      <point x="163" y="514" type="line"/>
      <point x="137" y="538"/>
      <point x="113" y="550"/>
      <point x="92" y="550" type="curve" smooth="yes"/>
      <point x="53" y="550"/>
      <point x="34" y="530"/>
      <point x="34" y="490" type="curve" smooth="yes"/>
      <point x="34" y="465"/>
      <point x="58" y="442"/>
      <point x="106" y="421" type="curve" smooth="yes"/>
      <point x="142" y="405"/>
      <point x="177" y="397"/>
      <point x="211" y="397" type="curve" smooth="yes"/>
      <point x="227" y="397" type="line" smooth="yes"/>
      <point x="277" y="397"/>
      <point x="323" y="374"/>
      <point x="365" y="340" type="curve" smooth="yes"/>
      <point x="414" y="301"/>
      <point x="438" y="253"/>
      <point x="438" y="197" type="curve" smooth="yes"/>
      <point x="438" y="111"/>
      <point x="405" y="68"/>
      <point x="338" y="68" type="curve" smooth="yes"/>
      <point x="309" y="68"/>
      <point x="275" y="93"/>
      <point x="236" y="143" type="curve" smooth="yes"/>
      <point x="197" y="194"/>
      <point x="158" y="219"/>
      <point x="120" y="219" type="curve" smooth="yes"/>
      <point x="53" y="219"/>
      <point x="19" y="167"/>
      <point x="19" y="96" type="curve" smooth="yes"/>
      <point x="19" y="19"/>
      <point x="59" y="-24"/>
      <point x="115" y="-24" type="curve" smooth="yes"/>
      <point x="139" y="-24"/>
      <point x="162" y="-16"/>
      <point x="183" y="3" type="curve" smooth="yes"/>
      <point x="205" y="22"/>
      <point x="215" y="46"/>
      <point x="218" y="71" type="curve"/>
      <point x="255" y="8"/>
      <point x="296" y="-24"/>
      <point x="343" y="-24" type="curve" smooth="yes"/>
      <point x="386" y="-24"/>
      <point x="420" y="-4"/>
      <point x="445" y="37" type="curve" smooth="yes"/>
      <point x="454" y="53"/>
      <point x="463" y="70"/>
      <point x="464" y="79" type="curve"/>
      <point x="469" y="72" type="line" smooth="yes"/>
      <point x="491" y="41"/>
      <point x="511" y="21"/>
      <point x="525" y="10" type="curve"/>
      <point x="564" y="-15"/>
      <point x="601" y="-28"/>
      <point x="637" y="-28" type="curve" smooth="yes"/>
      <point x="726" y="-28"/>
      <point x="792" y="44"/>
      <point x="792" y="181" type="curve" smooth="yes"/>
      <point x="792" y="212"/>
      <point x="783" y="247"/>
      <point x="764" y="288" type="curve"/>
      <point x="731" y="338" type="line" smooth="yes"/>
      <point x="724" y="349"/>
      <point x="711" y="362"/>
      <point x="696" y="376" type="curve"/>
      <point x="667" y="397"/>
      <point x="642" y="408"/>
      <point x="622" y="408" type="curve" smooth="yes"/>
      <point x="599" y="408"/>
      <point x="583" y="403"/>
      <point x="574" y="394" type="curve"/>
      <point x="564" y="386"/>
      <point x="559" y="375"/>
      <point x="559" y="360" type="curve"/>
      <point x="564" y="327"/>
      <point x="583" y="305"/>
      <point x="622" y="305" type="curve" smooth="yes"/>
      <point x="711" y="305"/>
      <point x="755" y="265"/>
      <point x="755" y="186" type="curve" smooth="yes"/>
      <point x="755" y="113"/>
      <point x="712" y="67"/>
      <point x="624" y="67" type="curve"/>
      <point x="575" y="72" type="line"/>
      <point x="528" y="87" type="line"/>
      <point x="479" y="112" type="line"/>
    </contour>
    <contour>
      <point x="190" y="126" type="curve" smooth="yes"/>
      <point x="190" y="87"/>
      <point x="168" y="68"/>
      <point x="125" y="68" type="curve" smooth="yes"/>
      <point x="107" y="68"/>
      <point x="92" y="74"/>
      <point x="79" y="85" type="curve"/>
      <point x="69" y="96"/>
      <point x="64" y="109"/>
      <point x="64" y="124" type="curve" smooth="yes"/>
      <point x="64" y="159"/>
      <point x="88" y="183"/>
      <point x="125" y="183" type="curve" smooth="yes"/>
      <point x="164" y="183"/>
      <point x="190" y="157"/>
    </contour>
  </outline>
</glyph>
<glyph name="uni0C2F" format="1">
  <advance width="1107"/>
  <unicode hex="0C2F"/>
  <outline>
    <contour>
      <point x="737" y="73" type="line" name="hr00"/>
      <point x="758" y="43"/>
      <point x="777" y="23"/>
      <point x="792" y="13" type="curve" smooth="yes"/>
      <point x="829" y="-13"/>
      <point x="867" y="-26"/>
      <point x="904" y="-26" type="curve" smooth="yes"/>
      <point x="947" y="-26"/>
      <point x="984" y="-9"/>
      <point x="1014" y="26" type="curve" smooth="yes"/>
      <point x="1044" y="61"/>
      <point x="1059" y="113"/>
      <point x="1059" y="182" type="curve" smooth="yes"/>
      <point x="1059" y="213"/>
      <point x="1050" y="249"/>
      <point x="1031" y="290" type="curve"/>
      <point x="998" y="340" type="line" smooth="yes"/>
      <point x="991" y="351"/>
      <point x="979" y="363"/>
      <point x="964" y="377" type="curve"/>
      <point x="933" y="399"/>
      <point x="908" y="410"/>
      <point x="888" y="410" type="curve" smooth="yes"/>
      <point x="867" y="410"/>
      <point x="851" y="405"/>
      <point x="841" y="395" type="curve"/>
      <point x="830" y="387"/>
      <point x="824" y="376"/>
      <point x="824" y="362" type="curve"/>
      <point x="831" y="329"/>
      <point x="851" y="308"/>
      <point x="888" y="308" type="curve" smooth="yes"/>
      <point x="976" y="308"/>
      <point x="1020" y="268"/>
      <point x="1020" y="187" type="curve" smooth="yes"/>
      <point x="1020" y="114"/>
      <point x="978" y="68"/>
      <point x="891" y="68" type="curve"/>
      <point x="841" y="73" type="line"/>
      <point x="795" y="88" type="line"/>
      <point x="747" y="113" type="line"/>
      <point x="741" y="119" type="line"/>
      <point x="744" y="142"/>
      <point x="747" y="168"/>
      <point x="746" y="197" type="curve" smooth="yes"/>
      <point x="741" y="284"/>
      <point x="702" y="364"/>
      <point x="604" y="404" type="curve" smooth="yes"/>
      <point x="572" y="417" type="line"/>
      <point x="582" y="422" type="line"/>
      <point x="728" y="540" type="line"/>
      <point x="686" y="579" type="line"/>
      <point x="557" y="451" type="line" smooth="yes"/>
      <point x="543" y="437"/>
      <point x="531" y="430"/>
      <point x="525" y="428" type="curve"/>
      <point x="514" y="429" type="line" smooth="yes"/>
      <point x="503" y="431"/>
      <point x="492" y="445"/>
      <point x="480" y="470" type="curve" smooth="yes"/>
      <point x="469" y="495"/>
      <point x="459" y="513"/>
      <point x="450" y="522" type="curve"/>
      <point x="442" y="532"/>
      <point x="429" y="537"/>
      <point x="410" y="537" type="curve" smooth="yes"/>
      <point x="365" y="537"/>
      <point x="343" y="517"/>
      <point x="343" y="478" type="curve" smooth="yes"/>
      <point x="343" y="459"/>
      <point x="358" y="439"/>
      <point x="388" y="421" type="curve" smooth="yes"/>
      <point x="419" y="402"/>
      <point x="452" y="392"/>
      <point x="488" y="394" type="curve" smooth="yes"/>
      <point x="509" y="395" type="line"/>
      <point x="564" y="384"/>
      <point x="589" y="373"/>
      <point x="620" y="356" type="curve"/>
      <point x="677" y="317"/>
      <point x="706" y="249"/>
      <point x="706" y="197" type="curve" smooth="yes"/>
      <point x="706" y="97"/>
      <point x="669" y="64"/>
      <point x="572" y="64" type="curve" smooth="yes"/>
      <point x="525" y="64"/>
      <point x="476" y="85"/>
      <point x="427" y="128" type="curve"/>
      <point x="431" y="139"/>
      <point x="433" y="150"/>
      <point x="433" y="160" type="curve" smooth="yes"/>
      <point x="434" y="190" type="line" smooth="yes"/>
      <point x="435" y="235"/>
      <point x="424" y="273"/>
      <point x="405" y="304" type="curve" smooth="yes"/>
      <point x="384" y="340"/>
      <point x="359" y="363"/>
      <point x="331" y="377" type="curve" smooth="yes"/>
      <point x="265" y="411"/>
      <point x="189" y="403"/>
      <point x="124" y="373" type="curve" smooth="yes"/>
      <point x="59" y="343"/>
      <point x="19" y="281"/>
      <point x="19" y="192" type="curve" smooth="yes"/>
      <point x="19" y="125"/>
      <point x="40" y="71"/>
      <point x="83" y="32" type="curve" smooth="yes"/>
      <point x="126" y="-7"/>
      <point x="174" y="-26"/>
      <point x="227" y="-26" type="curve" smooth="yes"/>
      <point x="264" y="-26"/>
      <point x="300" y="-17"/>
      <point x="337" y="1" type="curve"/>
      <point x="371" y="22"/>
      <point x="395" y="48"/>
      <point x="409" y="81" type="curve"/>
      <point x="457" y="33" type="line"/>
      <point x="477" y="17" type="line"/>
      <point x="505" y="-4" type="line"/>
      <point x="541" y="-22" type="line"/>
      <point x="559" y="-26" type="line"/>
      <point x="583" y="-26" type="line" smooth="yes"/>
      <point x="618" y="-26"/>
      <point x="648" y="-18"/>
      <point x="673" y="-1" type="curve"/>
      <point x="696" y="19"/>
      <point x="714" y="45"/>
      <point x="727" y="78" type="curve" smooth="yes"/>
      <point x="728" y="81"/>
      <point x="729" y="84"/>
      <point x="729" y="87" type="curve"/>
    </contour>
    <contour>
      <point x="397" y="192" type="curve" smooth="yes"/>
      <point x="397" y="156"/>
      <point x="374" y="106"/>
      <point x="319" y="82" type="curve" smooth="yes"/>
      <point x="292" y="70"/>
      <point x="262" y="64"/>
      <point x="227" y="64" type="curve" smooth="yes"/>
      <point x="176" y="64"/>
      <point x="134" y="75"/>
      <point x="104" y="101" type="curve" smooth="yes"/>
      <point x="74" y="127"/>
      <point x="60" y="158"/>
      <point x="60" y="192" type="curve" smooth="yes"/>
      <point x="60" y="215"/>
      <point x="67" y="235"/>
      <point x="78" y="254" type="curve" smooth="yes"/>
      <point x="89" y="273"/>
      <point x="107" y="288"/>
      <point x="136" y="300" type="curve"/>
      <point x="152" y="309"/>
      <point x="164" y="313"/>
      <point x="173" y="314" type="curve"/>
      <point x="182" y="317"/>
      <point x="200" y="318"/>
      <point x="227" y="318" type="curve" smooth="yes"/>
      <point x="251" y="318"/>
      <point x="273" y="316"/>
      <point x="293" y="308" type="curve" smooth="yes"/>
      <point x="322" y="297" type="line" smooth="yes"/>
      <point x="375" y="277"/>
      <point x="397" y="232"/>
    </contour>
  </outline>
</glyph>
<glyph name="uni0C30" format="1">
  <advance width="508"/>
  <unicode hex="0C30"/>
  <outline>
    <contour>
      <point x="259" y="408" type="curve" name="hr00"/>
      <point x="272" y="411"/>
      <point x="281" y="414"/>
      <point x="286" y="417" type="curve"/>
      <point x="436" y="537" type="line"/>
      <point x="390" y="577" type="line"/>
      <point x="261" y="449" type="line"/>
      <point x="247" y="432"/>
      <point x="235" y="424"/>
      <point x="225" y="424" type="curve" smooth="yes"/>
      <point x="212" y="424"/>
      <point x="199" y="437"/>
      <point x="186" y="464" type="curve" smooth="yes"/>
      <point x="174" y="491"/>
      <point x="163" y="509"/>
      <point x="154" y="519" type="curve" smooth="yes"/>
      <point x="145" y="530"/>
      <point x="132" y="535"/>
      <point x="115" y="535" type="curve" smooth="yes"/>
      <point x="70" y="535"/>
      <point x="48" y="515"/>
      <point x="48" y="476" type="curve" smooth="yes"/>
      <point x="48" y="457"/>
      <point x="63" y="436"/>
      <point x="93" y="415" type="curve"/>
      <point x="110" y="407"/>
      <point x="126" y="401"/>
      <point x="142" y="396" type="curve"/>
      <point x="163" y="393"/>
      <point x="164" y="391"/>
      <point x="145" y="391" type="curve"/>
      <point x="127" y="383"/>
      <point x="106" y="371"/>
      <point x="84" y="353" type="curve" smooth="yes"/>
      <point x="40" y="316"/>
      <point x="19" y="263"/>
      <point x="19" y="196" type="curve" smooth="yes"/>
      <point x="18" y="57"/>
      <point x="124" y="-25"/>
      <point x="240" y="-26" type="curve" smooth="yes"/>
      <point x="354" y="-27"/>
      <point x="462" y="71"/>
      <point x="456" y="196" type="curve" smooth="yes"/>
      <point x="452" y="285"/>
      <point x="412" y="355"/>
      <point x="345" y="386" type="curve" smooth="yes"/>
      <point x="320" y="398"/>
      <point x="291" y="405"/>
    </contour>
    <contour>
      <point x="411" y="213" type="curve" smooth="yes"/>
      <point x="411" y="137"/>
      <point x="344" y="76"/>
      <point x="240" y="76" type="curve" smooth="yes"/>
      <point x="127" y="76"/>
      <point x="66" y="136"/>
      <point x="66" y="213" type="curve" smooth="yes"/>
      <point x="66" y="297"/>
      <point x="133" y="359"/>
      <point x="242" y="359" type="curve" smooth="yes"/>
      <point x="351" y="359"/>
      <point x="411" y="297"/>
    </contour>
  </outline>
</glyph>
<glyph name="uni0C31" format="1">
  <advance width="673"/>
  <unicode hex="0C31"/>
  <outline>
    <contour>
      <point x="222" y="313" type="curve" smooth="yes" name="hr00"/>
      <point x="222" y="266"/>
      <point x="199" y="245"/>
      <point x="163" y="245" type="curve" smooth="yes"/>
      <point x="130" y="245"/>
      <point x="104" y="270"/>
      <point x="104" y="313" type="curve" smooth="yes"/>
      <point x="104" y="352"/>
      <point x="130" y="378"/>
      <point x="163" y="378" type="curve" smooth="yes"/>
      <point x="199" y="378"/>
      <point x="222" y="349"/>
    </contour>
    <contour>
      <point x="623" y="183" type="curve" smooth="yes"/>
      <point x="623" y="256"/>
      <point x="610" y="313"/>
      <point x="581" y="356" type="curve" smooth="yes"/>
      <point x="556" y="393"/>
      <point x="525" y="412"/>
      <point x="490" y="412" type="curve" smooth="yes"/>
      <point x="442" y="412"/>
      <point x="415" y="379"/>
      <point x="415" y="332" type="curve" smooth="yes"/>
      <point x="415" y="310"/>
      <point x="420" y="289"/>
      <point x="433" y="269" type="curve" smooth="yes"/>
      <point x="445" y="250"/>
      <point x="461" y="236"/>
      <point x="479" y="227" type="curve"/>
      <point x="266" y="227" type="line"/>
      <point x="252" y="192" type="line"/>
      <point x="522" y="192" type="line"/>
      <point x="529" y="223" type="line"/>
      <point x="476" y="264"/>
      <point x="450" y="301"/>
      <point x="450" y="332" type="curve" smooth="yes"/>
      <point x="450" y="359"/>
      <point x="464" y="373"/>
      <point x="493" y="373" type="curve" smooth="yes"/>
      <point x="545" y="373"/>
      <point x="587" y="317"/>
      <point x="587" y="209" type="curve" smooth="yes"/>
      <point x="587" y="112"/>
      <point x="548" y="65"/>
      <point x="481" y="65" type="curve" smooth="yes"/>
      <point x="415" y="65"/>
      <point x="371" y="95"/>
      <point x="350" y="154" type="curve"/>
      <point x="313" y="154" type="line"/>
      <point x="292" y="95"/>
      <point x="249" y="65"/>
      <point x="184" y="65" type="curve" smooth="yes"/>
      <point x="144" y="65"/>
      <point x="112" y="79"/>
      <point x="87" y="106" type="curve"/>
      <point x="63" y="139"/>
      <point x="51" y="177"/>
      <point x="51" y="222" type="curve" smooth="yes"/>
      <point x="51" y="238"/>
      <point x="53" y="252"/>
      <point x="56" y="264" type="curve"/>
      <point x="70" y="297" type="line"/>
      <point x="70" y="253"/>
      <point x="109" y="212"/>
      <point x="164" y="212" type="curve" smooth="yes"/>
      <point x="217" y="212"/>
      <point x="263" y="254"/>
      <point x="263" y="313" type="curve" smooth="yes"/>
      <point x="263" y="373"/>
      <point x="214" y="414"/>
      <point x="161" y="414" type="curve" smooth="yes"/>
      <point x="120" y="414"/>
      <point x="86" y="396"/>
      <point x="59" y="361" type="curve" smooth="yes"/>
      <point x="32" y="326"/>
      <point x="19" y="281"/>
      <point x="19" y="227" type="curve" smooth="yes"/>
      <point x="19" y="154"/>
      <point x="34" y="93"/>
      <point x="64" y="45" type="curve" smooth="yes"/>
      <point x="94" y="-2"/>
      <point x="136" y="-26"/>
      <point x="191" y="-26" type="curve" smooth="yes"/>
      <point x="224" y="-26"/>
      <point x="254" y="-13"/>
      <point x="281" y="12" type="curve"/>
      <point x="332" y="71" type="line"/>
      <point x="376" y="20"/>
      <point x="404" y="-9"/>
      <point x="415" y="-16" type="curve" smooth="yes"/>
      <point x="426" y="-23"/>
      <point x="445" y="-26"/>
      <point x="472" y="-26" type="curve" smooth="yes"/>
      <point x="521" y="-26"/>
      <point x="559" y="-4"/>
      <point x="584" y="41" type="curve" smooth="yes"/>
      <point x="610" y="86"/>
      <point x="623" y="133"/>
    </contour>
  </outline>
</glyph>
<glyph name="uni0C32" format="1">
  <advance width="538"/>
  <unicode hex="0C32"/>
  <outline>
    <contour>
      <point x="227" y="305" type="curve" smooth="yes" name="hr00"/>
      <point x="227" y="266"/>
      <point x="201" y="240"/>
      <point x="165" y="240" type="curve" smooth="yes"/>
      <point x="148" y="240"/>
      <point x="134" y="247"/>
      <point x="122" y="260" type="curve" smooth="yes"/>
      <point x="111" y="272"/>
      <point x="105" y="287"/>
      <point x="105" y="305" type="curve" smooth="yes"/>
      <point x="105" y="323"/>
      <point x="111" y="338"/>
      <point x="122" y="351" type="curve" smooth="yes"/>
      <point x="134" y="364"/>
      <point x="148" y="371"/>
      <point x="165" y="371" type="curve" smooth="yes"/>
      <point x="202" y="371"/>
      <point x="227" y="345"/>
    </contour>
    <contour>
      <point x="490" y="219" type="curve" smooth="yes"/>
      <point x="490" y="265"/>
      <point x="477" y="308"/>
      <point x="451" y="348" type="curve" smooth="yes"/>
      <point x="426" y="388"/>
      <point x="400" y="408"/>
      <point x="373" y="408" type="curve"/>
      <point x="337" y="403"/>
      <point x="319" y="388"/>
      <point x="319" y="364" type="curve"/>
      <point x="322" y="352"/>
      <point x="328" y="343"/>
      <point x="337" y="337" type="curve"/>
      <point x="349" y="331"/>
      <point x="361" y="328"/>
      <point x="373" y="328" type="curve" smooth="yes"/>
      <point x="390" y="328"/>
      <point x="407" y="318"/>
      <point x="426" y="297" type="curve" smooth="yes"/>
      <point x="445" y="277"/>
      <point x="454" y="250"/>
      <point x="454" y="215" type="curve" smooth="yes"/>
      <point x="454" y="168"/>
      <point x="433" y="130"/>
      <point x="391" y="101" type="curve" smooth="yes"/>
      <point x="354" y="76"/>
      <point x="309" y="63"/>
      <point x="255" y="63" type="curve" smooth="yes"/>
      <point x="201" y="63"/>
      <point x="155" y="77"/>
      <point x="118" y="105" type="curve" smooth="yes"/>
      <point x="77" y="137"/>
      <point x="56" y="174"/>
      <point x="56" y="215" type="curve" smooth="yes"/>
      <point x="56" y="233" type="line"/>
      <point x="60" y="271" type="line"/>
      <point x="70" y="301" type="line"/>
      <point x="70" y="279"/>
      <point x="79" y="258"/>
      <point x="97" y="238" type="curve"/>
      <point x="118" y="222"/>
      <point x="141" y="214"/>
      <point x="166" y="214" type="curve" smooth="yes"/>
      <point x="191" y="214"/>
      <point x="215" y="221"/>
      <point x="233" y="238" type="curve" smooth="yes"/>
      <point x="254" y="256"/>
      <point x="263" y="280"/>
      <point x="263" y="305" type="curve" smooth="yes"/>
      <point x="263" y="366"/>
      <point x="220" y="408"/>
      <point x="164" y="408" type="curve" smooth="yes"/>
      <point x="127" y="408"/>
      <point x="94" y="391"/>
      <point x="64" y="356" type="curve" smooth="yes"/>
      <point x="34" y="321"/>
      <point x="19" y="278"/>
      <point x="19" y="226" type="curve" smooth="yes"/>
      <point x="19" y="149"/>
      <point x="43" y="87"/>
      <point x="92" y="40" type="curve" smooth="yes"/>
      <point x="137" y="-4"/>
      <point x="192" y="-26"/>
      <point x="256" y="-26" type="curve" smooth="yes"/>
      <point x="320" y="-26"/>
      <point x="375" y="-4"/>
      <point x="421" y="41" type="curve" smooth="yes"/>
      <point x="467" y="86"/>
      <point x="490" y="145"/>
    </contour>
  </outline>
</glyph>
<glyph name="uni0C34" format="1">
  <advance width="693"/>
  <unicode hex="0C34"/>
  <outline>
    <contour>
      <point x="383" y="12" type="line" name="hr00"/>
      <point x="411" y="-13"/>
      <point x="441" y="-26"/>
      <point x="472" y="-26" type="curve" smooth="yes"/>
      <point x="528" y="-26"/>
      <point x="571" y="-2"/>
      <point x="600" y="45" type="curve" smooth="yes"/>
      <point x="630" y="93"/>
      <point x="645" y="154"/>
      <point x="645" y="227" type="curve" smooth="yes"/>
      <point x="645" y="281"/>
      <point x="631" y="326"/>
      <point x="604" y="361" type="curve" smooth="yes"/>
      <point x="577" y="396"/>
      <point x="543" y="414"/>
      <point x="504" y="414" type="curve" smooth="yes"/>
      <point x="449" y="414"/>
      <point x="401" y="373"/>
      <point x="401" y="313" type="curve" smooth="yes"/>
      <point x="401" y="254"/>
      <point x="443" y="212"/>
      <point x="498" y="212" type="curve" smooth="yes"/>
      <point x="557" y="212"/>
      <point x="593" y="253"/>
      <point x="593" y="297" type="curve"/>
      <point x="607" y="264" type="line" smooth="yes"/>
      <point x="612" y="252"/>
      <point x="613" y="238"/>
      <point x="613" y="222" type="curve" smooth="yes"/>
      <point x="613" y="177"/>
      <point x="600" y="139"/>
      <point x="575" y="106" type="curve"/>
      <point x="550" y="79"/>
      <point x="518" y="65"/>
      <point x="479" y="65" type="curve" smooth="yes"/>
      <point x="415" y="65"/>
      <point x="372" y="95"/>
      <point x="350" y="154" type="curve"/>
      <point x="313" y="154" type="line"/>
      <point x="292" y="95"/>
      <point x="249" y="65"/>
      <point x="184" y="65" type="curve" smooth="yes"/>
      <point x="144" y="65"/>
      <point x="112" y="79"/>
      <point x="87" y="106" type="curve"/>
      <point x="63" y="139"/>
      <point x="51" y="177"/>
      <point x="51" y="222" type="curve" smooth="yes"/>
      <point x="51" y="238"/>
      <point x="53" y="252"/>
      <point x="56" y="264" type="curve"/>
      <point x="70" y="297" type="line"/>
      <point x="70" y="253"/>
      <point x="109" y="212"/>
      <point x="164" y="212" type="curve" smooth="yes"/>
      <point x="217" y="212"/>
      <point x="263" y="254"/>
      <point x="263" y="313" type="curve" smooth="yes"/>
      <point x="263" y="373"/>
      <point x="214" y="414"/>
      <point x="161" y="414" type="curve" smooth="yes"/>
      <point x="120" y="414"/>
      <point x="86" y="396"/>
      <point x="59" y="361" type="curve" smooth="yes"/>
      <point x="32" y="326"/>
      <point x="19" y="281"/>
      <point x="19" y="227" type="curve" smooth="yes"/>
      <point x="19" y="154"/>
      <point x="34" y="93"/>
      <point x="64" y="45" type="curve" smooth="yes"/>
      <point x="94" y="-2"/>
      <point x="136" y="-26"/>
      <point x="191" y="-26" type="curve" smooth="yes"/>
      <point x="224" y="-26"/>
      <point x="254" y="-13"/>
      <point x="281" y="12" type="curve"/>
      <point x="332" y="71" type="line"/>
    </contour>
    <contour>
      <point x="501" y="378" type="curve" smooth="yes"/>
      <point x="533" y="378"/>
      <point x="561" y="352"/>
      <point x="561" y="313" type="curve" smooth="yes"/>
      <point x="561" y="270"/>
      <point x="533" y="245"/>
      <point x="501" y="245" type="curve" smooth="yes"/>
      <point x="465" y="245"/>
      <point x="441" y="266"/>
      <point x="441" y="313" type="curve" smooth="yes"/>
      <point x="441" y="349"/>
      <point x="465" y="378"/>
    </contour>
    <contour>
      <point x="163" y="378" type="curve" smooth="yes"/>
      <point x="199" y="378"/>
      <point x="222" y="349"/>
      <point x="222" y="313" type="curve" smooth="yes"/>
      <point x="222" y="266"/>
      <point x="199" y="245"/>
      <point x="163" y="245" type="curve" smooth="yes"/>
      <point x="130" y="245"/>
      <point x="104" y="270"/>
      <point x="104" y="313" type="curve" smooth="yes"/>
      <point x="104" y="352"/>
      <point x="130" y="378"/>
    </contour>
  </outline>
</glyph>
<glyph name="uni0C35" format="1">
  <advance width="532"/>
  <unicode hex="0C35"/>
  <outline>
    <contour>
      <point x="227" y="397" type="line" smooth="yes" name="hr00"/>
      <point x="277" y="397"/>
      <point x="323" y="374"/>
      <point x="365" y="340" type="curve" smooth="yes"/>
      <point x="414" y="301"/>
      <point x="438" y="253"/>
      <point x="438" y="197" type="curve" smooth="yes"/>
      <point x="438" y="111"/>
      <point x="405" y="68"/>
      <point x="338" y="68" type="curve" smooth="yes"/>
      <point x="309" y="68"/>
      <point x="275" y="93"/>
      <point x="236" y="143" type="curve" smooth="yes"/>
      <point x="197" y="194"/>
      <point x="158" y="219"/>
      <point x="120" y="219" type="curve" smooth="yes"/>
      <point x="53" y="219"/>
      <point x="19" y="167"/>
      <point x="19" y="96" type="curve" smooth="yes"/>
      <point x="19" y="19"/>
      <point x="59" y="-24"/>
      <point x="115" y="-24" type="curve" smooth="yes"/>
      <point x="139" y="-24"/>
      <point x="162" y="-16"/>
      <point x="183" y="3" type="curve" smooth="yes"/>
      <point x="205" y="22"/>
      <point x="215" y="46"/>
      <point x="218" y="71" type="curve"/>
      <point x="255" y="8"/>
      <point x="296" y="-24"/>
      <point x="343" y="-24" type="curve" smooth="yes"/>
      <point x="428" y="-24"/>
      <point x="482" y="63"/>
      <point x="482" y="195" type="curve" smooth="yes"/>
      <point x="482" y="263"/>
      <point x="454" y="319"/>
      <point x="398" y="364" type="curve" smooth="yes"/>
      <point x="361" y="394"/>
      <point x="320" y="415"/>
      <point x="274" y="426" type="curve"/>
      <point x="464" y="586" type="line"/>
      <point x="428" y="633" type="line"/>
      <point x="260" y="454" type="line"/>
      <point x="247" y="446" type="line"/>
      <point x="240" y="444" type="line"/>
      <point x="230" y="446"/>
      <point x="219" y="452"/>
      <point x="206" y="462" type="curve"/>
      <point x="163" y="514" type="line"/>
      <point x="137" y="538"/>
      <point x="113" y="550"/>
      <point x="92" y="550" type="curve" smooth="yes"/>
      <point x="53" y="550"/>
      <point x="34" y="530"/>
      <point x="34" y="490" type="curve" smooth="yes"/>
      <point x="34" y="465"/>
      <point x="58" y="442"/>
      <point x="106" y="421" type="curve" smooth="yes"/>
      <point x="142" y="405"/>
      <point x="177" y="397"/>
      <point x="211" y="397" type="curve" smooth="yes"/>
    </contour>
    <contour>
      <point x="190" y="126" type="curve" smooth="yes"/>
      <point x="190" y="87"/>
      <point x="168" y="68"/>
      <point x="125" y="68" type="curve" smooth="yes"/>
      <point x="107" y="68"/>
      <point x="92" y="74"/>
      <point x="79" y="85" type="curve"/>
      <point x="69" y="96"/>
      <point x="64" y="109"/>
      <point x="64" y="124" type="curve" smooth="yes"/>
      <point x="64" y="159"/>
      <point x="88" y="183"/>
      <point x="125" y="183" type="curve" smooth="yes"/>
      <point x="164" y="183"/>
      <point x="190" y="157"/>
    </contour>
  </outline>
</glyph>
